<?xml version="1.0" standalone="no"?>
<!DOCTYPE svg PUBLIC "-//W3C//DTD SVG 1.1//EN" "http://www.w3.org/Graphics/SVG/1.1/DTD/svg11.dtd" >
<svg xmlns="http://www.w3.org/2000/svg" xmlns:xlink="http://www.w3.org/1999/xlink" version="1.1">
<metadata></metadata>
<defs>
<font id="coresanscr-85heavuploadedfile" horiz-adv-x="1247" >
<font-face units-per-em="2048" ascent="1563" descent="-485" />
<missing-glyph horiz-adv-x="623" />
<glyph horiz-adv-x="0" />
<glyph horiz-adv-x="0" />
<glyph unicode="&#xd;" horiz-adv-x="681" />
<glyph unicode="&#x9;" horiz-adv-x="0" />
<glyph unicode=" "  horiz-adv-x="623" />
<glyph unicode="&#x09;" horiz-adv-x="623" />
<glyph unicode="&#xa0;" horiz-adv-x="623" />
<glyph unicode="!" horiz-adv-x="649" d="M96 180q0 87 65.5 146.5t163 59.5t163 -59.5t65.5 -146.5q0 -86 -65.5 -145.5t-163 -59.5t-163 59.5t-65.5 145.5zM130 593v707q0 65 34.5 99.5t98.5 34.5h123q65 0 99 -34.5t34 -99.5v-707q0 -65 -34 -99t-99 -34h-123q-65 0 -99 34t-34 99z" />
<glyph unicode="&#x22;" horiz-adv-x="1020" d="M111 987v313q0 65 34 99.5t99 34.5h90q65 0 99 -34.5t34 -99.5v-313q0 -65 -34.5 -99t-98.5 -34h-90q-65 0 -99 34.5t-34 98.5zM554 987v313q0 65 34.5 99.5t98.5 34.5h90q65 0 99 -34.5t34 -99.5v-313q0 -65 -34 -99t-99 -34h-90q-65 0 -99 34.5t-34 98.5z" />
<glyph unicode="#" horiz-adv-x="1434" d="M59 420v20q0 65 34.5 99t99.5 34h60l47 279h-32q-65 0 -99 34.5t-34 98.5v21q0 65 34.5 99t98.5 34h81l31 174q22 121 143 121h81q69 0 101 -38.5t21 -106.5l-27 -150h182l30 174q22 121 144 121h81q69 0 101 -38.5t20 -106.5l-26 -150h11q65 0 99 -34.5t34 -98.5v-21 q0 -65 -34 -99t-99 -34h-60l-47 -279h31q65 0 99 -34t34 -99v-20q0 -65 -34 -99t-99 -34h-81l-28 -166q-19 -121 -144 -121h-82q-69 0 -100.5 38t-19.5 105l24 144h-181l-29 -166q-19 -121 -143 -121h-82q-69 0 -100.5 38t-20.5 105l25 144h-11q-65 0 -99.5 34t-34.5 99z M603 573h181l47 279h-181z" />
<glyph unicode="$" horiz-adv-x="1234" d="M110 1013q0 152 91.5 266.5t243.5 157.5v72q0 65 34.5 99t99.5 34h86q65 0 99 -34t34 -99v-75q104 -28 196 -81q54 -33 61.5 -83.5t-30.5 -102.5l-35 -49q-70 -100 -184 -32q-99 57 -182 58q-53 0 -88.5 -29t-35.5 -71q0 -51 47.5 -88.5t170.5 -65.5q221 -50 339 -165 t118 -288q0 -159 -98 -278t-269 -162v-73q0 -65 -34.5 -99t-98.5 -34h-86q-65 0 -99 34.5t-34 98.5v70q-157 34 -283 125q-49 38 -52.5 87.5t35.5 98.5l39 51q73 96 186 21q126 -81 250 -81q66 0 109.5 33t43.5 84q0 56 -52.5 97.5t-192.5 72.5q-199 43 -314 154t-115 276z " />
<glyph unicode="%" horiz-adv-x="1895" d="M83 1075.5q0 156.5 113 264.5t280 108t280 -108t113 -264.5t-113 -265t-280 -108.5t-280 108.5t-113 265zM371 1075q0 -45 29.5 -75t75.5 -30t76 30t30 75t-30 75.5t-76 30.5t-75.5 -30.5t-29.5 -75.5zM511 44q-24 44 11 114l608 1179q49 96 157 97q73 0 97 -44t-11 -114 l-608 -1180q-49 -96 -157 -96q-73 0 -97 44zM1026 358.5q0 156.5 113 264.5t280 108t280 -108t113 -264.5t-113 -264.5t-280 -108t-280 108t-113 264.5zM1314 358q0 -45 29.5 -75t75.5 -30t76 30t30 75t-30 75.5t-76 30.5t-75.5 -30.5t-29.5 -75.5z" />
<glyph unicode="&#x26;" horiz-adv-x="1538" d="M93 374q0 249 242 414q-77 88 -106.5 157t-29.5 146q0 156 127.5 261.5t313.5 105.5q239 0 377 -160q42 -54 25 -102t-81 -76l-77 -33q-57 -24 -93.5 -13.5t-67.5 54.5q-34 45 -81 46q-37 0 -60.5 -23.5t-23.5 -56.5q0 -89 165 -251l261 -257q11 27 22 64q35 126 153 109 l81 -11q66 -9 95.5 -50t14.5 -104q-38 -147 -109 -265l167 -165q63 -63 43 -113.5t-111 -50.5h-120q-96 0 -164 67l-32 30q-173 -122 -400 -122q-228 0 -379.5 114t-151.5 285zM458 397q0 -57 46 -95.5t120 -38.5q98 0 177 56l-252 248q-91 -76 -91 -170z" />
<glyph unicode="'" horiz-adv-x="608" d="M111 987v313q0 65 34 99.5t99 34.5h121q65 0 99 -34.5t34 -99.5v-313q0 -65 -34.5 -99t-98.5 -34h-121q-65 0 -99 34.5t-34 98.5z" />
<glyph unicode="(" horiz-adv-x="906" d="M194 625q0 243 82.5 469t234.5 402q78 92 185 21l43 -29q106 -71 34 -184q-190 -301 -190 -679t190 -679q73 -114 -33 -185l-44 -28q-105 -71 -181 15q-153 175 -237 403.5t-84 473.5z" />
<glyph unicode=")" horiz-adv-x="906" d="M133 -54q190 301 190.5 678.5t-190.5 679.5q-73 114 33 184l44 29q105 71 181 -16q153 -175 237.5 -403t84.5 -473q0 -243 -83 -469.5t-235 -402.5q-78 -92 -185 -20l-43 28q-106 71 -34 185z" />
<glyph unicode="*" horiz-adv-x="1165" d="M141.5 796.5q-11.5 44.5 21.5 102.5l16 31q32 59 80.5 70t104.5 -28l85 -60l-12 103q-7 68 26.5 104t99.5 36h39q67 0 100 -36.5t26 -103.5l-11 -103l86 60q55 38 102.5 27t80.5 -69l18 -31q32 -59 16 -105t-78 -73l-96 -42l96 -42q61 -27 77 -73.5t-17 -104.5l-16 -31 q-32 -59 -80.5 -70t-103.5 28l-85 59l11 -102q7 -68 -26 -104t-100 -36h-39q-67 0 -100 36t-26 104l12 102l-87 -59q-55 -38 -102.5 -27t-80.5 69l-17 31q-32 59 -16 105t77 73l96 42l-112 49q-54 24 -65.5 68.5z" />
<glyph unicode="+" horiz-adv-x="1206" d="M117 646v67q0 65 34 99t99 34h169v181q0 65 34 99t99 34h102q65 0 99 -34t34 -99v-181h169q65 0 99.5 -34.5t34.5 -98.5v-67q0 -65 -34.5 -99t-99.5 -34h-169v-181q0 -65 -34 -99t-99 -34h-102q-65 0 -99 34t-34 99v181h-169q-65 0 -99 34.5t-34 98.5z" />
<glyph unicode="," horiz-adv-x="623" d="M94 182q0 88 61.5 147.5t156 59.5t156 -59.5t61.5 -147.5q0 -49 -22 -97l-115 -243q-45 -98 -155 -98q-58 0 -75.5 44t14.5 113l43 93q-58 24 -91.5 73.5t-33.5 114.5z" />
<glyph unicode="-" horiz-adv-x="880" d="M117 643v73q0 65 34 99t99 34h381q65 0 99 -34.5t34 -98.5v-73q0 -65 -34.5 -99t-98.5 -34h-381q-65 0 -99 34.5t-34 98.5z" />
<glyph unicode="." horiz-adv-x="623" d="M94 182q0 88 61.5 147.5t156 59.5t156 -59.5t61.5 -147.5t-61.5 -147.5t-156 -59.5t-156 59.5t-61.5 147.5z" />
<glyph unicode="/" horiz-adv-x="1047" d="M44 -133l601 1564q41 105 153 105h100q75 0 103.5 -42t2.5 -112l-602 -1563q-41 -105 -152 -106h-100q-75 0 -104 42t-2 112z" />
<glyph unicode="0" d="M95 717q0 218 60 384t181 261.5t288 95.5t287.5 -95.5t180.5 -261.5t60 -384t-60 -384t-180.5 -262t-287.5 -96t-288 96t-181 262t-60 384zM468 716.5q0 -188.5 39.5 -293t116 -104.5t116 104.5t39.5 293t-39.5 292.5t-116 104t-116 -104t-39.5 -292.5z" />
<glyph unicode="1" d="M211 1096q-63 117 53 180l213 116q76 42 165 42h116q65 0 99 -34.5t34 -99.5v-1167q0 -65 -34.5 -99t-98.5 -34h-122q-65 0 -99 34.5t-34 98.5v946l-102 -55q-117 -65 -180 53z" />
<glyph unicode="2" d="M177 133v80q0 94 64 165l409 450q46 50 66.5 89.5t20.5 83.5q0 49 -33.5 83t-84 34t-83.5 -31q-23 -22 -35 -31t-30 -21.5t-32 -16t-33.5 -3.5t-41.5 7l-96 30q-65 20 -88 63.5t6 103.5q61 110 176.5 174.5t265.5 64.5q211 0 351 -115t140 -293q0 -215 -169 -402 l-286 -314h308q65 0 99 -34.5t34 -98.5v-68q0 -65 -34.5 -99t-98.5 -34h-662q-65 0 -99 34.5t-34 98.5z" />
<glyph unicode="3" d="M132 216q4 47 49 93l44 44q30 30 59.5 37.5t58 -2t66.5 -35.5q68 -46 150 -46q72 0 120.5 48t48.5 118t-48 117t-121 48q-93 1 -138 70l-2 3q-78 98 7 187l198 210h-317q-65 0 -99 34.5t-34 98.5v59q0 65 34.5 99.5t98.5 34.5h611q65 0 99 -34.5t34 -99.5v-89 q0 -96 -69 -163l-196 -192q156 -46 245 -160t89 -270q0 -188 -154 -319.5t-386 -131.5q-121 0 -226.5 38.5t-181.5 110.5q-44 45 -40 92z" />
<glyph unicode="4" d="M66 374v83q0 90 49 165l478 726q57 86 161 86h114q65 0 99 -34.5t34 -99.5v-736h21q65 0 99 -34t34 -99v-57q0 -65 -34.5 -99t-98.5 -34h-21v-108q0 -65 -34 -99t-99 -34h-106q-65 0 -99 34.5t-34 98.5v108h-430q-65 0 -99 34t-34 99zM377 563h252v387z" />
<glyph unicode="5" d="M138 206.5q3 47.5 50 94.5l52 50q48 42 88.5 40.5t96.5 -39.5q67 -43 142 -43q72 0 124 49t52 120q0 73 -49.5 121.5t-122.5 48.5q-25 0 -46 -6q-17 -5 -45 -15.5t-41 -14.5t-41.5 -8.5t-46.5 0.5l-55 7q-63 8 -93 46.5t-23 103.5l67 548q15 125 140 125h559 q65 0 99 -34.5t34 -99.5v-59q0 -65 -34 -99t-99 -34h-331l-23 -186q33 2 53 2q205 0 346.5 -130t141.5 -328q0 -211 -150 -351t-383 -140q-250 0 -417 140q-48 44 -45 91.5z" />
<glyph unicode="6" d="M83 471q0 141 74 256l404 620q56 87 160 87h113q82 0 107 -46.5t-19 -114.5l-217 -333q73 -8 139 -31t124.5 -63.5t102 -94.5t68.5 -125.5t25 -154.5q0 -139 -72.5 -253.5t-196 -178.5t-270.5 -64q-227 0 -384.5 142.5t-157.5 353.5zM453 474q0 -76 49 -126.5t122 -50.5 q72 0 121.5 50.5t49.5 126.5t-50 127t-121 51q-73 0 -122 -50.5t-49 -127.5z" />
<glyph unicode="7" d="M154 1232v68q0 65 34 99.5t99 34.5h688q65 0 99 -34.5t34 -99.5v-75q0 -85 -32 -164l-392 -958q-42 -103 -154 -103h-124q-76 0 -104.5 43t0.5 112l395 944h-410q-65 0 -99 34t-34 99z" />
<glyph unicode="8" d="M93 431q0 108 57 202.5t156 138.5q-72 40 -113 113.5t-41 160.5q0 174 134.5 293t337 119t337.5 -119t135 -293q0 -86 -41.5 -160t-113.5 -114q99 -44 156 -138.5t57 -202.5q0 -194 -152.5 -325t-378 -131t-378 131.5t-152.5 324.5zM457 448.5q0 -72.5 48.5 -119.5 t118 -47t118.5 47t49 119.5t-49 120t-118.5 47.5t-118 -47.5t-48.5 -120zM498 1033q0 -52 35.5 -88.5t90 -36.5t90.5 36.5t36 88.5q0 53 -36 89t-90.5 36t-90 -36t-35.5 -89z" />
<glyph unicode="9" d="M83 963q0 139 72.5 253t196 178t271.5 64q227 0 384 -142t157 -353q0 -141 -73 -256l-405 -620q-56 -87 -160 -87h-112q-82 0 -107 46t19 115l217 333q-73 8 -139.5 31t-125 63.5t-102 94t-68.5 125.5t-25 155zM453 959.5q0 -75.5 49.5 -127t121.5 -51.5q73 0 122 50.5 t49 127.5q0 76 -49.5 127t-121.5 51t-121.5 -51t-49.5 -126.5z" />
<glyph unicode=":" horiz-adv-x="623" d="M94 182q0 88 61.5 147.5t156 59.5t156 -59.5t61.5 -147.5t-61.5 -147.5t-156 -59.5t-156 59.5t-61.5 147.5zM94 879q0 88 61.5 147t156 59t156 -59t61.5 -147t-61.5 -147.5t-156 -59.5t-156 59.5t-61.5 147.5z" />
<glyph unicode=";" horiz-adv-x="623" d="M94 182q0 88 61.5 147.5t156 59.5t156 -59.5t61.5 -147.5q0 -49 -22 -97l-115 -243q-45 -98 -155 -98q-58 0 -75.5 44t14.5 113l43 93q-58 24 -91.5 73.5t-33.5 114.5zM94 879q0 88 61.5 147t156 59t156 -59t61.5 -147t-61.5 -147.5t-156 -59.5t-156 59.5t-61.5 147.5z " />
<glyph unicode="&#x3c;" horiz-adv-x="1205" d="M112 675v8q0 105 93 158l696 383q70 38 114.5 11t44.5 -106v-107q0 -109 -97 -157l-378 -186l378 -186q97 -48 97 -157v-108q0 -79 -44.5 -105.5t-114.5 11.5l-696 383q-93 52 -93 158z" />
<glyph unicode="=" horiz-adv-x="1206" d="M117 404v61q0 65 34 99t99 34h706q65 0 99.5 -34.5t34.5 -98.5v-61q0 -65 -34.5 -99t-99.5 -34h-706q-65 0 -99 34.5t-34 98.5zM117 894v60q0 65 34 99t99 34h706q65 0 99.5 -34t34.5 -99v-60q0 -65 -34.5 -99t-99.5 -34h-706q-65 0 -99 34t-34 99z" />
<glyph unicode="&#x3e;" horiz-adv-x="1205" d="M145 228v108q0 109 98 157l378 186l-378 186q-97 48 -98 157v107q0 79 45.5 106t113.5 -11l696 -383q93 -52 94 -158v-8q0 -105 -94 -158l-696 -383q-69 -38 -114 -11t-45 105z" />
<glyph unicode="?" horiz-adv-x="1146" d="M102.5 1292q11.5 49 66.5 78q171 88 352 88q227 0 377 -129t150 -317q0 -144 -94.5 -260.5t-256.5 -161.5q0 -63 -34 -96.5t-99 -33.5h-123q-65 0 -99 34t-34 99v109q0 61 33.5 94t99.5 44q106 16 161 59.5t55 105.5q0 52 -45.5 84.5t-118.5 32.5q-75 0 -156 -38 q-58 -30 -103.5 -20t-76.5 66l-33 59q-33 54 -21.5 103zM274 180q0 87 65 146.5t164 59.5q97 0 162.5 -59.5t65.5 -146.5q0 -86 -65.5 -145.5t-162.5 -59.5t-163 59.5t-66 145.5z" />
<glyph unicode="@" horiz-adv-x="1994" d="M65 563q0 248 123 454t336 323.5t469 117.5q199 0 374.5 -69.5t298 -186.5t193.5 -273.5t71 -326.5q0 -221 -123 -362t-311 -141q-91 0 -171.5 40.5t-120.5 107.5q-42 -68 -122.5 -108t-172.5 -40q-174 0 -289 130t-115 322q0 189 113 320t279 131q66 0 127 -25.5 t106 -68.5q0 33 34.5 53.5t99.5 20.5h51q65 0 99 -34.5t34 -98.5v-431q9 -32 33 -49t55 -17q63 0 109 72t46 185q0 168 -93.5 316t-254.5 237t-350 89q-142 0 -269.5 -53.5t-219.5 -145t-146 -219t-54 -270.5q0 -191 91.5 -348.5t256 -248.5t368.5 -91q195 0 366 83 q35 16 55 23t42 7.5t38.5 -13.5t30.5 -43q22 -37 18.5 -66.5t-23 -50t-59.5 -39.5q-213 -108 -468 -108q-203 0 -381 69t-304 188.5t-198 285.5t-72 352zM824 551q0 -80 46.5 -129.5t116.5 -49.5q49 0 86.5 24.5t56.5 65.5v178q-19 40 -56.5 64.5t-86.5 24.5 q-70 0 -116.5 -49.5t-46.5 -128.5z" />
<glyph unicode="A" horiz-adv-x="1429" d="M72 152l394 1173q36 109 151 109h195q116 0 152 -109l394 -1173q11 -31 11 -56q0 -32 -17 -55q-30 -41 -103 -41h-124q-118 0 -149 112l-47 163h-428l-47 -163q-32 -112 -150 -112h-124q-72 0 -102 41q-16 23 -17 54q0 26 11 57zM582 570h266l-133 461z" />
<glyph unicode="B" horiz-adv-x="1294" d="M143 133v1167q0 65 34.5 99.5t98.5 34.5h438q201 0 322.5 -108t121.5 -282q0 -100 -50 -180t-133 -113q113 -31 181.5 -119.5t68.5 -212.5q0 -182 -127 -300.5t-324 -118.5h-498q-65 0 -99 34.5t-34 98.5zM517 304h194q58 0 95.5 38.5t37.5 100t-37.5 100.5t-95.5 39 h-194v-278zM517 874h162q54 0 88.5 34.5t34.5 92.5q0 59 -34.5 93.5t-88.5 34.5h-162v-255z" />
<glyph unicode="C" horiz-adv-x="1440" d="M73 717q0 206 101.5 376t281 267.5t396.5 97.5q220 0 402 -102q56 -32 64 -82q2 -9 1 -18q0 -41 -31 -85l-46 -66q-36 -51 -82 -59q-9 -1 -17 -1q-38 0 -84 26q-99 51 -207 51q-166 0 -277.5 -116t-111.5 -289t111.5 -289.5t277.5 -116.5q112 0 219 61q47 26 86 26 q57 0 98 -56l50 -68q35 -46 35 -89q0 -6 -1 -11q-5 -48 -55 -80q-193 -119 -432 -119q-217 0 -396.5 98t-281 268t-101.5 376z" />
<glyph unicode="D" horiz-adv-x="1484" d="M143 133v1167q0 65 34.5 99.5t98.5 34.5h417q211 0 375 -90.5t254 -253t90 -373.5t-90 -374t-254 -253t-375 -90h-417q-65 0 -99 34.5t-34 98.5zM532 336h131q166 0 262.5 100.5t96.5 280.5t-97 280.5t-262 100.5h-131v-762z" />
<glyph unicode="E" horiz-adv-x="1185" d="M143 133v1167q0 65 34.5 99.5t98.5 34.5h668q65 0 99 -34.5t34 -99.5v-59q0 -65 -34 -99t-99 -34h-412v-227h363q65 0 99 -34.5t34 -98.5v-54q0 -65 -34.5 -99t-98.5 -34h-363v-235h431q65 0 99 -34.5t34 -98.5v-60q0 -65 -34.5 -99t-98.5 -34h-687q-65 0 -99 34.5 t-34 98.5z" />
<glyph unicode="F" horiz-adv-x="1116" d="M143 133v1167q0 65 34.5 99.5t98.5 34.5h648q65 0 99 -34.5t34 -99.5v-65q0 -65 -34.5 -99t-98.5 -34h-392v-261h342q65 0 99.5 -34.5t34.5 -98.5v-66q0 -65 -34.5 -99t-99.5 -34h-342v-376q0 -65 -34 -99t-99 -34h-123q-65 0 -99 34.5t-34 98.5z" />
<glyph unicode="G" horiz-adv-x="1509" d="M73 717q0 206 101.5 376t281 267.5t396.5 97.5q220 0 402 -102q55 -32 64 -82q1 -9 1 -18q0 -42 -31 -85l-46 -66q-43 -61 -100 -61q-35 0 -74 22q-102 56 -216 56q-168 0 -278.5 -117t-110.5 -296q0 -174 112 -293.5t277 -119.5q85 0 147 36v207h-113q-65 0 -99 34 t-34 99v19q0 65 34 99t99 34h369q65 0 99.5 -34t34.5 -99v-420q0 -105 -79 -159q-202 -136 -458 -137q-217 0 -396.5 98t-281 268t-101.5 376z" />
<glyph unicode="H" horiz-adv-x="1462" d="M143 133v1167q0 65 34.5 99.5t98.5 34.5h123q65 0 99 -34.5t34 -99.5v-412h398v412q0 65 34 99.5t99 34.5h123q65 0 99 -34.5t34 -99.5v-1167q0 -65 -34.5 -99t-98.5 -34h-123q-65 0 -99 34.5t-34 98.5v420h-398v-420q0 -65 -34 -99t-99 -34h-123q-65 0 -99 34.5 t-34 98.5z" />
<glyph unicode="I" horiz-adv-x="681" d="M146 133v1167q0 65 34.5 99.5t99.5 34.5h122q65 0 99.5 -34.5t34.5 -99.5v-1167q0 -65 -34.5 -99t-99.5 -34h-122q-65 0 -99.5 34.5t-34.5 98.5z" />
<glyph unicode="J" horiz-adv-x="965" d="M57 173l20 64q30 95 91 95q15 0 31 -5q49 -15 91 -16q72 0 114 46.5t42 129.5v813q0 65 34.5 99.5t99.5 34.5h122q65 0 99.5 -34.5t34.5 -99.5v-843q0 -225 -127.5 -353.5t-353.5 -128.5q-115 0 -218 30q-58 17 -78 62q-11 24 -11 52q0 25 9 54z" />
<glyph unicode="K" horiz-adv-x="1316" d="M143 133v1167q0 65 34.5 99.5t98.5 34.5h123q65 0 99 -34.5t34 -99.5v-404h71l220 440q48 97 157 98h126q78 0 105 -44q12 -19 12 -42q0 -32 -21 -72l-280 -544l341 -572q25 -43 25 -76q0 -22 -10 -39q-26 -45 -107 -45h-122q-104 0 -159 91l-275 470h-83v-428 q0 -65 -34 -99t-99 -34h-123q-65 0 -99 34.5t-34 98.5z" />
<glyph unicode="L" horiz-adv-x="1080" d="M143 133v1167q0 65 34.5 99.5t98.5 34.5h123q65 0 99 -34.5t34 -99.5v-965h390q65 0 99 -34.5t34 -98.5v-69q0 -65 -34.5 -99t-98.5 -34h-646q-65 0 -99 34.5t-34 98.5z" />
<glyph unicode="M" horiz-adv-x="1773" d="M143 133v1167q0 65 34.5 99.5t98.5 34.5h199q109 0 157 -98l255 -509l255 509q48 97 156 98h199q65 0 99 -34.5t34 -99.5v-1167q0 -65 -34 -99t-99 -34h-90q-65 0 -99 34.5t-34 98.5v773l-202 -402q-47 -96 -157 -96h-57q-110 0 -157 96l-201 402v-773q0 -65 -34.5 -99 t-98.5 -34h-91q-65 0 -99 34.5t-34 98.5z" />
<glyph unicode="N" horiz-adv-x="1462" d="M143 133v1167q0 65 34.5 99.5t98.5 34.5h176q110 0 155 -100l356 -773v739q0 65 34 99.5t99 34.5h90q65 0 99 -34.5t34 -99.5v-1167q0 -65 -34.5 -99t-98.5 -34h-175q-110 0 -156 99l-355 773v-739q0 -65 -34.5 -99t-98.5 -34h-91q-65 0 -99 34.5t-34 98.5z" />
<glyph unicode="O" horiz-adv-x="1703" d="M73 717q0 206 101.5 376t281 267.5t396.5 97.5t396 -97.5t281 -267.5t102 -376t-102 -376t-281 -268t-396 -98t-396.5 98t-281 268t-101.5 376zM463 717q0 -173 111.5 -289.5t277.5 -116.5t277.5 116.5t111.5 289.5t-111.5 289t-277.5 116t-277.5 -116t-111.5 -289z" />
<glyph unicode="P" horiz-adv-x="1257" d="M143 133v1167q0 65 34.5 99.5t98.5 34.5h421q222 0 366.5 -138.5t144.5 -349.5q0 -212 -144 -349.5t-367 -137.5h-165v-326q0 -65 -34 -99t-99 -34h-123q-65 0 -99 34.5t-34 98.5zM532 760h115q82 0 131 51t49 135q0 83 -49 135t-131 52h-115v-373z" />
<glyph unicode="Q" horiz-adv-x="1703" d="M73 717q0 206 101.5 376t281 267.5t396.5 97.5t396 -97.5t281 -267.5t102 -376q0 -258 -158 -456l95 -107q41 -46 41 -90q0 -51 -55 -98l-91 -77q-47 -39 -90 -39q-51 0 -97 53l-115 130q-146 -57 -309 -58q-217 0 -396.5 98t-281 268t-101.5 376zM463 717 q0 -173 111.5 -289.5t277.5 -116.5t277.5 116.5t111.5 289.5t-111.5 289t-277.5 116t-277.5 -116t-111.5 -289z" />
<glyph unicode="R" horiz-adv-x="1294" d="M143 133v1167q0 65 34.5 99.5t98.5 34.5h421q223 0 367 -132t144 -340q0 -140 -67.5 -248t-187.5 -165l212 -390q22 -41 22 -73q-1 -23 -11 -41q-26 -45 -105 -45h-132q-108 0 -157 96l-198 393h-58v-356q0 -65 -34 -99t-99 -34h-117q-65 0 -99 34.5t-34 98.5zM526 769 h124q81 0 129 50.5t48 130.5q0 82 -48.5 132.5t-128.5 50.5h-124v-364z" />
<glyph unicode="S" horiz-adv-x="1234" d="M110 1013q0 191 140.5 318t356.5 127q209 0 387 -105q54 -33 62 -83q1 -9 1 -17q0 -42 -31 -85l-35 -50q-42 -60 -99 -60q-39 0 -86 28q-96 57 -182 58q-53 0 -88.5 -29t-35.5 -71q0 -51 47.5 -88.5t170.5 -65.5q221 -50 339 -165t118 -288q0 -200 -150.5 -331 t-396.5 -131q-262 0 -455 145q-49 36 -53 86v9q0 45 36 90l39 51q41 54 95 54q42 0 91 -33q126 -81 250 -81q66 0 109.5 33t43.5 84q0 56 -52.5 97.5t-192.5 72.5q-199 43 -314 154t-115 276z" />
<glyph unicode="T" horiz-adv-x="1150" d="M46 1232v68q0 65 34.5 99.5t98.5 34.5h793q65 0 99 -34.5t34 -99.5v-68q0 -65 -34.5 -99t-98.5 -34h-202v-966q0 -65 -34.5 -99t-98.5 -34h-123q-65 0 -99 34.5t-34 98.5v966h-202q-65 0 -99 34t-34 99z" />
<glyph unicode="U" horiz-adv-x="1382" d="M130 462v838q0 65 34.5 99.5t98.5 34.5h123q65 0 99 -34.5t34 -99.5v-821q0 -73 48.5 -119.5t123.5 -46.5t123.5 47t48.5 119v821q0 65 34.5 99.5t98.5 34.5h123q65 0 99 -34.5t34 -99.5v-838q0 -136 -74.5 -248t-203 -174.5t-283 -62.5t-283 62.5t-203.5 174.5t-75 248z " />
<glyph unicode="V" horiz-adv-x="1429" d="M72 1282q-11 31 -11 56q0 32 17 55q30 41 102 41h123q116 0 150 -112l262 -887l262 887q34 112 149 112h123q73 0 103 -41q17 -23 16 -55q0 -25 -10 -56l-394 -1173q-36 -109 -152 -109h-195q-116 0 -151 109z" />
<glyph unicode="W" horiz-adv-x="2043" d="M59 1285q-7 25 -7 47q0 37 20 62q31 40 102 40h125q122 0 146 -118l173 -808l182 809q26 117 146 117h152q121 0 146 -117l181 -809l173 808q25 118 147 118h125q71 0 102 -40q20 -25 20 -62q0 -21 -7 -47l-309 -1171q-31 -114 -147 -114h-163q-119 0 -147 115l-197 794 l-197 -794q-29 -115 -147 -115h-163q-117 0 -147 114z" />
<glyph unicode="X" horiz-adv-x="1349" d="M92 45q-11 19 -11 42q0 32 22 72l322 577l-297 539q-22 41 -22 73q0 23 10 41q26 45 106 45h134q108 0 156 -99l163 -337l163 337q48 98 155 99h134q79 0 106 -46q11 -19 11 -41q0 -32 -22 -72l-297 -539l321 -577q22 -41 22 -73q0 -23 -10 -41q-26 -45 -106 -45h-132 q-109 0 -157 97l-188 378l-189 -378q-48 -97 -156 -97h-132q-80 0 -106 45z" />
<glyph unicode="Y" horiz-adv-x="1359" d="M94 1390q27 44 106 44h133q110 0 155 -100l192 -419l191 419q46 99 156 100h133q79 0 106 -44q11 -19 11 -42q0 -32 -22 -73l-381 -718v-424q0 -65 -34 -99t-99 -34h-123q-65 0 -99 34.5t-34 98.5v424l-381 718q-21 40 -21 72q0 24 11 43z" />
<glyph unicode="Z" horiz-adv-x="1261" d="M101 133v80q0 92 55 165l532 721h-423q-65 0 -99 34t-34 99v68q0 65 34.5 99.5t98.5 34.5h752q65 0 99 -34.5t34 -99.5v-78q0 -91 -54 -166l-534 -721h475q65 0 99 -34.5t34 -98.5v-69q0 -65 -34 -99t-99 -34h-803q-65 0 -99 34.5t-34 98.5z" />
<glyph unicode="[" horiz-adv-x="906" d="M185 -154v1557q0 65 34.5 99t98.5 34h421q65 0 99 -34.5t34 -98.5v-69q0 -65 -34 -99t-99 -34h-165v-1153h165q65 0 99 -34t34 -99v-69q0 -65 -34 -99t-99 -34h-421q-65 0 -99 34.5t-34 98.5z" />
<glyph unicode="\" horiz-adv-x="1047" d="M44 1382q-27 70 2 112t104 42h100q112 0 152 -105l602 -1564q27 -70 -2 -112t-104 -42h-100q-112 0 -153 106z" />
<glyph unicode="]" horiz-adv-x="906" d="M34 -85q0 65 34 99t99 34h165v1153h-165q-65 0 -99 34.5t-34 98.5v69q0 65 34 99t99 34h421q65 0 99 -34.5t34 -98.5v-1557q0 -65 -34.5 -99t-98.5 -34h-421q-65 0 -99 34.5t-34 98.5v69z" />
<glyph unicode="^" horiz-adv-x="1288" d="M150.5 843q-25.5 46 18.5 114l250 390q56 87 160 87h131q103 0 159 -87l250 -390q44 -69 18.5 -114.5t-106.5 -45.5h-103q-103 0 -159 89l-125 205l-125 -205q-55 -89 -159 -89h-103q-81 0 -106.5 46z" />
<glyph unicode="_" horiz-adv-x="1024" d="M0 -245q0 65 34.5 99t98.5 34h758q65 0 99 -34t34 -99v-61q0 -65 -34.5 -99t-98.5 -34h-758q-65 0 -99 34t-34 99v61z" />
<glyph unicode="`" horiz-adv-x="890" d="M191.5 1447q23.5 48 108.5 48h71q54 0 91.5 -20t68.5 -64l73 -104q47 -68 22.5 -115t-106.5 -47h-53q-100 0 -162 79l-85 108q-52 67 -28.5 115z" />
<glyph unicode="a" horiz-adv-x="1353" d="M57 530.5q0 152.5 66 280t181.5 201t255.5 73.5q86 0 166 -30.5t137 -83.5q0 44 34.5 67t98.5 23h103q65 0 99 -34.5t34 -98.5v-795q0 -65 -34.5 -99t-98.5 -34h-103q-65 0 -99 23t-34 67q-57 -53 -137 -84t-166 -31q-140 0 -255.5 74t-181.5 201.5t-66 280zM429 530.5 q0 -97.5 64.5 -162t162.5 -64.5q70 0 125.5 35t81.5 92v199q-27 57 -82 92t-125 35q-98 0 -162.5 -64.5t-64.5 -162z" />
<glyph unicode="b" horiz-adv-x="1353" d="M122 133v1229q0 65 34 99t99 34h102q65 0 99 -34.5t34 -98.5v-391q57 53 137.5 83.5t166.5 30.5q140 0 255 -73.5t181 -201t66 -280t-66 -280t-181 -201.5t-255 -74q-86 0 -166.5 31t-137.5 84q0 -44 -34 -67t-99 -23h-102q-65 0 -99 34.5t-34 98.5zM490 431 q27 -57 82 -92t125 -35q98 0 163 64.5t65 162t-64.5 162t-163.5 64.5q-70 0 -125 -35t-82 -92v-199z" />
<glyph unicode="c" horiz-adv-x="1153" d="M57 530.5q0 153.5 78.5 281t216 200.5t304.5 73q174 0 317 -80q53 -31 61 -81l2 -18q0 -42 -29 -85l-33 -50q-34 -51 -78 -60q-11 -2 -24 -2q-36 0 -79 20q-63 28 -130 28q-98 0 -163 -64.5t-65 -162t64.5 -162t163.5 -64.5q71 0 144 37q45 24 83 24q9 0 18 -1 q46 -7 83 -54l37 -47q40 -48 40 -96q0 -49 -47 -82q-155 -110 -365 -110q-167 0 -304.5 73.5t-216 201t-78.5 281z" />
<glyph unicode="d" horiz-adv-x="1353" d="M57 530.5q0 152.5 66 280t181.5 201t255.5 73.5q86 0 166 -30.5t137 -83.5v391q0 65 34.5 99t98.5 34h103q65 0 99 -34.5t34 -98.5v-1229q0 -65 -34.5 -99t-98.5 -34h-103q-65 0 -99 23t-34 67q-57 -53 -137 -84t-166 -31q-140 0 -255.5 74t-181.5 201.5t-66 280z M429 530.5q0 -97.5 64.5 -162t162.5 -64.5q70 0 125.5 35t81.5 92v199q-27 57 -82 92t-125 35q-98 0 -162.5 -64.5t-64.5 -162z" />
<glyph unicode="e" horiz-adv-x="1267" d="M57 530q0 154 77 281.5t212 200.5t298 73q160 0 290 -71.5t203 -195.5t73 -272q0 -44 -40.5 -79.5t-99.5 -35.5h-636q16 -89 77.5 -136.5t158.5 -47.5q89 0 172 46q48 29 91 29h8q46 -3 87 -47l8 -9q45 -46 45 -96q0 -53 -54 -90q-154 -104 -367 -105 q-262 0 -432.5 159.5t-170.5 395.5zM437 647h394q-31 167 -193 167q-79 0 -130.5 -43t-70.5 -124z" />
<glyph unicode="f" horiz-adv-x="812" d="M42 869v59q0 65 34.5 99t98.5 34h7v63q0 173 120.5 272t327.5 99h16q63 -2 93.5 -33.5t30.5 -105.5v-10q0 -74 -20 -101.5t-65 -27.5h-15q-53 0 -81.5 -26t-28.5 -73v-57h77q65 0 99 -34.5t34 -98.5v-59q0 -65 -34.5 -99t-98.5 -34h-77v-603q0 -65 -34 -99t-99 -34h-112 q-65 0 -99 34.5t-34 98.5v603h-7q-65 0 -99 34.5t-34 98.5z" />
<glyph unicode="g" horiz-adv-x="1353" d="M57 530q0 153 66 280.5t181.5 201t255.5 73.5q86 0 166 -30.5t137 -83.5q0 44 34.5 67t98.5 23h103q65 0 99 -34.5t34 -98.5v-855q0 -239 -160.5 -393.5t-414.5 -154.5q-239 0 -420 104q-55 32 -63 82q-1 8 -1 17q0 42 32 85l29 42q35 50 80 57q10 2 19 2q38 0 84 -24 q96 -45 207 -45q109 0 174 56t65 149v62q-57 -53 -137 -84t-166 -31q-214 0 -358.5 153t-144.5 380zM429 530.5q0 -97.5 64.5 -162t162.5 -64.5q70 0 125.5 35t81.5 92v199q-27 57 -82 92t-125 35q-98 0 -162.5 -64.5t-64.5 -162z" />
<glyph unicode="h" horiz-adv-x="1267" d="M122 133v1229q0 65 34 99t99 34h112q65 0 99 -34.5t34 -98.5v-405q42 59 111 93.5t148 34.5q176 0 291.5 -116t115.5 -294v-542q0 -65 -34 -99t-99 -34h-111q-65 0 -99.5 34.5t-34.5 98.5v481q0 59 -39 101t-105 42q-44 0 -84 -27.5t-60 -66.5v-530q0 -65 -34.5 -99 t-98.5 -34h-112q-65 0 -99 34.5t-34 98.5z" />
<glyph unicode="i" horiz-adv-x="614" d="M97 1332q0 84 60.5 140.5t149.5 56.5t149.5 -56.5t60.5 -140.5q0 -83 -60.5 -139t-149.5 -56t-149.5 56t-60.5 139zM118 133v795q0 65 34 99t99 34h113q65 0 99 -34.5t34 -98.5v-795q0 -65 -34.5 -99t-98.5 -34h-113q-65 0 -99 34.5t-34 98.5z" />
<glyph unicode="j" horiz-adv-x="614" d="M-35 -284q0 67 19 96.5t72 41.5q61 12 62 91v983q0 65 34 99t99 34h113q65 0 99 -34.5t34 -98.5v-1034q0 -169 -108 -269t-289 -100h-11q-60 1 -92 38.5t-32 100.5v52zM97 1332q0 84 60.5 140.5t149.5 56.5t149.5 -56.5t60.5 -140.5q0 -83 -60.5 -139t-149.5 -56 t-149.5 56t-60.5 139z" />
<glyph unicode="k" horiz-adv-x="1166" d="M122 133v1229q0 65 34 99t99 34h112q65 0 99 -34.5t34 -98.5v-626h68l108 227q46 98 157 98h114q78 0 105 -45q12 -19 12 -43q0 -32 -21 -71l-175 -331l207 -413q20 -40 20 -71q0 -24 -12 -43q-27 -44 -105 -44h-119q-110 0 -154 100l-143 313h-62v-280q0 -65 -34.5 -99 t-98.5 -34h-112q-65 0 -99 34.5t-34 98.5z" />
<glyph unicode="l" horiz-adv-x="614" d="M118 133v1229q0 65 34 99t99 34h113q65 0 99 -34.5t34 -98.5v-1229q0 -65 -34.5 -99t-98.5 -34h-113q-65 0 -99 34t-34 99z" />
<glyph unicode="m" horiz-adv-x="1917" d="M122 133v795q0 65 34 99t99 34h112q133 0 133 -104q42 59 109 92.5t147 33.5q101 0 189 -46t142 -124q51 76 138 124t187 48q175 0 290 -116t115 -293v-543q0 -65 -34.5 -99t-99.5 -34h-111q-65 0 -99 34.5t-34 98.5v481q0 60 -38 101.5t-101 41.5q-44 0 -82 -27t-61 -70 q1 -12 1 -37v-490q0 -65 -34 -99t-99 -34h-112q-65 0 -99 34.5t-34 98.5v481q0 61 -38.5 102t-99.5 41q-44 0 -82.5 -27t-59.5 -68v-529q0 -65 -34.5 -99t-98.5 -34h-112q-65 0 -99 34.5t-34 98.5z" />
<glyph unicode="n" horiz-adv-x="1267" d="M122 133v795q0 65 34 99t99 34h112q133 0 133 -104q42 59 111 93.5t148 34.5q176 0 291.5 -116t115.5 -294v-542q0 -65 -34 -99t-99 -34h-111q-65 0 -99.5 34.5t-34.5 98.5v481q0 59 -39 101t-105 42q-44 0 -84 -27.5t-60 -66.5v-530q0 -65 -34.5 -99t-98.5 -34h-112 q-65 0 -99 34.5t-34 98.5z" />
<glyph unicode="o" horiz-adv-x="1312" d="M57 530.5q0 153.5 78.5 281t216 200.5t304.5 73t305 -73t216 -200.5t78 -281t-78 -281t-216 -201t-305 -73.5t-304.5 73.5t-216 201t-78.5 281zM429 530q0 -97 64.5 -161.5t163 -64.5t163 64.5t64.5 161.5q0 96 -64.5 161.5t-163 65.5t-163 -65.5t-64.5 -161.5z" />
<glyph unicode="p" horiz-adv-x="1353" d="M122 -342v1270q0 65 34 99t99 34h102q65 0 99 -23t34 -67q57 53 137.5 83.5t166.5 30.5q140 0 255 -73.5t181 -201t66 -280t-66 -280t-181 -201.5t-255 -74q-86 0 -166.5 31t-137.5 84v-432q0 -65 -34 -99t-99 -34h-102q-65 0 -99 34t-34 99zM490 431q27 -57 82 -92 t125 -35q98 0 163 64.5t65 162t-64.5 162t-163.5 64.5q-70 0 -125 -35t-82 -92v-199z" />
<glyph unicode="q" horiz-adv-x="1353" d="M57 530.5q0 152.5 66 280t181.5 201t255.5 73.5q86 0 166 -30.5t137 -83.5q0 44 34.5 67t98.5 23h103q65 0 99 -34.5t34 -98.5v-1270q0 -65 -34.5 -99t-98.5 -34h-103q-65 0 -99 34t-34 99v432q-57 -53 -137 -84t-166 -31q-140 0 -255.5 74t-181.5 201.5t-66 280z M429 530.5q0 -97.5 64.5 -162t162.5 -64.5q70 0 125.5 35t81.5 92v199q-27 57 -82 92t-125 35q-98 0 -162.5 -64.5t-64.5 -162z" />
<glyph unicode="r" horiz-adv-x="875" d="M122 133v795q0 65 34 99t99 34h112q65 0 99 -31t34 -89q34 63 95 103.5t133 40.5q53 1 74 -31q16 -24 16 -79q0 -15 -1 -33l-5 -66q-6 -74 -34.5 -96.5t-94.5 -22.5q-57 0 -106 -33t-77 -89v-502q0 -65 -34.5 -99t-98.5 -34h-112q-65 0 -99 34.5t-34 98.5z" />
<glyph unicode="s" horiz-adv-x="980" d="M88 757q0 143 113.5 235.5t290.5 92.5q148 0 283 -71q57 -30 65 -81l2 -18q0 -42 -33 -86l-1 -2q-36 -49 -78 -57q-11 -2 -23 -2q-33 0 -69 18q-57 25 -110 25q-38 0 -59.5 -16t-21.5 -42q0 -63 128 -90q177 -37 267 -127t90 -224q0 -146 -121 -241.5t-309 -95.5 q-203 0 -354 96q-53 34 -58 85q-1 6 -1 11q0 45 37 88l5 6q39 47 83 52q6 1 12 1q39 0 86 -26q76 -38 158 -38q48 0 75 17t27 46q0 32 -32 53.5t-111 37.5q-162 36 -251.5 128t-89.5 225z" />
<glyph unicode="t" horiz-adv-x="836" d="M42 869v59q0 65 34.5 99t98.5 34h9v146q0 128 127 140l113 9q9 1 17 1q55 0 85 -29q36 -33 36 -99v-168h81q65 0 99 -34.5t34 -98.5v-59q0 -65 -34 -99t-99 -34h-81v-337q0 -99 110 -99q45 0 80.5 -34.5t35.5 -95.5v-46q0 -130 -106 -142q-51 -6 -109 -7 q-176 0 -282.5 102.5t-106.5 272.5v386h-9q-65 0 -99 34.5t-34 98.5z" />
<glyph unicode="u" horiz-adv-x="1267" d="M101 386v542q0 65 34.5 99t98.5 34h112q65 0 99 -34.5t34 -98.5v-482q0 -59 39.5 -100.5t105.5 -41.5q44 0 84 27t60 67v530q0 65 34.5 99t98.5 34h112q65 0 99 -34.5t34 -98.5v-795q0 -65 -34.5 -99t-98.5 -34h-112q-133 0 -133 103q-42 -59 -111 -93.5t-148 -34.5 q-176 0 -292 116.5t-116 294.5z" />
<glyph unicode="v" horiz-adv-x="1136" d="M66 909q-10 30 -10 55q0 32 17 56q30 41 103 41h118q119 0 146 -116l128 -534l128 534q28 116 147 116h118q73 0 103 -41q17 -23 17 -56q0 -25 -10 -55l-255 -799q-35 -110 -150 -110h-195q-116 0 -150 110z" />
<glyph unicode="w" horiz-adv-x="1669" d="M59 911q-7 26 -7 49q0 36 18 60q30 40 103 41h103q121 0 146 -118l103 -500l103 499q25 119 145 119h123q121 0 145 -119l103 -499l103 500q25 118 146 118h103q72 -1 102 -41q19 -25 19 -60q0 -22 -7 -49l-228 -798q-32 -113 -148 -113h-152q-120 0 -146 116l-101 431 l-102 -431q-27 -116 -146 -116h-152q-117 0 -148 113z" />
<glyph unicode="x" horiz-adv-x="1136" d="M94 45q-11 19 -11 42q0 32 22 72l213 382l-190 361q-21 40 -21 72q-1 23 11 42q26 45 105 45h110q111 0 153 -103l82 -190l82 190q43 102 154 103h109q79 0 105 -45q11 -19 11 -43q0 -31 -20 -71l-191 -361l213 -382q22 -41 22 -73q-1 -23 -11 -41q-26 -45 -105 -45h-109 q-108 0 -155 98l-105 214l-104 -214q-48 -98 -156 -98h-108q-80 0 -106 45z" />
<glyph unicode="y" horiz-adv-x="1136" d="M71 908q-11 32 -11 58q0 31 16 54q29 41 102 41h117q118 0 148 -114l124 -467l126 467q31 114 149 114h116q73 0 102 -41q17 -23 17 -55q0 -26 -11 -57l-442 -1276q-38 -107 -150 -107h-2h-116q-76 0 -104 43q-14 21 -14 48q0 28 15 63l133 321z" />
<glyph unicode="z" horiz-adv-x="1061" d="M75 133v47q0 94 63 165l359 394h-263q-65 0 -99 34.5t-34 98.5v56q0 65 34.5 99t98.5 34h594q65 0 99.5 -34.5t34.5 -98.5v-47q0 -94 -64 -165l-358 -394h309q65 0 99 -34.5t34 -99.5v-55q0 -65 -34.5 -99t-98.5 -34h-641q-65 0 -99 34.5t-34 98.5z" />
<glyph unicode="{" horiz-adv-x="906" d="M108 573v103q0 23 6 41.5t12 30t25.5 27t28 21.5t38.5 24q71 46 71 142v227q0 148 106 247.5t268 99.5h76q65 0 99 -34.5t34 -98.5v-69q0 -133 -78 -133q-51 0 -83.5 -30.5t-32.5 -77.5v-233q0 -90 -47 -151.5t-134 -83.5q87 -23 134 -84.5t47 -151.5v-232q0 -47 32 -78 t84 -31q79 0 78 -133v-69q0 -65 -34 -99t-99 -34h-76q-162 0 -268 99.5t-106 247.5v228q0 95 -71 141q-30 18 -38.5 24.5t-28 21.5t-25.5 26.5t-12 30.5t-6 41z" />
<glyph unicode="|" horiz-adv-x="684" d="M158 -154v1557q0 65 34 99t99 34h102q65 0 99 -34.5t34 -98.5v-1557q0 -65 -34 -99t-99 -34h-102q-65 0 -99 34.5t-34 98.5z" />
<glyph unicode="}" horiz-adv-x="906" d="M34 -85q0 133 79 133q51 0 83 31t32 78v232q0 90 47.5 151.5t134.5 84.5q-87 23 -134.5 84t-47.5 151v233q0 47 -32 77.5t-83 30.5q-79 0 -79 133v69q0 65 34 99t99 34h77q162 0 267.5 -99.5t105.5 -247.5v-227q0 -95 71 -142q30 -18 38.5 -24t28 -21.5t25.5 -27 t12.5 -30.5t6.5 -41v-103q0 -23 -6.5 -41.5t-12.5 -30t-25.5 -26.5t-28 -21.5t-38.5 -24.5q-71 -46 -71 -141v-228q0 -148 -105.5 -247.5t-267.5 -99.5h-77q-65 0 -99 34.5t-34 98.5v69z" />
<glyph unicode="~" horiz-adv-x="1206" d="M72 663q39 127 113.5 193.5t183.5 66.5q124 0 236 -87q88 -70 131 -70q17 0 30 8q17 11 31.5 27t21 26t20.5 20.5t30.5 11t51.5 -2.5l109 -18q66 -12 95 -54t10 -105q-39 -127 -114 -193.5t-183 -66.5q-124 0 -237 87q-88 70 -131 69q-17 0 -30 -8q-17 -11 -31.5 -27 t-20.5 -26t-20 -20.5t-30.5 -11.5t-51.5 3l-110 19q-66 12 -95 53.5t-9 105.5z" />
<glyph unicode="&#xa2;" horiz-adv-x="1153" d="M57 530q0 188 116.5 333.5t303.5 197.5v55q0 65 34.5 99t98.5 34h74q65 0 99 -34t34 -99v-50q79 -19 156 -61q54 -31 61.5 -81.5t-27.5 -102.5l-33 -50q-34 -51 -78.5 -60t-102.5 18q-63 28 -130 28q-98 0 -163 -65t-65 -162t64.5 -161.5t163.5 -64.5q71 0 144 37 q55 30 101 23t83 -54l37 -47q41 -49 37 -99.5t-55 -85.5q-89 -59 -193 -83v-50q0 -65 -34 -99t-99 -34h-74q-65 0 -99 34t-34 99v55q-187 51 -303.5 196t-116.5 334z" />
<glyph unicode="&#xa3;" horiz-adv-x="1205" d="M122 670q0 120 111 120q-65 143 -64 257q0 172 137.5 291.5t337.5 119.5q113 0 208.5 -40.5t160.5 -109.5q43 -50 28.5 -98.5t-74.5 -81.5l-98 -52q-54 -27 -84.5 -22t-64.5 39q-33 30 -76 29q-37 0 -61 -28t-24 -71q0 -31 12 -73.5t23 -71.5t36 -88h151q133 0 133 -120 q0 -126 -133 -126h-98q-13 -142 -119 -208h418q65 0 99 -34.5t34 -98.5v-70q0 -65 -34 -99t-99 -34h-721q-65 0 -99 34.5t-34 98.5v77q0 49 21 82.5t69 78.5q73 68 76 173h-86q-86 0 -86 126z" />
<glyph unicode="&#xa5;" horiz-adv-x="1359" d="M95.5 1389q27.5 45 105.5 45h133q111 0 154 -101l192 -426l191 426q44 100 155 101h133q79 0 105.5 -45.5t-10.5 -113.5l-278 -514h135q43 0 67.5 -22.5t24.5 -66.5q0 -86 -92 -86h-229l-8 -14v-57h237q43 0 67.5 -22.5t24.5 -66.5q0 -86 -92 -86h-237v-207 q0 -65 -34 -99t-99 -34h-123q-65 0 -99 34.5t-34 98.5v207h-235q-92 0 -92 86q0 44 24.5 66.5t67.5 22.5h235v57l-7 14h-228q-92 0 -92 86q0 44 24.5 66.5t67.5 22.5h133l-278 514q-37 69 -9.5 114z" />
<glyph unicode="&#xa8;" horiz-adv-x="890" d="M49 1323q0 76 52.5 127t129 51t129 -51t52.5 -127t-52.5 -127t-129 -51t-129 51t-52.5 127zM479 1323q0 76 52.5 127t129 51t129 -51t52.5 -127t-52.5 -127t-129 -51t-129 51t-52.5 127z" />
<glyph unicode="&#xa9;" horiz-adv-x="1646" d="M82 716.5q0 152.5 58 290t157 236.5t236.5 157t290 58t289.5 -58t236.5 -157t157.5 -236.5t58 -290t-58 -289.5t-157.5 -236.5t-236.5 -157.5t-289.5 -58t-290 58t-236.5 157.5t-157 236.5t-58 289.5zM217 717q0 -169 80.5 -310.5t219.5 -223t306 -81.5t306.5 81.5 t220 223t80.5 310.5t-80.5 310t-220 222.5t-306.5 81.5t-306 -81.5t-219.5 -222.5t-80.5 -310zM424 715q0 172 125.5 289.5t309.5 117.5q96 0 183 -38q58 -26 67.5 -77.5t-27.5 -104.5q-26 -39 -58 -44t-73 18q-47 23 -92 22q-73 0 -121.5 -52t-48.5 -131t48.5 -132 t121.5 -53q32 0 69 14q57 27 101 20.5t78 -55.5q31 -41 18 -87t-68 -72q-93 -43 -198 -43q-184 0 -309.5 118t-125.5 290z" />
<glyph unicode="&#xab;" horiz-adv-x="1334" d="M78 638q0 85 89 140l355 217q69 42 114.5 16t45.5 -106q0 -102 -92 -155l-195 -112l195 -112q92 -53 92 -158q0 -79 -45.5 -104t-114.5 17l-355 217q-89 55 -89 140zM634 638q0 85 89 140l355 217q69 42 114.5 16t45.5 -106q0 -102 -92 -155l-195 -112l195 -112 q92 -53 92 -158q0 -79 -45.5 -104t-114.5 17l-355 217q-89 55 -89 140z" />
<glyph unicode="&#xad;" horiz-adv-x="880" d="M117 643v73q0 65 34 99t99 34h381q65 0 99 -34.5t34 -98.5v-73q0 -65 -34.5 -99t-98.5 -34h-381q-65 0 -99 34.5t-34 98.5z" />
<glyph unicode="&#xae;" horiz-adv-x="1646" d="M82 716.5q0 152.5 58 290t157 236.5t236.5 157t290 58t289.5 -58t236.5 -157t157.5 -236.5t58 -290t-58 -289.5t-157.5 -236.5t-236.5 -157.5t-289.5 -58t-290 58t-236.5 157.5t-157 236.5t-58 289.5zM217 717q0 -169 80.5 -310.5t219.5 -223t306 -81.5t306.5 81.5 t220 223t80.5 310.5t-80.5 310t-220 222.5t-306.5 81.5t-306 -81.5t-219.5 -222.5t-80.5 -310zM552 434v543q0 65 34.5 99t98.5 34h183q123 0 205 -74.5t82 -189.5q0 -70 -32.5 -126t-89.5 -90l86 -179q28 -57 -0.5 -93t-110.5 -36q-81 0 -126 100l-72 162h-25v-150 q0 -61 -24.5 -86.5t-87.5 -25.5q-70 0 -95.5 25t-25.5 87zM785 754h56q36 0 59 24t23 61t-23 61t-59 24h-56v-170z" />
<glyph unicode="&#xb4;" horiz-adv-x="890" d="M264.5 1192q-24.5 47 22.5 115l72 104q31 44 69 64t92 20h71q85 0 108.5 -48t-28.5 -115l-85 -108q-61 -79 -162 -79h-53q-82 0 -106.5 47z" />
<glyph unicode="&#xb8;" horiz-adv-x="890" d="M184 -466q-8 21 11 53l27 43q27 41 73 25q50 -17 89 -17t63 14.5t24 40t-24 40.5t-63 15q-71 0 -98 30q-31 35 -5 83l50 94q13 25 32 35t56 10h131q22 0 29.5 -14.5t-6.5 -33.5l-45 -67q86 -23 138 -75.5t52 -120.5q0 -94 -92 -157.5t-230 -63.5q-101 0 -179 34 q-25 11 -33 32z" />
<glyph unicode="&#xbb;" horiz-adv-x="1334" d="M98 371q0 102 92 155l195 112l-195 112q-92 53 -92 158q0 79 45.5 104t114.5 -17l355 -217q89 -55 89 -140t-89 -140l-355 -217q-69 -42 -114.5 -16t-45.5 106zM654 371q0 102 92 155l195 112l-195 112q-92 53 -92 158q0 79 45.5 104t114.5 -17l355 -217q89 -55 89 -140 t-89 -140l-355 -217q-69 -42 -114.5 -16t-45.5 106z" />
<glyph unicode="&#x2c6;" horiz-adv-x="890" d="M91.5 1186q-15.5 41 32.5 98l116 136q63 75 163 75h84q99 0 164 -76l116 -135q48 -56 31.5 -97.5t-86.5 -41.5h-68q-101 0 -163 80l-36 48l-35 -48q-61 -80 -163 -80h-69q-71 0 -86.5 41z" />
<glyph unicode="&#x2da;" horiz-adv-x="890" d="M194 1317q0 97 72.5 163t179 66t179 -66t72.5 -163t-72.5 -164t-179 -67t-179 67t-72.5 164zM385 1317q0 -26 17 -42.5t43.5 -16.5t43.5 16.5t17 42.5q0 25 -17 41t-43.5 16t-43.5 -16t-17 -41z" />
<glyph unicode="&#x2dc;" horiz-adv-x="890" d="M78 1247.5q-28 43.5 3 106.5q66 115 194 114q82 0 160 -42q62 -35 87 -34q18 0 46 31q14 16 40 22t46 2l62 -11q69 -13 97 -57t-3 -106q-66 -115 -195 -115q-82 0 -159 42q-62 35 -87 35q-18 0 -46 -32q-14 -16 -40 -21.5t-46 -1.5l-62 11q-69 13 -97 56.5z" />
<glyph unicode="&#x400;" horiz-adv-x="1185" d="M143 133v1167q0 65 34.5 99.5t98.5 34.5h668q65 0 99 -34.5t34 -99.5v-59q0 -65 -34 -99t-99 -34h-412v-227h363q65 0 99 -34.5t34 -98.5v-54q0 -65 -34.5 -99t-98.5 -34h-363v-235h431q65 0 99 -34.5t34 -98.5v-60q0 -65 -34.5 -99t-98.5 -34h-687q-65 0 -99 34.5 t-34 98.5zM294.5 1846q23.5 48 108.5 48h71q54 0 91.5 -20t68.5 -64l73 -104q47 -68 22.5 -115t-106.5 -47h-53q-100 0 -162 79l-85 108q-52 67 -28.5 115z" />
<glyph unicode="&#x401;" horiz-adv-x="1185" d="M143 133v1167q0 65 34.5 99.5t98.5 34.5h668q65 0 99 -34.5t34 -99.5v-59q0 -65 -34 -99t-99 -34h-412v-227h363q65 0 99 -34.5t34 -98.5v-54q0 -65 -34.5 -99t-98.5 -34h-363v-235h431q65 0 99 -34.5t34 -98.5v-60q0 -65 -34.5 -99t-98.5 -34h-687q-65 0 -99 34.5 t-34 98.5zM221 1704q0 76 52.5 127t129 51t129 -51t52.5 -127t-52.5 -127t-129 -51t-129 51t-52.5 127zM651 1704q0 76 52.5 127t129 51t129 -51t52.5 -127t-52.5 -127t-129 -51t-129 51t-52.5 127z" />
<glyph unicode="&#x402;" horiz-adv-x="1502" d="M46 1241v59q0 65 34.5 99.5t98.5 34.5h792q65 0 99 -34.5t34 -99.5v-59q0 -65 -34.5 -99t-98.5 -34h-202v-279q92 92 248 93q180 0 304 -117.5t124 -288.5v-118q0 -170 -123.5 -286t-303.5 -116q-56 0 -90.5 35.5t-34.5 99.5v56q0 63 18.5 94.5t61.5 44.5 q36 10 59.5 36.5t23.5 69.5v50q0 49 -35.5 81.5t-88.5 32.5t-96 -26t-67 -70v-367q0 -65 -34.5 -99t-98.5 -34h-123q-65 0 -99 34.5t-34 98.5v975h-201q-65 0 -99 34.5t-34 98.5z" />
<glyph unicode="&#x403;" horiz-adv-x="1081" d="M143 133v1167q0 65 34.5 99.5t98.5 34.5h647q65 0 99 -34.5t34 -99.5v-68q0 -65 -34.5 -99t-98.5 -34h-391v-966q0 -65 -34 -99t-99 -34h-123q-65 0 -99 34.5t-34 98.5zM461.5 1630q-24.5 47 22.5 115l73 104q31 44 69 64t92 20h70q85 0 109 -48t-29 -115l-85 -108 q-61 -79 -161 -79h-54q-82 0 -106.5 47z" />
<glyph unicode="&#x404;" horiz-adv-x="1436" d="M73 717q0 206 101.5 376t281 267.5t396.5 97.5q223 0 406 -104q55 -32 63 -82t-31 -103l-38 -52q-36 -50 -81.5 -57t-101.5 23q-103 54 -217 55q-131 0 -234 -76t-145 -198h457q65 0 99 -34t34 -99v-29q0 -65 -34.5 -99t-98.5 -34h-457q42 -123 145 -198t234 -75 q114 0 224 60q116 63 185 -30l39 -55q39 -52 34 -100.5t-56 -79.5q-190 -116 -426 -116q-217 0 -396.5 98t-281 268t-101.5 376z" />
<glyph unicode="&#x405;" horiz-adv-x="1234" d="M110 1013q0 191 140.5 318t356.5 127q209 0 387 -105q54 -33 62 -83t-30 -102l-35 -50q-70 -100 -185 -32q-96 57 -182 58q-53 0 -88.5 -29t-35.5 -71q0 -51 47.5 -88.5t170.5 -65.5q221 -50 339 -165t118 -288q0 -200 -150.5 -331t-396.5 -131q-262 0 -455 145 q-49 37 -52.5 86.5t35.5 98.5l39 51q73 96 186 21q126 -81 250 -81q66 0 109.5 33t43.5 84q0 56 -52.5 97.5t-192.5 72.5q-199 43 -314 154t-115 276z" />
<glyph unicode="&#x406;" horiz-adv-x="681" d="M146 133v1167q0 65 34.5 99.5t99.5 34.5h122q65 0 99.5 -34.5t34.5 -99.5v-1167q0 -65 -34.5 -99t-99.5 -34h-122q-65 0 -99.5 34.5t-34.5 98.5z" />
<glyph unicode="&#x407;" horiz-adv-x="681" d="M-55 1704q0 76 52.5 127t129 51t129 -51t52.5 -127t-52.5 -127t-129 -51t-129 51t-52.5 127zM146 133v1167q0 65 34.5 99.5t99.5 34.5h122q65 0 99.5 -34.5t34.5 -99.5v-1167q0 -65 -34.5 -99t-99.5 -34h-122q-65 0 -99.5 34.5t-34.5 98.5zM375 1704q0 76 52.5 127 t129 51t129 -51t52.5 -127t-52.5 -127t-129 -51t-129 51t-52.5 127z" />
<glyph unicode="&#x408;" horiz-adv-x="965" d="M57 173l20 64q37 118 122 90q49 -15 91 -16q72 0 114 46.5t42 129.5v813q0 65 34.5 99.5t99.5 34.5h122q65 0 99.5 -34.5t34.5 -99.5v-843q0 -225 -127.5 -353.5t-353.5 -128.5q-115 0 -218 30q-58 17 -78 62t-2 106z" />
<glyph unicode="&#x409;" horiz-adv-x="2106" d="M26 130v68q0 65 18 92t73 43q56 15 81.5 47t25.5 110v810q0 65 34.5 99.5t98.5 34.5h837q65 0 99 -34.5t34 -99.5v-371h211q224 0 371.5 -132.5t147.5 -332.5t-147.5 -332t-371.5 -132h-467q-65 0 -99 34.5t-34 98.5v966h-325v-704q0 -399 -483 -399q-46 0 -75 31.5 t-29 102.5zM1327 311h175q76 0 120.5 41t44.5 112t-44.5 111.5t-120.5 40.5h-175v-305z" />
<glyph unicode="&#x40a;" horiz-adv-x="2093" d="M143 133v1167q0 65 34.5 99.5t98.5 34.5h123q65 0 99 -34.5t34 -99.5v-412h393v412q0 65 34 99.5t99 34.5h123q65 0 99 -34.5t34 -99.5v-371h211q224 0 371.5 -132.5t147.5 -332.5t-147.5 -332t-371.5 -132h-467q-65 0 -99 34.5t-34 98.5v420h-393v-420q0 -65 -34 -99 t-99 -34h-123q-65 0 -99 34.5t-34 98.5zM1314 311h175q76 0 120.5 41t44.5 112t-44.5 111.5t-120.5 40.5h-175v-305z" />
<glyph unicode="&#x40b;" horiz-adv-x="1546" d="M46 1241v59q0 65 34.5 99.5t98.5 34.5h792q65 0 99 -34.5t34 -99.5v-59q0 -65 -34.5 -99t-98.5 -34h-202v-279q92 92 248 93q180 0 304 -117.5t124 -288.5v-383q0 -65 -34.5 -99t-98.5 -34h-123q-65 0 -99 34.5t-34 98.5v349q0 49 -35 81.5t-89 32.5q-53 0 -96 -26 t-67 -70v-367q0 -65 -34.5 -99t-98.5 -34h-123q-65 0 -99 34.5t-34 98.5v975h-201q-65 0 -99 34.5t-34 98.5z" />
<glyph unicode="&#x40c;" horiz-adv-x="1316" d="M143 133v1167q0 65 34.5 99.5t98.5 34.5h123q65 0 99 -34.5t34 -99.5v-404h71l220 440q48 97 157 98h126q78 0 105 -44t-9 -114l-280 -544l341 -572q41 -70 14.5 -115t-106.5 -45h-122q-104 0 -159 91l-275 470h-83v-428q0 -65 -34 -99t-99 -34h-123q-65 0 -99 34.5 t-34 98.5zM511.5 1591q-24.5 47 22.5 115l72 104q31 44 69 64t92 20h71q85 0 108.5 -48t-28.5 -115l-85 -108q-61 -79 -162 -79h-53q-82 0 -106.5 47z" />
<glyph unicode="&#x40d;" horiz-adv-x="1462" d="M143 133v1167q0 65 34.5 99.5t98.5 34.5h91q65 0 99 -34.5t34 -99.5v-739l355 773q46 99 156 100h175q65 0 99 -34.5t34 -99.5v-1167q0 -65 -34.5 -99t-98.5 -34h-90q-65 0 -99 34.5t-34 98.5v739l-356 -773q-46 -99 -155 -99h-176q-65 0 -99 34.5t-34 98.5z M448.5 1846.5q23.5 47.5 108.5 47.5h71q54 0 91.5 -20t68.5 -64l73 -104q47 -68 22.5 -115t-106.5 -47h-53q-100 0 -162 79l-85 109q-52 67 -28.5 114.5z" />
<glyph unicode="&#x40e;" horiz-adv-x="1358" d="M89 1390q28 44 104 44h137q113 0 153 -104l198 -490l196 489q42 104 152 105h137q76 0 104.5 -44t-3.5 -113l-473 -1030q-113 -247 -376 -247h-99q-65 0 -99 34.5t-34 98.5v69q0 65 34.5 99t98.5 34h3q80 0 113 69l32 66l-374 807q-32 69 -4 113zM323 1803q25 42 78 42 h80q33 0 58.5 -11t34.5 -19.5t37 -37.5q28 -28 70 -28t70 28q1 2 11.5 12.5l12 12t11 10.5t13 10.5t12 7t14 7t15.5 4.5t19.5 3.5t21.5 0.5h80q53 0 78 -42t-9 -103q-49 -82 -143.5 -129t-205.5 -47t-205.5 47t-143.5 129q-34 61 -9 103z" />
<glyph unicode="&#x40f;" horiz-adv-x="1409" d="M143 133v1167q0 65 34.5 99.5t98.5 34.5h123q65 0 99 -34.5t34 -99.5v-965h345v965q0 65 34 99.5t99 34.5h123q65 0 99 -34.5t34 -99.5v-1167q0 -65 -34.5 -99t-98.5 -34h-234v-154q0 -65 -34.5 -99t-98.5 -34h-123q-65 0 -99 34.5t-34 98.5v154h-234q-65 0 -99 34.5 t-34 98.5z" />
<glyph unicode="&#x410;" horiz-adv-x="1429" d="M72 152l394 1173q36 109 151 109h195q116 0 152 -109l394 -1173q24 -70 -6 -111t-103 -41h-124q-118 0 -149 112l-47 163h-428l-47 -163q-32 -112 -150 -112h-124q-73 0 -102.5 41t-5.5 111zM582 570h266l-133 461z" />
<glyph unicode="&#x411;" horiz-adv-x="1313" d="M143 133v1167q0 65 34.5 99.5t98.5 34.5h711q65 0 99 -34.5t34 -99.5v-46q0 -65 -34 -99t-99 -34h-455v-192h211q224 0 372 -132.5t148 -332.5t-147.5 -332t-372.5 -132h-467q-65 0 -99 34.5t-34 98.5zM532 311h176q76 0 120 41t44 112t-44.5 111.5t-119.5 40.5h-176 v-305z" />
<glyph unicode="&#x412;" horiz-adv-x="1294" d="M143 133v1167q0 65 34.5 99.5t98.5 34.5h438q201 0 322.5 -108t121.5 -282q0 -100 -50 -180t-133 -113q113 -31 181.5 -119.5t68.5 -212.5q0 -182 -127 -300.5t-324 -118.5h-498q-65 0 -99 34.5t-34 98.5zM517 304h194q58 0 95.5 38.5t37.5 100t-37.5 100.5t-95.5 39 h-194v-278zM517 874h162q54 0 88.5 34.5t34.5 92.5q0 59 -34.5 93.5t-88.5 34.5h-162v-255z" />
<glyph unicode="&#x413;" horiz-adv-x="1081" d="M143 133v1167q0 65 34.5 99.5t98.5 34.5h647q65 0 99 -34.5t34 -99.5v-68q0 -65 -34.5 -99t-98.5 -34h-391v-966q0 -65 -34 -99t-99 -34h-123q-65 0 -99 34.5t-34 98.5z" />
<glyph unicode="&#x414;" horiz-adv-x="1419" d="M46 -154v325q0 133 100 133q156 355 156 850v146q0 65 34.5 99.5t98.5 34.5h671q65 0 99 -34.5t34 -99.5v-996h1q65 0 99 -34t34 -99v-325q0 -65 -34 -99t-99 -34h-107q-65 0 -99.5 34.5t-34.5 98.5v154h-579v-154q0 -65 -34.5 -99t-98.5 -34h-108q-65 0 -99 34.5 t-34 98.5zM541 304h324v825h-193q0 -490 -131 -825z" />
<glyph unicode="&#x415;" horiz-adv-x="1185" d="M143 133v1167q0 65 34.5 99.5t98.5 34.5h668q65 0 99 -34.5t34 -99.5v-59q0 -65 -34 -99t-99 -34h-412v-227h363q65 0 99 -34.5t34 -98.5v-54q0 -65 -34.5 -99t-98.5 -34h-363v-235h431q65 0 99 -34.5t34 -98.5v-60q0 -65 -34.5 -99t-98.5 -34h-687q-65 0 -99 34.5 t-34 98.5z" />
<glyph unicode="&#x416;" horiz-adv-x="1921" d="M60 45.5q-26 45.5 13 114.5l326 572l-267 544q-34 70 -6 114t104 44h125q109 0 156 -100l205 -438h50v404q0 65 34.5 99.5t98.5 34.5h123q65 0 99 -34.5t34 -99.5v-404h50l205 438q47 99 156 100h125q77 0 104.5 -44t-6.5 -114l-267 -544l326 -572q39 -69 13 -114.5 t-105 -45.5h-121q-105 0 -157 93l-260 468h-63v-428q0 -65 -34.5 -99t-98.5 -34h-123q-65 0 -99 34.5t-34 98.5v428h-63l-260 -468q-52 -93 -157 -93h-121q-79 0 -105 45.5z" />
<glyph unicode="&#x417;" horiz-adv-x="1108" d="M81.5 192.5q2.5 48.5 49.5 95.5l29 28q29 29 58.5 36.5t57.5 -1t67 -33.5q65 -40 154 -39q74 0 120.5 47.5t46.5 119.5q0 80 -54 125.5t-146 45.5h-26q-65 0 -99 34.5t-34 99.5v43q0 65 34.5 99t98.5 34h33q68 0 109.5 31.5t41.5 84.5q0 49 -36.5 80.5t-93.5 31.5 q-37 0 -74 -14q-63 -27 -102 -27t-79 39l-27 26q-48 47 -50.5 95.5t47.5 89.5q129 94 313 94q195 0 326 -109.5t131 -270.5q0 -94 -55 -175t-150 -128q121 -45 200 -145t79 -221q0 -184 -155 -309t-384 -125t-385 127q-48 42 -45.5 90.5z" />
<glyph unicode="&#x418;" horiz-adv-x="1462" d="M143 133v1167q0 65 34.5 99.5t98.5 34.5h91q65 0 99 -34.5t34 -99.5v-739l355 773q46 99 156 100h175q65 0 99 -34.5t34 -99.5v-1167q0 -65 -34.5 -99t-98.5 -34h-90q-65 0 -99 34.5t-34 98.5v739l-356 -773q-46 -99 -155 -99h-176q-65 0 -99 34.5t-34 98.5z" />
<glyph unicode="&#x419;" horiz-adv-x="1462" d="M143 133v1167q0 65 34.5 99.5t98.5 34.5h91q65 0 99 -34.5t34 -99.5v-739l355 773q46 99 156 100h175q65 0 99 -34.5t34 -99.5v-1167q0 -65 -34.5 -99t-98.5 -34h-90q-65 0 -99 34.5t-34 98.5v739l-356 -773q-46 -99 -155 -99h-176q-65 0 -99 34.5t-34 98.5zM373 1803 q25 42 79 42h79q33 0 58.5 -11t34.5 -19.5t38 -37.5q28 -28 69.5 -28t69.5 28q1 2 11.5 12.5l12 12t11 10.5t13 10.5t12 7t14.5 7t15.5 4.5t19.5 3.5t21 0.5h80q53 0 78 -42t-9 -103q-49 -82 -143.5 -129t-205 -47t-205.5 47t-144 129q-34 61 -9 103z" />
<glyph unicode="&#x41a;" horiz-adv-x="1316" d="M143 133v1167q0 65 34.5 99.5t98.5 34.5h123q65 0 99 -34.5t34 -99.5v-404h71l220 440q48 97 157 98h126q78 0 105 -44t-9 -114l-280 -544l341 -572q41 -70 14.5 -115t-106.5 -45h-122q-104 0 -159 91l-275 470h-83v-428q0 -65 -34 -99t-99 -34h-123q-65 0 -99 34.5 t-34 98.5z" />
<glyph unicode="&#x41b;" horiz-adv-x="1503" d="M26 0v331h57q141 0 141 159v944h1136v-1434h-389v1099h-358v-704q0 -399 -483 -399q-68 0 -104 4z" />
<glyph unicode="&#x41c;" horiz-adv-x="1773" d="M143 133v1167q0 65 34.5 99.5t98.5 34.5h199q109 0 157 -98l255 -509l255 509q48 97 156 98h199q65 0 99 -34.5t34 -99.5v-1167q0 -65 -34 -99t-99 -34h-90q-65 0 -99 34.5t-34 98.5v773l-202 -402q-47 -96 -157 -96h-57q-110 0 -157 96l-201 402v-773q0 -65 -34.5 -99 t-98.5 -34h-91q-65 0 -99 34.5t-34 98.5z" />
<glyph unicode="&#x41d;" horiz-adv-x="1462" d="M143 133v1167q0 65 34.5 99.5t98.5 34.5h123q65 0 99 -34.5t34 -99.5v-412h398v412q0 65 34 99.5t99 34.5h123q65 0 99 -34.5t34 -99.5v-1167q0 -65 -34.5 -99t-98.5 -34h-123q-65 0 -99 34.5t-34 98.5v420h-398v-420q0 -65 -34 -99t-99 -34h-123q-65 0 -99 34.5 t-34 98.5z" />
<glyph unicode="&#x41e;" horiz-adv-x="1703" d="M73 717q0 206 101.5 376t281 267.5t396.5 97.5t396 -97.5t281 -267.5t102 -376t-102 -376t-281 -268t-396 -98t-396.5 98t-281 268t-101.5 376zM463 717q0 -173 111.5 -289.5t277.5 -116.5t277.5 116.5t111.5 289.5t-111.5 289t-277.5 116t-277.5 -116t-111.5 -289z" />
<glyph unicode="&#x41f;" horiz-adv-x="1409" d="M143 133v1167q0 65 34.5 99.5t98.5 34.5h857q65 0 99 -34.5t34 -99.5v-1167q0 -65 -34.5 -99t-98.5 -34h-123q-65 0 -99 34.5t-34 98.5v966h-345v-966q0 -65 -34 -99t-99 -34h-123q-65 0 -99 34.5t-34 98.5z" />
<glyph unicode="&#x420;" horiz-adv-x="1257" d="M143 133v1167q0 65 34.5 99.5t98.5 34.5h421q222 0 366.5 -138.5t144.5 -349.5q0 -212 -144 -349.5t-367 -137.5h-165v-326q0 -65 -34 -99t-99 -34h-123q-65 0 -99 34.5t-34 98.5zM532 760h115q82 0 131 51t49 135q0 83 -49 135t-131 52h-115v-373z" />
<glyph unicode="&#x421;" horiz-adv-x="1440" d="M73 717q0 206 101.5 376t281 267.5t396.5 97.5q220 0 402 -102q55 -32 63.5 -82t-29.5 -103l-46 -66q-36 -51 -81.5 -58.5t-101.5 24.5q-99 51 -207 51q-166 0 -277.5 -116t-111.5 -289t111.5 -289.5t277.5 -116.5q112 0 219 61q116 65 184 -30l50 -68q39 -52 34 -100 t-55 -80q-193 -119 -432 -119q-217 0 -396.5 98t-281 268t-101.5 376z" />
<glyph unicode="&#x422;" horiz-adv-x="1150" d="M46 1232v68q0 65 34.5 99.5t98.5 34.5h793q65 0 99 -34.5t34 -99.5v-68q0 -65 -34.5 -99t-98.5 -34h-202v-966q0 -65 -34.5 -99t-98.5 -34h-123q-65 0 -99 34.5t-34 98.5v966h-202q-65 0 -99 34t-34 99z" />
<glyph unicode="&#x423;" horiz-adv-x="1358" d="M89 1390q28 44 104 44h137q113 0 153 -104l198 -490l196 489q42 104 152 105h137q76 0 104.5 -44t-3.5 -113l-473 -1030q-113 -247 -376 -247h-99q-65 0 -99 34.5t-34 98.5v69q0 65 34.5 99t98.5 34h3q80 0 113 69l32 66l-374 807q-32 69 -4 113z" />
<glyph unicode="&#x424;" horiz-adv-x="1605" d="M49 715q0 219 166 368.5t409 149.5v67q0 65 34 99.5t99 34.5h92q65 0 99 -34.5t34 -99.5v-67q243 0 408.5 -149.5t165.5 -368.5t-165.5 -368.5t-408.5 -149.5v-64q0 -65 -34.5 -99t-98.5 -34h-92q-65 0 -99 34.5t-34 98.5v64q-243 0 -409 149.5t-166 368.5zM409 715 q0 -84 61 -141t154 -57v395q-92 0 -153.5 -56.5t-61.5 -140.5zM982 517q92 0 153.5 57t61.5 141t-61.5 140.5t-153.5 56.5v-395z" />
<glyph unicode="&#x425;" horiz-adv-x="1349" d="M92.5 45q-26.5 45 10.5 114l322 577l-297 539q-38 69 -11.5 114t105.5 45h134q108 0 156 -99l163 -337l163 337q48 98 155 99h134q79 0 106 -45.5t-11 -113.5l-297 -539l321 -577q38 -69 11.5 -114t-105.5 -45h-132q-109 0 -157 97l-188 378l-189 -378q-48 -97 -156 -97 h-132q-79 0 -105.5 45z" />
<glyph unicode="&#x426;" horiz-adv-x="1442" d="M143 133v1167q0 65 34.5 99.5t98.5 34.5h123q65 0 99 -34.5t34 -99.5v-965h345v965q0 65 34 99.5t99 34.5h123q65 0 99 -34.5t34 -99.5v-965q63 0 97 -34.5t34 -98.5v-356q0 -65 -34.5 -99t-98.5 -34h-83q-65 0 -99 34.5t-34 98.5v154h-772q-65 0 -99 34.5t-34 98.5z" />
<glyph unicode="&#x427;" horiz-adv-x="1349" d="M101 906v394q0 65 34.5 99.5t98.5 34.5h123q65 0 99 -34.5t34 -99.5v-359q0 -58 41 -96t104 -38q58 0 107 31.5t75 82.5v379q0 65 34.5 99.5t98.5 34.5h123q65 0 99 -34.5t34 -99.5v-1167q0 -65 -34 -99t-99 -34h-123q-65 0 -99 34.5t-34 98.5v446q-48 -44 -121 -71 t-147 -27q-189 0 -318.5 123t-129.5 302z" />
<glyph unicode="&#x428;" horiz-adv-x="2035" d="M143 133v1167q0 65 34.5 99.5t98.5 34.5h123q65 0 99 -34.5t34 -99.5v-965h291v965q0 65 34.5 99.5t98.5 34.5h123q65 0 99 -34.5t34 -99.5v-965h291v965q0 65 34.5 99.5t98.5 34.5h123q65 0 99 -34.5t34 -99.5v-1167q0 -65 -34 -99t-99 -34h-1483q-65 0 -99 34.5 t-34 98.5z" />
<glyph unicode="&#x429;" horiz-adv-x="2069" d="M143 133v1167q0 65 34.5 99.5t98.5 34.5h123q65 0 99 -34.5t34 -99.5v-965h291v965q0 65 34.5 99.5t98.5 34.5h123q65 0 99 -34.5t34 -99.5v-965h291v965q0 65 34.5 99.5t98.5 34.5h123q65 0 99 -34.5t34 -99.5v-965q63 0 97 -34.5t34 -98.5v-356q0 -65 -34 -99t-99 -34 h-83q-65 0 -99 34.5t-34 98.5v154h-1398q-65 0 -99 34.5t-34 98.5z" />
<glyph unicode="&#x42a;" horiz-adv-x="1520" d="M46 1254v46q0 65 34.5 99.5t98.5 34.5h430q65 0 99 -34.5t34 -99.5v-371h210q224 0 371.5 -132.5t147.5 -332.5t-147 -332t-372 -132h-466q-65 0 -99 34.5t-34 98.5v988h-174q-65 0 -99 34.5t-34 98.5zM742 311h174q76 0 120.5 41t44.5 112t-44.5 111.5t-120.5 40.5h-174 v-305z" />
<glyph unicode="&#x42b;" horiz-adv-x="1874" d="M143 133v1167q0 65 34.5 99.5t98.5 34.5h123q65 0 99 -34.5t34 -99.5v-371h211q224 0 372 -132.5t148 -332.5t-147.5 -332t-372.5 -132h-467q-65 0 -99 34.5t-34 98.5zM532 311h176q76 0 120 41t44 112t-44.5 111.5t-119.5 40.5h-176v-305zM1342 133v1167q0 65 34.5 99.5 t99.5 34.5h122q65 0 99.5 -34.5t34.5 -99.5v-1167q0 -65 -34.5 -99t-99.5 -34h-122q-65 0 -99.5 34.5t-34.5 98.5z" />
<glyph unicode="&#x42c;" horiz-adv-x="1311" d="M143 133v1167q0 65 34.5 99.5t98.5 34.5h123q65 0 99 -34.5t34 -99.5v-371h211q224 0 372 -132.5t148 -332.5t-147.5 -332t-372.5 -132h-467q-65 0 -99 34.5t-34 98.5zM532 311h176q76 0 120 41t44 112t-44.5 111.5t-119.5 40.5h-176v-305z" />
<glyph unicode="&#x42d;" horiz-adv-x="1436" d="M104 169q-7 50 32 102l40 55q69 94 184 30q110 -60 225 -60q131 0 234 75t145 198h-457q-65 0 -99 34.5t-34 98.5v29q0 65 34 99t99 34h457q-42 122 -145 198t-234 76q-114 0 -217 -55q-56 -31 -102 -23.5t-82 57.5l-38 52q-39 52 -31 102.5t63 82.5q183 104 407 104 q217 0 396 -97.5t281 -267.5t102 -376t-102 -376t-281 -268t-396 -98q-230 0 -419 111q-55 33 -62 83z" />
<glyph unicode="&#x42e;" horiz-adv-x="2255" d="M143 133v1167q0 65 34.5 99.5t98.5 34.5h123q65 0 99 -34.5t34 -99.5v-412h130q58 250 266 410t484 160q160 0 303 -58t245.5 -156.5t162.5 -236t60 -290.5q0 -205 -102 -375.5t-279 -268.5t-390 -98q-279 0 -487.5 162.5t-266.5 415.5h-126v-420q0 -65 -34 -99t-99 -34 h-123q-65 0 -99 34.5t-34 98.5zM1030 717q0 -173 110.5 -289.5t271.5 -116.5t271 116.5t110 289.5q0 172 -110 288.5t-271 116.5t-271.5 -116.5t-110.5 -288.5z" />
<glyph unicode="&#x42f;" horiz-adv-x="1294" d="M86 962q0 209 144 340.5t367 131.5h421q65 0 99 -34.5t34 -99.5v-1167q0 -65 -34.5 -99t-98.5 -34h-117q-65 0 -99 34.5t-34 98.5v356h-57l-199 -393q-49 -96 -157 -96h-132q-79 0 -105.5 45t11.5 114l212 390q-120 57 -187.5 164.5t-67.5 248.5zM467 950 q0 -80 48 -130.5t129 -50.5h124v364h-124q-80 0 -128.5 -50.5t-48.5 -132.5z" />
<glyph unicode="&#x430;" horiz-adv-x="1353" d="M57 530.5q0 152.5 66 280t181.5 201t255.5 73.5q86 0 166 -30.5t137 -83.5q0 44 34.5 67t98.5 23h103q65 0 99 -34.5t34 -98.5v-795q0 -65 -34.5 -99t-98.5 -34h-103q-65 0 -99 23t-34 67q-57 -53 -137 -84t-166 -31q-140 0 -255.5 74t-181.5 201.5t-66 280zM429 530.5 q0 -97.5 64.5 -162t162.5 -64.5q70 0 125.5 35t81.5 92v199q-27 57 -82 92t-125 35q-98 0 -162.5 -64.5t-64.5 -162z" />
<glyph unicode="&#x431;" horiz-adv-x="1275" d="M74 603q0 288 69.5 463.5t224.5 274t426 138.5q65 10 103.5 -19t49.5 -93l11 -68q11 -68 -42.5 -103.5t-186.5 -71.5q-111 -30 -162 -79t-67 -135q91 69 222 69q214 0 357 -143t143 -352q0 -215 -164 -362t-407 -147q-119 0 -222.5 40.5t-183.5 117.5t-125.5 198.5 t-45.5 271.5zM449 534q1 -115 56.5 -172.5t145.5 -57.5q88 0 143.5 48.5t55.5 124.5q0 75 -54 124t-134 49q-68 0 -122.5 -31t-90.5 -85z" />
<glyph unicode="&#x432;" horiz-adv-x="1081" d="M122 133v795q0 65 34 99t99 34h339q157 0 263.5 -85.5t106.5 -212.5q0 -66 -37.5 -119t-101.5 -79q83 -22 135.5 -91.5t52.5 -152.5q0 -136 -111.5 -228.5t-274.5 -92.5h-372q-65 0 -99 34.5t-34 98.5zM447 254h118q47 0 77 25t30 64q0 40 -30 65t-77 25h-118v-179z M447 656h105q40 0 65 21t25 54t-25 54t-65 21h-105v-150z" />
<glyph unicode="&#x433;" horiz-adv-x="884" d="M122 133v795q0 65 34 99t99 34h455q65 0 99 -34.5t34 -98.5v-63q0 -65 -34.5 -99t-98.5 -34h-210v-599q0 -65 -34.5 -99t-98.5 -34h-112q-65 0 -99 34.5t-34 98.5z" />
<glyph unicode="&#x434;" horiz-adv-x="1191" d="M42 -84v209q0 65 25 99t73 34q116 248 130 669q5 134 134 134h504q65 0 99 -34.5t34 -98.5v-670q53 0 81 -34.5t28 -98.5v-209q0 -65 -34.5 -99t-98.5 -34h-65q-65 0 -99 34.5t-34 98.5v84h-447v-84q0 -65 -34.5 -99t-98.5 -34h-64q-65 0 -99 34.5t-34 98.5zM493 258h220 v544h-119q0 -140 -26.5 -285t-74.5 -259z" />
<glyph unicode="&#x435;" horiz-adv-x="1267" d="M57 530q0 154 77 281.5t212 200.5t298 73q160 0 290 -71.5t203 -195.5t73 -272q0 -44 -40.5 -79.5t-99.5 -35.5h-636q16 -89 77.5 -136.5t158.5 -47.5q89 0 172 46q53 32 99 29t87 -47l8 -9q46 -47 45 -98.5t-54 -87.5q-154 -104 -367 -105q-262 0 -432.5 159.5 t-170.5 395.5zM437 647h394q-31 167 -193 167q-79 0 -130.5 -43t-70.5 -124z" />
<glyph unicode="&#x436;" horiz-adv-x="1711" d="M85 44q-27 44 9 114l206 400l-178 345q-36 70 -9 114t105 44h116q112 0 155 -99l109 -239h69v205q0 65 34 99t99 34h111q65 0 99 -34.5t34 -98.5v-205h69l109 239q44 99 155 99h116q78 0 105 -44t-9 -114l-178 -345l206 -400q36 -70 8.5 -114t-104.5 -44h-117 q-109 0 -156 99l-138 300h-66v-266q0 -65 -34 -99t-99 -34h-111q-65 0 -99 34.5t-34 98.5v266h-66l-138 -300q-47 -99 -156 -99h-117q-78 0 -105 44z" />
<glyph unicode="&#x437;" horiz-adv-x="1001" d="M100 154.5q8 52.5 69 91.5l38 24q32 20 61.5 23.5t53.5 -4t62 -27.5q53 -26 103 -25q42 0 72 25t30 64q0 42 -33 68.5t-84 26.5h-26q-65 0 -99 34t-34 99v3q0 65 34.5 99t98.5 34h32q36 0 59.5 20.5t23.5 50.5q0 29 -24 47t-59 18q-16 0 -35 -5q-16 -5 -45 -16.5t-43 -16 t-36.5 -3t-46.5 14.5l-49 25q-66 35 -78 86.5t44 94.5q121 80 297 79q182 0 302.5 -86t120.5 -213q0 -71 -45 -134.5t-119 -90.5q89 -29 148 -100.5t59 -159.5q0 -139 -134.5 -232.5t-337.5 -93.5q-201 0 -332 87q-56 40 -48 92.5z" />
<glyph unicode="&#x438;" horiz-adv-x="1288" d="M122 133v795q0 65 34 99t99 34h100q65 0 99 -34.5t34 -98.5v-387l296 435q57 85 161 85h88q65 0 99 -34.5t34 -98.5v-795q0 -65 -34 -99t-99 -34h-100q-65 0 -99 34.5t-34 98.5v387l-296 -435q-57 -85 -161 -85h-88q-65 0 -99 34.5t-34 98.5z" />
<glyph unicode="&#x439;" horiz-adv-x="1288" d="M122 133v795q0 65 34 99t99 34h100q65 0 99 -34.5t34 -98.5v-387l296 435q57 85 161 85h88q65 0 99 -34.5t34 -98.5v-795q0 -65 -34 -99t-99 -34h-100q-65 0 -99 34.5t-34 98.5v387l-296 -435q-57 -85 -161 -85h-88q-65 0 -99 34.5t-34 98.5zM286 1471q25 42 79 42h79 q33 0 58.5 -11t34.5 -19t37 -38q28 -28 70 -28t70 28q1 2 11.5 12.5l12 12t11 10.5t13 10.5t12 7t14.5 7t15.5 4.5t19.5 3.5t21 0.5h80q53 0 78 -41.5t-9 -103.5q-49 -82 -143.5 -129t-205 -47t-205.5 47t-144 129q-34 61 -9 103z" />
<glyph unicode="&#x43a;" horiz-adv-x="1166" d="M122 133v795q0 65 34 99t99 34h112q65 0 99 -34.5t34 -98.5v-192h68l108 227q46 98 157 98h114q78 0 105 -45t-9 -114l-175 -331l207 -413q35 -70 8 -114t-105 -44h-119q-110 0 -154 100l-143 313h-62v-280q0 -65 -34.5 -99t-98.5 -34h-112q-65 0 -99 34.5t-34 98.5z" />
<glyph unicode="&#x43b;" horiz-adv-x="1300" d="M42 128v60q0 65 19.5 96t66.5 41q40 8 66 35.5t26 78.5v489q0 65 34.5 99t98.5 34h693q65 0 99 -34.5t34 -98.5v-795q0 -65 -34.5 -99t-98.5 -34h-112q-65 0 -99 34.5t-34 98.5v606h-203v-397q0 -157 -121 -253.5t-306 -96.5h-1q-59 0 -93.5 37.5t-34.5 98.5z" />
<glyph unicode="&#x43c;" horiz-adv-x="1429" d="M122 133v795q0 65 34 99t99 34h140q111 0 156 -100l164 -369l164 369q45 100 155 100h141q65 0 99 -34.5t34 -98.5v-795q0 -65 -34.5 -99t-98.5 -34h-82q-65 0 -99.5 34.5t-34.5 98.5v453l-96 -210q-46 -99 -155 -100q-95 0 -142 100l-96 210v-453q0 -65 -34.5 -99 t-98.5 -34h-82q-65 0 -99 34.5t-34 98.5z" />
<glyph unicode="&#x43d;" horiz-adv-x="1288" d="M122 133v795q0 65 34 99t99 34h112q65 0 99 -34.5t34 -98.5v-219h288v219q0 65 34.5 99t99.5 34h111q65 0 99 -34.5t34 -98.5v-795q0 -65 -34 -99t-99 -34h-111q-65 0 -99.5 34.5t-34.5 98.5v255h-288v-255q0 -65 -34.5 -99t-98.5 -34h-112q-65 0 -99 34.5t-34 98.5z" />
<glyph unicode="&#x43e;" horiz-adv-x="1312" d="M57 530.5q0 153.5 78.5 281t216 200.5t304.5 73t305 -73t216 -200.5t78 -281t-78 -281t-216 -201t-305 -73.5t-304.5 73.5t-216 201t-78.5 281zM429 530q0 -97 64.5 -161.5t163 -64.5t163 64.5t64.5 161.5q0 96 -64.5 161.5t-163 65.5t-163 -65.5t-64.5 -161.5z" />
<glyph unicode="&#x43f;" horiz-adv-x="1288" d="M122 133v795q0 65 34 99t99 34h778q65 0 99 -34.5t34 -98.5v-795q0 -65 -34 -99t-99 -34h-111q-65 0 -99.5 34.5t-34.5 98.5v606h-288v-606q0 -65 -34.5 -99t-98.5 -34h-112q-65 0 -99 34.5t-34 98.5z" />
<glyph unicode="&#x440;" horiz-adv-x="1353" d="M122 -342v1270q0 65 34 99t99 34h102q65 0 99 -23t34 -67q57 53 137.5 83.5t166.5 30.5q140 0 255 -73.5t181 -201t66 -280t-66 -280t-181 -201.5t-255 -74q-86 0 -166.5 31t-137.5 84v-432q0 -65 -34 -99t-99 -34h-102q-65 0 -99 34t-34 99zM490 431q27 -57 82 -92 t125 -35q98 0 163 64.5t65 162t-64.5 162t-163.5 64.5q-70 0 -125 -35t-82 -92v-199z" />
<glyph unicode="&#x441;" horiz-adv-x="1153" d="M57 530.5q0 153.5 78.5 281t216 200.5t304.5 73q174 0 317 -80q54 -31 61.5 -81.5t-27.5 -102.5l-33 -50q-34 -51 -78.5 -60t-102.5 18q-63 28 -130 28q-98 0 -163 -64.5t-65 -162t64.5 -162t163.5 -64.5q71 0 144 37q55 30 101 23t83 -54l37 -47q40 -49 39.5 -97 t-46.5 -81q-155 -110 -365 -110q-167 0 -304.5 73.5t-216 201t-78.5 281z" />
<glyph unicode="&#x442;" horiz-adv-x="1026" d="M42 865v63q0 65 34.5 99t98.5 34h676q65 0 99 -34.5t34 -98.5v-63q0 -65 -34.5 -99t-98.5 -34h-149v-599q0 -65 -34 -99t-99 -34h-111q-65 0 -99 34.5t-34 98.5v599h-150q-65 0 -99 34.5t-34 98.5z" />
<glyph unicode="&#x443;" horiz-adv-x="1136" d="M71 908q-24 70 5 111.5t102 41.5h117q118 0 148 -114l124 -467l126 467q31 114 149 114h116q73 0 102.5 -41.5t5.5 -111.5l-442 -1276q-38 -108 -152 -107h-116q-76 0 -104 43t1 111l133 321z" />
<glyph unicode="&#x444;" horiz-adv-x="2095" d="M57 530.5q0 152.5 66 280t181.5 201t255.5 73.5q86 0 166 -30.5t137 -83.5v391q0 65 34.5 99t98.5 34h103q65 0 99 -34.5t34 -98.5v-391q57 53 137 83.5t166 30.5q140 0 255.5 -73.5t181.5 -201t66 -280t-66 -280t-181.5 -201.5t-255.5 -74q-86 0 -166 31t-137 84v-432 q0 -65 -34.5 -99t-98.5 -34h-103q-65 0 -99 34t-34 99v432q-57 -53 -137 -84t-166 -31q-140 0 -255.5 74t-181.5 201.5t-66 280zM429 530.5q0 -97.5 64.5 -162t162.5 -64.5q70 0 125.5 35t81.5 92v199q-27 57 -82 92t-125 35q-98 0 -162.5 -64.5t-64.5 -162zM1232 431 q27 -57 82 -92t125 -35q98 0 162.5 64.5t64.5 162t-64.5 162t-162.5 64.5q-70 0 -125.5 -35t-81.5 -92v-199z" />
<glyph unicode="&#x445;" horiz-adv-x="1136" d="M94.5 45q-26.5 45 10.5 114l213 382l-190 361q-36 69 -9.5 114t104.5 45h110q111 0 153 -103l82 -190l82 190q43 102 154 103h109q78 0 104.5 -45t-8.5 -114l-191 -361l213 -382q38 -69 11.5 -114t-105.5 -45h-109q-108 0 -155 98l-105 214l-104 -214q-48 -98 -156 -98 h-108q-79 0 -105.5 45z" />
<glyph unicode="&#x446;" horiz-adv-x="1338" d="M122 133v795q0 65 34 99t99 34h112q65 0 99 -34.5t34 -98.5v-607h288v607q0 65 34.5 99t99.5 34h111q65 0 99 -34.5t34 -98.5v-607q63 0 96.5 -34.5t33.5 -99.5v-341q0 -65 -34 -99t-99 -34h-74q-65 0 -99.5 34.5t-34.5 98.5v154h-700q-65 0 -99 34.5t-34 98.5z" />
<glyph unicode="&#x447;" horiz-adv-x="1162" d="M62 673v255q0 65 34.5 99t99.5 34h111q65 0 99 -34.5t34 -98.5v-235q0 -39 28.5 -66t72.5 -27q45 0 76.5 25.5t45.5 67.5v235q0 65 34 99t99 34h111q65 0 99 -34.5t34 -98.5v-795q0 -65 -34 -99t-99 -34h-111q-65 0 -99 34.5t-34 98.5v216q-32 -34 -84 -51.5t-109 -17.5 q-173 0 -290.5 114t-117.5 279z" />
<glyph unicode="&#x448;" horiz-adv-x="1645" d="M122 133v795q0 65 34 99t99 34h91q65 0 99 -34.5t34 -98.5v-607h166v607q0 65 34.5 99t98.5 34h89q65 0 99 -34.5t34 -98.5v-607h166v607q0 65 34.5 99t98.5 34h92q65 0 99 -34.5t34 -98.5v-795q0 -65 -34.5 -99t-98.5 -34h-1136q-65 0 -99 34.5t-34 98.5z" />
<glyph unicode="&#x449;" horiz-adv-x="1695" d="M122 133v795q0 65 34 99t99 34h91q65 0 99 -34.5t34 -98.5v-607h166v607q0 65 34.5 99t98.5 34h89q65 0 99 -34.5t34 -98.5v-607h166v607q0 65 34.5 99t98.5 34h92q65 0 99 -34.5t34 -98.5v-607q63 0 96.5 -34.5t33.5 -99.5v-341q0 -65 -34.5 -99t-98.5 -34h-75 q-65 0 -99 34.5t-34 98.5v154h-1058q-65 0 -99 34.5t-34 98.5z" />
<glyph unicode="&#x44a;" horiz-adv-x="1276" d="M42 898v30q0 65 34.5 99t98.5 34h327q65 0 99 -34.5t34 -98.5v-184h174q174 0 293.5 -108t119.5 -264.5t-119.5 -264t-293.5 -107.5h-397q-65 0 -99 34.5t-34 98.5v632h-104q-65 0 -99 34.5t-34 98.5zM635 254h107q53 0 88 33.5t35 84.5t-34.5 84t-88.5 33h-107v-235z " />
<glyph unicode="&#x44b;" horiz-adv-x="1636" d="M122 133v795q0 65 34 99t99 34h90q65 0 99 -34.5t34 -98.5v-184h174q174 0 293.5 -108t119.5 -264.5t-119.5 -264t-293.5 -107.5h-397q-65 0 -99 34.5t-34 98.5zM478 254h108q53 0 88 33.5t35 84.5t-35 84t-88 33h-108v-235zM1137 133v795q0 65 34 99t99 34h111 q65 0 99 -34.5t34 -98.5v-795q0 -65 -34 -99t-99 -34h-111q-65 0 -99 34.5t-34 98.5z" />
<glyph unicode="&#x44c;" horiz-adv-x="1120" d="M122 133v795q0 65 34 99t99 34h90q65 0 99 -34.5t34 -98.5v-184h174q174 0 293.5 -108t119.5 -264.5t-119.5 -264t-293.5 -107.5h-397q-65 0 -99 34.5t-34 98.5zM478 254h108q53 0 88 33.5t35 84.5t-35 84t-88 33h-108v-235z" />
<glyph unicode="&#x44d;" horiz-adv-x="1153" d="M89.5 162.5q-3.5 51.5 39.5 99.5l21 24q40 47 85.5 51t99.5 -28q81 -44 155 -44q77 0 138.5 40.5t92.5 107.5h-246q-65 0 -99 34t-34 99q0 47 34.5 72t98.5 25h248q-30 69 -92.5 110.5t-140.5 41.5q-66 0 -140 -35q-56 -30 -101.5 -22.5t-80.5 58.5l-18 25 q-38 52 -31 103t62 82q142 80 316 79q167 0 304.5 -73t216 -200.5t78.5 -281t-78.5 -281t-216 -201t-304.5 -73.5q-198 0 -352 101q-52 35 -55.5 86.5z" />
<glyph unicode="&#x44e;" horiz-adv-x="1823" d="M122 133v795q0 65 34 99t99 34h103q65 0 99.5 -34.5t34.5 -98.5v-232h104q55 173 210.5 281t360.5 108q255 0 427 -160t172 -394.5t-172 -395t-427 -160.5q-207 0 -363 109t-209 284h-103v-235q0 -65 -34.5 -99t-99.5 -34h-103q-65 0 -99 34.5t-34 98.5zM940 530 q0 -97 64.5 -161.5t163 -64.5t163.5 64.5t65 161.5q0 96 -65 161.5t-163.5 65.5t-163 -65t-64.5 -162z" />
<glyph unicode="&#x44f;" horiz-adv-x="1162" d="M86 713q0 147 113 247.5t280 100.5h428q65 0 99 -34.5t34 -98.5v-795q0 -65 -34 -99t-99 -34h-74q-65 0 -99.5 34.5t-34.5 98.5v214h-33l-179 -262q-57 -85 -159 -85h-82q-84 0 -108 47.5t26 114.5l167 226q-111 38 -178 125.5t-67 199.5zM442 713q0 -41 30.5 -68 t76.5 -27h150v188h-150q-44 0 -75.5 -27t-31.5 -66z" />
<glyph unicode="&#x450;" horiz-adv-x="1267" d="M57 530q0 154 77 281.5t212 200.5t298 73q160 0 290 -71.5t203 -195.5t73 -272q0 -44 -40.5 -79.5t-99.5 -35.5h-636q16 -89 77.5 -136.5t158.5 -47.5q89 0 172 46q53 32 99 29t87 -47l8 -9q46 -47 45 -98.5t-54 -87.5q-154 -104 -367 -105q-262 0 -432.5 159.5 t-170.5 395.5zM330.5 1515q23.5 48 108.5 48h71q54 0 91.5 -20t68.5 -64l73 -104q47 -68 22.5 -115t-106.5 -47h-53q-100 0 -162 79l-85 108q-52 67 -28.5 115zM437 647h394q-31 167 -193 167q-79 0 -130.5 -43t-70.5 -124z" />
<glyph unicode="&#x451;" horiz-adv-x="1267" d="M57 530q0 154 77 281.5t212 200.5t298 73q160 0 290 -71.5t203 -195.5t73 -272q0 -44 -40.5 -79.5t-99.5 -35.5h-636q16 -89 77.5 -136.5t158.5 -47.5q89 0 172 46q53 32 99 29t87 -47l8 -9q46 -47 45 -98.5t-54 -87.5q-154 -104 -367 -105q-262 0 -432.5 159.5 t-170.5 395.5zM238 1372q0 76 52 127t129 51t129 -51t52 -127t-52 -127t-129 -51t-129 51t-52 127zM437 647h394q-31 167 -193 167q-79 0 -130.5 -43t-70.5 -124zM668 1372q0 76 52 127t129 51t129 -51t52 -127t-52 -127t-129 -51t-129 51t-52 127z" />
<glyph unicode="&#x452;" horiz-adv-x="1295" d="M18 1262q0 45 25.5 74t67.5 29h39q1 63 35 96.5t98 33.5h111q63 0 97.5 -33.5t35.5 -96.5h162q42 0 67 -29t25 -74q0 -46 -24.5 -73t-67.5 -27h-162v-205q42 59 111.5 93.5t147.5 34.5q176 0 292 -116t116 -294v-779q0 -173 -120.5 -272t-327.5 -99h-16q-60 1 -92 38.5 t-32 100.5v8q0 70 23 100.5t57 30.5h20q54 0 82 26t28 73v712q0 59 -39.5 101t-104.5 42q-44 0 -84 -27.5t-61 -66.5v-530q0 -65 -34 -99t-99 -34h-111q-65 0 -99 34.5t-34 98.5v1029h-39q-43 0 -68 27t-25 73z" />
<glyph unicode="&#x453;" horiz-adv-x="884" d="M122 133v795q0 65 34 99t99 34h455q65 0 99 -34.5t34 -98.5v-63q0 -65 -34.5 -99t-98.5 -34h-210v-599q0 -65 -34.5 -99t-98.5 -34h-112q-65 0 -99 34.5t-34 98.5zM286.5 1259q-24.5 47 22.5 115l73 105q31 44 68.5 64t92.5 20h70q85 0 108.5 -48.5t-28.5 -114.5 l-85 -109q-61 -79 -162 -79h-53q-82 0 -106.5 47z" />
<glyph unicode="&#x454;" horiz-adv-x="1153" d="M57 530.5q0 153.5 78.5 281t216 200.5t304.5 73q173 0 316 -79q55 -31 62 -82t-30 -103l-18 -25q-35 -50 -81 -58t-102 22q-75 35 -140 35q-78 0 -140.5 -41.5t-92.5 -110.5h248q65 0 99 -34.5t34 -98.5q0 -47 -34.5 -72t-98.5 -25h-246q31 -67 92.5 -107.5t138.5 -40.5 q75 0 155 44q54 32 100 27.5t86 -50.5l19 -24q42 -50 42.5 -96.5t-45.5 -81.5q-157 -109 -364 -109q-167 0 -304.5 73.5t-216 201t-78.5 281z" />
<glyph unicode="&#x455;" horiz-adv-x="980" d="M88 757q0 143 113.5 235.5t290.5 92.5q148 0 283 -71q57 -30 65.5 -81t-31.5 -104l-1 -2q-36 -48 -78 -56.5t-92 15.5q-57 25 -110 25q-38 0 -59.5 -16t-21.5 -42q0 -63 128 -90q177 -37 267 -127t90 -224q0 -146 -121 -241.5t-309 -95.5q-203 0 -354 96q-53 34 -58 85 t36 99l5 6q39 47 82.5 52t98.5 -25q76 -38 158 -38q48 0 75 17t27 46q0 32 -32 53.5t-111 37.5q-162 36 -251.5 128t-89.5 225z" />
<glyph unicode="&#x456;" horiz-adv-x="614" d="M97 1332q0 84 60.5 140.5t149.5 56.5t149.5 -56.5t60.5 -140.5q0 -83 -60.5 -139t-149.5 -56t-149.5 56t-60.5 139zM118 133v795q0 65 34 99t99 34h113q65 0 99 -34.5t34 -98.5v-795q0 -65 -34.5 -99t-98.5 -34h-113q-65 0 -99 34.5t-34 98.5z" />
<glyph unicode="&#x457;" horiz-adv-x="614" d="M-89 1372q0 76 52.5 127t129 51t129 -51t52.5 -127t-52.5 -127t-129 -51t-129 51t-52.5 127zM118 133v795q0 65 34 99t99 34h113q65 0 99 -34.5t34 -98.5v-795q0 -65 -34.5 -99t-98.5 -34h-113q-65 0 -99 34.5t-34 98.5zM341 1372q0 76 52.5 127t129 51t129 -51 t52.5 -127t-52.5 -127t-129 -51t-129 51t-52.5 127z" />
<glyph unicode="&#x458;" horiz-adv-x="614" d="M-35 -284q0 67 19 96.5t72 41.5q61 12 62 91v983q0 65 34 99t99 34h113q65 0 99 -34.5t34 -98.5v-1034q0 -169 -108 -269t-289 -100h-11q-60 1 -92 38.5t-32 100.5v52zM97 1332q0 84 60.5 140.5t149.5 56.5t149.5 -56.5t60.5 -140.5q0 -83 -60.5 -139t-149.5 -56 t-149.5 56t-60.5 139z" />
<glyph unicode="&#x459;" horiz-adv-x="1786" d="M42 128v60q0 116 82 136q96 24 96 115v489q0 65 34.5 99t98.5 34h659q65 0 99 -34.5t34 -98.5v-184h174q174 0 293.5 -108t119.5 -264.5t-119.5 -264t-293.5 -107.5h-397q-65 0 -99.5 34.5t-34.5 98.5v615h-190v-406q0 -157 -121 -253.5t-307 -96.5q-58 0 -93 34t-35 102 zM1145 254h107q53 0 88 33.5t35 84.5t-34.5 84t-88.5 33h-107v-235z" />
<glyph unicode="&#x45a;" horiz-adv-x="1774" d="M122 133v795q0 65 34 99t99 34h112q65 0 99 -34.5t34 -98.5v-219h276v219q0 65 34.5 99t98.5 34h90q65 0 99.5 -34.5t34.5 -98.5v-184h174q174 0 293 -108t119 -264.5t-119 -264t-293 -107.5h-398q-65 0 -99 34.5t-34 98.5v255h-276v-255q0 -65 -34.5 -99t-98.5 -34h-112 q-65 0 -99 34.5t-34 98.5zM1133 254h107q53 0 88 33.5t35 84.5t-35 84t-88 33h-107v-235z" />
<glyph unicode="&#x45b;" horiz-adv-x="1295" d="M18 1262q0 45 25.5 74t67.5 29h39q1 63 35 96.5t98 33.5h111q63 0 97.5 -33.5t35.5 -96.5h162q42 0 67 -29t25 -74q0 -46 -24.5 -73t-67.5 -27h-162v-205q42 59 111.5 93.5t147.5 34.5q176 0 292 -116t116 -294v-542q0 -65 -34.5 -99t-98.5 -34h-112q-65 0 -99 34.5 t-34 98.5v481q0 59 -39.5 101t-104.5 42q-44 0 -84 -27.5t-61 -66.5v-530q0 -65 -34 -99t-99 -34h-111q-65 0 -99 34.5t-34 98.5v1029h-39q-43 0 -68 27t-25 73z" />
<glyph unicode="&#x45c;" horiz-adv-x="1166" d="M122 133v795q0 65 34 99t99 34h112q65 0 99 -34.5t34 -98.5v-192h68l108 227q46 98 157 98h114q78 0 105 -45t-9 -114l-175 -331l207 -413q35 -70 8 -114t-105 -44h-119q-110 0 -154 100l-143 313h-62v-280q0 -65 -34.5 -99t-98.5 -34h-112q-65 0 -99 34.5t-34 98.5z M412.5 1259q-24.5 47 22.5 115l73 105q31 44 68.5 64t92.5 20h70q85 0 108.5 -48.5t-28.5 -114.5l-85 -109q-61 -79 -162 -79h-53q-82 0 -106.5 47z" />
<glyph unicode="&#x45d;" horiz-adv-x="1288" d="M122 133v795q0 65 34 99t99 34h100q65 0 99 -34.5t34 -98.5v-387l296 435q57 85 161 85h88q65 0 99 -34.5t34 -98.5v-795q0 -65 -34 -99t-99 -34h-100q-65 0 -99 34.5t-34 98.5v387l-296 -435q-57 -85 -161 -85h-88q-65 0 -99 34.5t-34 98.5zM347.5 1515 q23.5 48 108.5 48h70q54 0 92 -20t69 -64l73 -105q47 -68 22.5 -115t-106.5 -47h-53q-100 0 -162 79l-85 109q-52 67 -28.5 115z" />
<glyph unicode="&#x45e;" horiz-adv-x="1136" d="M71 908q-24 70 5 111.5t102 41.5h117q118 0 148 -114l124 -467l126 467q31 114 149 114h116q73 0 102.5 -41.5t5.5 -111.5l-442 -1276q-38 -108 -152 -107h-116q-76 0 -104 43t1 111l133 321zM209.5 1471.5q25.5 42.5 78.5 42.5h80q33 0 58.5 -11.5t34 -19.5t37.5 -38 q28 -28 69.5 -28t69.5 28q1 2 12 13l12.5 12.5t10.5 10t12.5 10t12.5 7t14.5 7t15 5t19.5 4t21 0.5h80q53 0 78 -42t-8 -104q-49 -82 -144 -129t-205.5 -47t-205.5 47t-144 129q-34 61 -8.5 103.5z" />
<glyph unicode="&#x45f;" horiz-adv-x="1288" d="M122 133v795q0 65 34 99t99 34h112q65 0 99 -34.5t34 -98.5v-607h288v607q0 65 34.5 99t99.5 34h111q65 0 99 -34.5t34 -98.5v-795q0 -65 -34 -99t-99 -34h-199v-154q0 -65 -34.5 -99t-99.5 -34h-111q-65 0 -99 34.5t-34 98.5v154h-201q-65 0 -99 34.5t-34 98.5z" />
<glyph unicode="&#x490;" horiz-adv-x="1086" d="M143 133v1167q0 65 34.5 99.5t98.5 34.5h436v153q0 65 34 99t99 34h83q65 0 99 -34t34 -99v-355q0 -65 -34.5 -99t-98.5 -34h-396v-966q0 -65 -34 -99t-99 -34h-123q-65 0 -99 34.5t-34 98.5z" />
<glyph unicode="&#x491;" horiz-adv-x="889" d="M122 133v795q0 65 34 99t99 34h252v153q0 65 34 99.5t99 34.5h75q65 0 99 -34.5t34 -99.5v-349q0 -65 -34.5 -99t-98.5 -34h-215v-599q0 -65 -34.5 -99t-98.5 -34h-112q-65 0 -99 34.5t-34 98.5z" />
<glyph unicode="&#x2000;" horiz-adv-x="966" />
<glyph unicode="&#x2001;" horiz-adv-x="1933" />
<glyph unicode="&#x2002;" horiz-adv-x="966" />
<glyph unicode="&#x2003;" horiz-adv-x="1933" />
<glyph unicode="&#x2004;" horiz-adv-x="644" />
<glyph unicode="&#x2005;" horiz-adv-x="483" />
<glyph unicode="&#x2006;" horiz-adv-x="322" />
<glyph unicode="&#x2007;" horiz-adv-x="322" />
<glyph unicode="&#x2008;" horiz-adv-x="241" />
<glyph unicode="&#x2009;" horiz-adv-x="386" />
<glyph unicode="&#x200a;" horiz-adv-x="107" />
<glyph unicode="&#x2010;" horiz-adv-x="880" d="M117 643v73q0 65 34 99t99 34h381q65 0 99 -34.5t34 -98.5v-73q0 -65 -34.5 -99t-98.5 -34h-381q-65 0 -99 34.5t-34 98.5z" />
<glyph unicode="&#x2011;" horiz-adv-x="880" d="M117 643v73q0 65 34 99t99 34h381q65 0 99 -34.5t34 -98.5v-73q0 -65 -34.5 -99t-98.5 -34h-381q-65 0 -99 34.5t-34 98.5z" />
<glyph unicode="&#x2012;" horiz-adv-x="880" d="M117 643v73q0 65 34 99t99 34h381q65 0 99 -34.5t34 -98.5v-73q0 -65 -34.5 -99t-98.5 -34h-381q-65 0 -99 34.5t-34 98.5z" />
<glyph unicode="&#x2013;" horiz-adv-x="1024" d="M0 644v72q0 65 34.5 99t98.5 34h758q65 0 99 -34.5t34 -98.5v-72q0 -65 -34.5 -99t-98.5 -34h-758q-65 0 -99 34.5t-34 98.5z" />
<glyph unicode="&#x2014;" horiz-adv-x="2048" d="M0 644v72q0 65 34.5 99t98.5 34h1782q65 0 99 -34.5t34 -98.5v-72q0 -65 -34.5 -99t-98.5 -34h-1782q-65 0 -99 34.5t-34 98.5z" />
<glyph unicode="&#x2018;" horiz-adv-x="623" d="M94 1157q0 49 23 97l114 243q45 98 156 98q58 0 75 -44t-15 -112l-43 -93q58 -24 91.5 -74t33.5 -115q0 -88 -61 -147.5t-155.5 -59.5t-156.5 59.5t-62 147.5z" />
<glyph unicode="&#x2019;" horiz-adv-x="623" d="M94 1389q0 88 61.5 147t156 59t156 -59t61.5 -147q0 -49 -22 -98l-115 -242q-45 -98 -155 -99q-58 0 -75.5 44t14.5 113l43 93q-58 24 -91.5 74t-33.5 115z" />
<glyph unicode="&#x201a;" horiz-adv-x="623" d="M94 182q0 88 61.5 147.5t156 59.5t156 -59.5t61.5 -147.5q0 -49 -22 -97l-115 -243q-45 -98 -155 -98q-58 0 -75.5 44t14.5 113l43 93q-58 24 -91.5 73.5t-33.5 114.5z" />
<glyph unicode="&#x201c;" horiz-adv-x="1096" d="M94 1157q0 49 23 97l114 243q45 98 156 98q58 0 75 -44t-15 -112l-43 -93q58 -24 91.5 -74t33.5 -115q0 -88 -61 -147.5t-155.5 -59.5t-156.5 59.5t-62 147.5zM567 1157q0 49 23 97l115 243q45 98 155 98q58 0 75 -44t-14 -112l-43 -93q58 -24 91 -74t33 -115 q0 -88 -61 -147.5t-155.5 -59.5t-156.5 59.5t-62 147.5z" />
<glyph unicode="&#x201d;" horiz-adv-x="1096" d="M94 1389q0 88 61.5 147t156 59t156 -59t61.5 -147q0 -49 -22 -98l-115 -242q-45 -98 -155 -99q-58 0 -75.5 44t14.5 113l43 93q-58 24 -91.5 74t-33.5 115zM567 1389q0 88 61.5 147t156 59t156 -59t61.5 -147q0 -49 -22 -98l-115 -242q-45 -98 -155 -99q-58 0 -75.5 44 t14.5 113l43 93q-58 24 -91.5 74t-33.5 115z" />
<glyph unicode="&#x201e;" horiz-adv-x="1096" d="M94 182q0 88 61.5 147.5t156 59.5t156 -59.5t61.5 -147.5q0 -49 -22 -97l-115 -243q-45 -98 -155 -98q-58 0 -75.5 44t14.5 113l43 93q-58 24 -91.5 73.5t-33.5 114.5zM567 182q0 88 61.5 147.5t156 59.5t156 -59.5t61.5 -147.5q0 -49 -22 -97l-115 -243 q-45 -98 -155 -98q-58 0 -75.5 44t14.5 113l43 93q-58 24 -91.5 73.5t-33.5 114.5z" />
<glyph unicode="&#x2026;" horiz-adv-x="1870" d="M94 182q0 88 61.5 147.5t156 59.5t156 -59.5t61.5 -147.5t-61.5 -147.5t-156 -59.5t-156 59.5t-61.5 147.5zM718 182q0 88 61.5 147.5t155.5 59.5t156 -59.5t62 -147.5t-62 -147.5t-156 -59.5t-155.5 59.5t-61.5 147.5zM1341 182q0 88 61.5 147.5t156 59.5t156.5 -59.5 t62 -147.5t-62 -147.5t-156.5 -59.5t-156 59.5t-61.5 147.5z" />
<glyph unicode="&#x202f;" horiz-adv-x="386" />
<glyph unicode="&#x2039;" horiz-adv-x="778" d="M78 638q0 85 89 140l355 217q69 42 114.5 16t45.5 -106q0 -102 -92 -155l-195 -112l195 -112q92 -53 92 -158q0 -79 -45.5 -104t-114.5 17l-355 217q-89 55 -89 140z" />
<glyph unicode="&#x203a;" horiz-adv-x="778" d="M96 371q0 102 92 155l195 112l-195 112q-92 53 -92 158q0 79 45.5 104t114.5 -17l355 -217q89 -55 89 -140t-89 -140l-355 -217q-69 -42 -114.5 -16t-45.5 106z" />
<glyph unicode="&#x205f;" horiz-adv-x="483" />
<glyph unicode="&#x20ac;" horiz-adv-x="1511" d="M20 579q0 44 25 67t68 23h31q-1 15 -1 48t1 49h-31q-93 0 -93 88q0 44 25 67t68 23h65q74 229 276.5 371.5t468.5 142.5q220 0 402 -102q55 -32 63.5 -82t-29.5 -103l-46 -66q-36 -51 -81.5 -58.5t-102.5 24.5q-99 51 -206 51q-102 0 -188 -47.5t-138 -130.5h352 q43 0 67.5 -23t24.5 -67q0 -88 -92 -88h-413q-2 -33 -2 -49q0 -33 2 -48h413q43 0 67.5 -23t24.5 -67q0 -88 -92 -89h-353q52 -84 137.5 -131.5t189.5 -47.5q112 0 219 61q116 65 184 -30l49 -68q39 -52 34.5 -100t-54.5 -80q-194 -119 -432 -119q-265 0 -468 142.5 t-277 372.5h-65q-92 0 -93 89z" />
<glyph unicode="&#x2122;" horiz-adv-x="1614" d="M43 1333q0 57 27.5 79t85.5 22h378q57 0 84.5 -21.5t27.5 -79.5q0 -65 -27.5 -87t-84.5 -22h-64l-1 -436q0 -53 -30.5 -82.5t-91.5 -29.5q-128 0 -128 112v436h-63q-57 0 -85 22.5t-28 86.5zM700 788v512q0 65 34.5 99.5t99.5 34.5q81 0 136 -89l136 -223l136 223 q55 89 159 89q53 0 81.5 -34.5t28.5 -99.5v-512q0 -113 -112 -112q-120 0 -120 112v272l-49 -85q-31 -54 -53 -73t-72 -19q-49 0 -70.5 19t-52.5 73l-49 85v-272q0 -113 -113 -112q-120 0 -120 112z" />
<glyph unicode="&#x25fc;" horiz-adv-x="1059" d="M0 0v1060h1060v-1060h-1060z" />
</font>
</defs>
</svg>
