<svg xmlns="http://www.w3.org/2000/svg" xmlns:xlink="http://www.w3.org/1999/xlink" width="49" height="49" viewBox="0 0 49 49"><defs><path id="a" d="M273.07 682.33c-.17.96-.43 1.9-.75 2.82l4.06 2.8-2.94 5.09-4.46-2.12a18.5 18.5 0 0 1-2.06 2.06l2.12 4.46-5.1 2.94-2.8-4.06c-.9.33-1.85.58-2.82.75l-.39 4.92h-5.88l-.4-4.92c-.97-.17-1.9-.42-2.82-.75l-2.8 4.06-5.09-2.94 2.12-4.46a18.54 18.54 0 0 1-2.06-2.06l-4.46 2.12-2.94-5.1 4.06-2.8c-.33-.9-.58-1.85-.76-2.81l-4.91-.4v-5.88l4.91-.4c.18-.96.43-1.9.76-2.82l-4.06-2.8 2.94-5.09 4.46 2.12c.63-.74 1.32-1.43 2.06-2.06l-2.12-4.46 5.1-2.94 2.8 4.06c.9-.32 1.84-.58 2.81-.75l.4-4.92h5.88l.4 4.92c.96.17 1.9.43 2.81.75l2.8-4.06 5.1 2.94-2.12 4.46c.74.63 1.43 1.32 2.06 2.06l4.46-2.12 2.94 5.1-4.06 2.8c.32.9.58 1.85.75 2.81l4.92.4v5.88zm-6.58-3.34a11.5 11.5 0 1 0-23 0 11.5 11.5 0 0 0 23 0z"/></defs><use fill="#e8663c" xlink:href="#a" transform="translate(-230 -654)"/></svg>