<?xml version="1.0" standalone="no"?>
<!DOCTYPE svg PUBLIC "-//W3C//DTD SVG 1.1//EN" "http://www.w3.org/Graphics/SVG/1.1/DTD/svg11.dtd" >
<svg xmlns="http://www.w3.org/2000/svg" xmlns:xlink="http://www.w3.org/1999/xlink" version="1.1">
<metadata></metadata>
<defs>
<font id="coresanscr-35lighuploadedfile" horiz-adv-x="1204" >
<font-face units-per-em="2048" ascent="1554" descent="-494" />
<missing-glyph horiz-adv-x="602" />
<glyph horiz-adv-x="0" />
<glyph horiz-adv-x="0" />
<glyph unicode="&#xd;" horiz-adv-x="681" />
<glyph unicode="&#x9;" horiz-adv-x="0" />
<glyph unicode=" "  horiz-adv-x="602" />
<glyph unicode="&#x09;" horiz-adv-x="602" />
<glyph unicode="&#xa0;" horiz-adv-x="602" />
<glyph unicode="!" horiz-adv-x="626" d="M211 78q0 44 29 73t73 29t73.5 -29t29.5 -73t-29.5 -73.5t-73.5 -29.5t-73 29.5t-29 73.5zM242 444v938q0 51 51 52h41q51 0 51 -52v-938q0 -51 -51 -51h-41q-51 0 -51 51z" />
<glyph unicode="&#x22;" horiz-adv-x="966" d="M248 905v477q0 51 51 52h37q51 0 51 -52v-477q0 -51 -51 -51h-37q-51 0 -51 51zM580 905v477q0 51 51 52h37q51 0 51 -52v-477q0 -51 -51 -51h-37q-51 0 -51 51z" />
<glyph unicode="#" horiz-adv-x="1384" d="M83 430v15q0 51 51 52h195l74 432h-193q-51 0 -51 51v15q0 51 51 52h214l58 341q7 46 56 46h34q27 0 39.5 -15t8.5 -41l-58 -331h375l58 341q7 46 56 46h34q27 0 39.5 -15t8.5 -41l-58 -331h175q51 0 52 -52v-15q0 -51 -52 -51h-195l-75 -432h195q51 0 51 -52v-15 q0 -51 -51 -51h-214l-57 -333q-7 -46 -55 -46h-35q-27 0 -39 15t-8 40l55 324h-375l-56 -333q-7 -46 -55 -46h-35q-27 0 -39 15t-8 40l55 324h-175q-51 0 -51 51zM467 497h375l74 432h-374z" />
<glyph unicode="$" horiz-adv-x="1191" d="M142 1080q0 160 116 265t302 112v134q0 51 51 51h11q51 0 51 -51v-139q178 -25 314 -142q37 -33 4 -72l-20 -26q-32 -40 -73 -5q-109 93 -225 116v-530q219 -53 322.5 -158.5t103.5 -261.5q0 -161 -116 -269.5t-310 -125.5v-136q0 -51 -51 -51h-11q-51 0 -51 51v135 q-121 9 -229.5 60t-185.5 131q-33 36 1 73l24 24q35 38 72 -1q143 -143 318 -160v581q-205 47 -311.5 148t-106.5 247zM288 1091q0 -187 272 -270v509q-123 -8 -197.5 -74.5t-74.5 -164.5zM673 108q126 17 203 88.5t77 174.5q0 203 -280 286v-549z" />
<glyph unicode="%" horiz-adv-x="1835" d="M100 1093.5q0 144.5 104 249.5t261 105t260.5 -105t103.5 -249.5t-103.5 -249.5t-260.5 -105t-261 105t-104 249.5zM237 1093.5q0 -93.5 64.5 -164.5t163.5 -71t163.5 71t64.5 164.5t-64.5 164.5t-163.5 71t-163.5 -71t-64.5 -164.5zM503.5 17.5q-10.5 17.5 3.5 42.5 l688 1337q19 37 60 37h36q30 0 40.5 -17.5t-3.5 -43.5l-687 -1336q-19 -37 -59 -37h-38q-30 0 -40.5 17.5zM1006 340q0 144 103.5 249t260.5 105t261 -105t104 -249t-104 -249t-261 -105t-260.5 105t-103.5 249zM1142 340q0 -93 64.5 -164.5t163.5 -71.5t163.5 71.5 t64.5 164.5t-64.5 164t-163.5 71t-163.5 -71t-64.5 -164z" />
<glyph unicode="&#x26;" horiz-adv-x="1484" d="M135 378q0 247 285 415q-96 95 -139 169.5t-43 160.5q0 141 109.5 238t263.5 97q125 0 219 -52.5t145 -147.5q25 -45 -27 -66l-29 -12q-42 -17 -68 26q-37 65 -99 100t-141 35q-99 0 -167.5 -64.5t-68.5 -152.5q0 -68 46.5 -132t162.5 -171l466 -425q70 125 95 286 q8 52 58 44l35 -5q52 -8 44 -57q-30 -203 -129 -363l261 -238q26 -24 18 -43.5t-42 -19.5h-64q-36 0 -63 25l-193 173q-91 -105 -210.5 -164t-255.5 -59q-200 0 -334.5 117t-134.5 286zM274 386q0 -119 95 -203.5t235 -84.5q102 0 197.5 49.5t171.5 140.5l-459 418 q-240 -136 -240 -320z" />
<glyph unicode="'" horiz-adv-x="634" d="M248 905v477q0 51 51 52h37q51 0 51 -52v-477q0 -51 -51 -51h-37q-51 0 -51 51z" />
<glyph unicode="(" horiz-adv-x="841" d="M256 625q0 260 92 501.5t255 415.5q33 36 72 5l18 -14q41 -33 6 -72q-143 -165 -221.5 -384t-78.5 -452.5t78.5 -452.5t221.5 -384q35 -39 -6 -72l-18 -14q-39 -31 -69 2q-164 174 -257 416.5t-93 504.5z" />
<glyph unicode=")" horiz-adv-x="841" d="M142 -212q143 165 221.5 384t78.5 452.5t-78 452.5t-222 384q-35 39 6 72l19 14q39 31 69 -2q164 -174 257 -416t93 -504q0 -260 -92.5 -502t-254.5 -416q-33 -36 -72 -5l-19 14q-41 33 -6 72z" />
<glyph unicode="*" horiz-adv-x="1124" d="M166 461q-25 44 19 69l264 150l-264 149q-45 26 -19 70l9 15q25 44 70 19l260 -153l-3 301q0 51 51 52h18q51 0 52 -52l-3 -301l260 154q45 26 69 -19l9 -16q25 -44 -19 -70l-263 -149l263 -150q45 -26 19 -69l-9 -17q-26 -45 -69 -18l-260 153l3 -300q0 -51 -52 -52h-18 q-51 0 -51 52l3 300l-260 -153q-44 -27 -70 18z" />
<glyph unicode="+" horiz-adv-x="1163" d="M121 671v18q0 51 51 51h340v354q0 51 51 51h37q51 0 51 -51v-354h340q51 0 51 -51v-18q0 -51 -51 -51h-340v-354q0 -51 -51 -51h-37q-51 0 -51 51v354h-340q-51 0 -51 51z" />
<glyph unicode="," horiz-adv-x="602" d="M195.5 -229.5q-7.5 16.5 4.5 43.5l72 166q-34 9 -54.5 36t-20.5 64q0 45 29.5 74.5t74.5 29.5t75 -29.5t30 -74.5q0 -23 -11 -46l-107 -241q-16 -39 -60 -39q-25 0 -32.5 16.5z" />
<glyph unicode="-" horiz-adv-x="815" d="M120 666v28q0 51 51 51h473q51 0 51 -51v-28q0 -51 -51 -52h-473q-51 0 -51 52z" />
<glyph unicode="." horiz-adv-x="602" d="M197 80q0 45 29.5 74.5t74.5 29.5t75 -29.5t30 -74.5t-30 -75t-75 -30t-74.5 30t-29.5 75z" />
<glyph unicode="/" horiz-adv-x="926" d="M61 -227l663 1723q14 40 58 40h42q29 0 40.5 -16.5t0.5 -42.5l-661 -1724q-14 -40 -59 -40h-43q-29 0 -40 16.5t-1 43.5z" />
<glyph unicode="0" d="M126 717q0 159 29.5 292.5t87.5 234.5t150 157.5t209 56.5t209 -56.5t149.5 -157.5t87.5 -234.5t30 -292.5t-30 -292.5t-87.5 -234.5t-149.5 -158t-209 -57t-209 57t-150 158t-87.5 234.5t-29.5 292.5zM267 717q0 -133 20 -243t60 -193.5t105 -130t150 -46.5t150 46.5 t105 130t60 193.5t20 243t-20 243t-60 193.5t-105 129.5t-150 46t-150 -46t-105 -129.5t-60 -193.5t-20 -243z" />
<glyph unicode="1" d="M274 1183q-25 44 21 69l298 165q32 16 63 17h46q51 0 52 -52v-1331q0 -51 -52 -51h-38q-51 0 -52 51v1240l-258 -145q-45 -26 -69 19z" />
<glyph unicode="2" d="M191 51v31q0 35 25 62l520 581q86 95 124 176.5t38 165.5q0 116 -83 192t-209 76q-101 0 -176.5 -50t-113.5 -141q-20 -49 -66 -30l-27 11q-46 20 -29 66q45 121 154.5 194t257.5 73q187 0 310 -109.5t123 -280.5q0 -109 -46 -207.5t-146 -211.5l-469 -526h596 q51 0 51 -51v-21q0 -51 -51 -51h-731q-51 0 -52 51z" />
<glyph unicode="3" d="M140 166q-31 38 8 72l20 16q38 34 72 -8q119 -147 298 -148q150 0 252 97.5t102 238.5t-102.5 238.5t-251.5 97.5q-28 0 -61 -5q-43 -8 -67 23l-2 3q-29 36 2 71l388 447h-557q-51 0 -52 51v22q0 51 52 52h677q51 0 51 -52v-37q0 -36 -24 -64l-370 -419q198 0 328 -126.5 t130 -312.5q0 -88 -35.5 -169t-99 -143t-156.5 -99t-200 -37q-253 0 -402 191z" />
<glyph unicode="4" d="M83 362v42q0 34 19 64l630 933q22 33 63 33h50q51 0 51 -52v-942h133q51 0 51 -51v-27q0 -51 -51 -51h-133v-260q0 -51 -51 -51h-39q-51 0 -51 51v260h-621q-51 0 -51 51zM242 439h513v762z" />
<glyph unicode="5" d="M166 161q-31 39 8 71l22 19q38 34 71 -8q120 -144 292 -145q148 0 248 97t100 241.5t-99.5 241t-248.5 96.5q-72 0 -133.5 -27.5t-103.5 -73.5q-28 -32 -66 -28l-7 1q-50 6 -45 56l76 683q4 48 53 49h611q51 0 51 -52v-22q0 -51 -51 -51h-533l-60 -504q90 90 240 90 q190 0 324 -127.5t134 -328.5q0 -203 -136 -333.5t-350 -130.5q-120 0 -223 49.5t-174 136.5z" />
<glyph unicode="6" d="M116 439q0 133 68 243l458 718q20 34 61 34h39q31 0 41 -17.5t-7 -44.5l-335 -521q74 50 175 50q126 0 233 -59t171 -166t64 -237t-66.5 -237.5t-177 -167t-238.5 -59.5q-130 0 -241.5 59.5t-178 167t-66.5 237.5zM257 439.5q0 -143.5 100 -242.5t243 -99t243 99 t100 242.5t-100 242t-243 98.5t-243 -98.5t-100 -242z" />
<glyph unicode="7" d="M175 1360v22q0 51 51 52h760q51 0 51 -52v-35q0 -32 -13 -63l-527 -1245q-15 -39 -60 -39h-52q-29 0 -39.5 16.5t0.5 42.5l532 1250h-652q-51 0 -51 51z" />
<glyph unicode="8" d="M123 409q0 132 79.5 235.5t215.5 142.5q-99 34 -160 119t-61 187q0 154 115.5 259.5t289.5 105.5t290 -106t116 -259q0 -101 -61 -186.5t-161 -119.5q136 -40 215.5 -143t79.5 -235q0 -182 -138.5 -308t-340.5 -126t-340.5 125.5t-138.5 308.5zM264 411q0 -129 98 -221 t240 -92t240 92t98 221t-98 220.5t-240 91.5t-240 -91.5t-98 -220.5zM334 1089.5q0 -102.5 77.5 -175t190.5 -72.5t190.5 72.5t77.5 175t-77 174t-191 71.5t-191 -71.5t-77 -174z" />
<glyph unicode="9" d="M120 994q0 130 66.5 237.5t177 167t238.5 59.5q130 0 241.5 -59.5t178.5 -167t67 -237.5q0 -133 -69 -242l-458 -718q-20 -34 -61 -34h-39q-31 0 -40.5 17.5t6.5 43.5l335 522q-74 -50 -175 -51q-126 0 -233 59t-171 166t-64 237zM261 994.5q0 -143.5 100 -242.5 t243.5 -99t243 99t99.5 242.5t-99.5 242t-243 98.5t-243.5 -98.5t-100 -242z" />
<glyph unicode=":" horiz-adv-x="602" d="M197 80q0 45 29.5 74.5t74.5 29.5t75 -29.5t30 -74.5t-30 -75t-75 -30t-74.5 30t-29.5 75zM197 981q0 45 29.5 74.5t74.5 29.5t75 -29.5t30 -74.5t-30 -74.5t-75 -29.5t-74.5 29.5t-29.5 74.5z" />
<glyph unicode=";" horiz-adv-x="602" d="M195.5 -229.5q-7.5 16.5 4.5 43.5l72 166q-34 9 -54.5 36t-20.5 64q0 45 29.5 74.5t74.5 29.5t75 -29.5t30 -74.5q0 -24 -11 -46l-107 -241q-16 -39 -60 -39q-25 0 -32.5 16.5zM197 981q0 45 29.5 74.5t74.5 29.5t75 -29.5t30 -74.5t-30 -74.5t-75 -29.5t-74.5 29.5 t-29.5 74.5z" />
<glyph unicode="&#x3c;" horiz-adv-x="1163" d="M138 671v18q0 41 35 62l773 445q27 15 44.5 5t17.5 -40v-47q0 -42 -36 -61l-658 -373l658 -374q36 -19 36 -61v-46q0 -30 -17.5 -40.5t-44.5 5.5l-773 445q-35 20 -35 62z" />
<glyph unicode="=" horiz-adv-x="1163" d="M121 434v19q0 51 51 51h819q51 0 51 -51v-19q0 -51 -51 -51h-819q-51 0 -51 51zM121 907v19q0 51 51 51h819q51 0 51 -51v-19q0 -51 -51 -51h-819q-51 0 -51 51z" />
<glyph unicode="&#x3e;" horiz-adv-x="1163" d="M156 199v46q0 42 35 61l658 374l-658 373q-36 19 -35 61v47q0 30 17 40t44 -5l773 -445q35 -20 35 -62v-18q0 -41 -35 -62l-773 -445q-27 -15 -44 -5t-17 40z" />
<glyph unicode="?" horiz-adv-x="1107" d="M118 1264q-31 41 9 71q165 123 373 123q207 0 342 -117t135 -282q0 -154 -118 -264.5t-308 -130.5v-209q0 -51 -51 -52h-41q-51 0 -51 52v254q0 47 51 52q173 11 272.5 93.5t99.5 205.5q0 116 -98 193.5t-248 77.5q-147 0 -280 -98q-43 -32 -72 9zM381 78q0 44 29 73 t73 29t73.5 -29t29.5 -73t-29.5 -73.5t-73.5 -29.5t-73 29.5t-29 73.5z" />
<glyph unicode="@" horiz-adv-x="1947" d="M77 563.5q0 187.5 70.5 353.5t190.5 284.5t285 187.5t349 69q188 0 355 -65t286.5 -176.5t188.5 -268.5t69 -336q0 -218 -110.5 -357.5t-279.5 -139.5q-78 0 -142 47.5t-90 120.5q-48 -76 -126.5 -122t-172.5 -46q-172 0 -288.5 127t-116.5 309t116.5 309t288.5 127 q179 0 290 -154v82q0 51 51 52h18q51 0 51 -52v-577q12 -52 49 -83.5t85 -31.5q108 0 182 108t74 281q0 204 -104.5 374t-283 267t-390.5 97q-159 0 -302.5 -61.5t-247 -166.5t-164 -251t-60.5 -308q0 -218 102.5 -397.5t285.5 -284t407 -104.5q254 0 463 130q47 30 70 -20 l4 -7q20 -45 -21 -69q-239 -142 -516 -143q-194 0 -364 69t-291 188t-191 285t-70 353.5zM667 551q0 -138 86.5 -233t213.5 -95q91 0 164.5 53t108.5 140v270q-35 87 -108.5 140t-164.5 53q-127 0 -213.5 -95t-86.5 -233z" />
<glyph unicode="A" horiz-adv-x="1380" d="M80 59l516 1335q14 40 58 40h72q44 0 58 -40l516 -1335q10 -27 -1 -43t-39 -16h-52q-43 0 -58 41l-132 353h-656l-132 -353q-15 -41 -58 -41h-51q-29 0 -40 16.5t-1 42.5zM407 519h567l-284 754z" />
<glyph unicode="B" horiz-adv-x="1253" d="M180 51v1331q0 51 51 52h433q186 0 294.5 -102.5t108.5 -269.5q0 -116 -61 -197t-158 -109q128 -23 214.5 -117.5t86.5 -238.5q0 -177 -120.5 -288.5t-316.5 -111.5h-481q-51 0 -51 51zM324 125h374q136 0 221 76.5t85 202.5q0 125 -84.5 202t-221.5 77h-374v-558z M324 804h329q120 0 194.5 68t74.5 183.5t-74.5 184.5t-194.5 69h-329v-505z" />
<glyph unicode="C" horiz-adv-x="1387" d="M85 716.5q0 154.5 58 292t156.5 236t236.5 156t292 57.5q236 0 424 -128q25 -17 25 -39q0 -15 -12 -33l-17 -23q-17 -25 -38 -25q-15 0 -32 12q-167 109 -347 109h-3q-165 0 -302.5 -82t-216.5 -222.5t-79 -309.5t79 -310t216.5 -223t302.5 -82q196 0 365 121 q18 13 34 13q21 0 38 -24l17 -25q12 -18 12 -33q0 -21 -22 -38q-196 -140 -444 -141q-155 0 -292.5 57.5t-236 156.5t-156.5 236t-58 291.5z" />
<glyph unicode="D" horiz-adv-x="1426" d="M180 51v1331q0 51 51 52h418q317 0 504.5 -196.5t187.5 -521t-187 -520.5t-505 -196h-418q-51 0 -51 51zM324 127h325q249 0 398 157t149 432.5t-149 433t-398 157.5h-325v-1180z" />
<glyph unicode="E" horiz-adv-x="1144" d="M180 51v1331q0 51 51 52h719q51 0 51 -52v-22q0 -51 -51 -51h-626v-526h572q51 0 51 -51v-22q0 -51 -51 -52h-572v-533h645q51 0 51 -51v-23q0 -51 -51 -51h-738q-51 0 -51 51z" />
<glyph unicode="F" horiz-adv-x="1067" d="M180 51v1331q0 51 51 52h699q51 0 51 -52v-22q0 -51 -51 -51h-606v-525h552q51 0 51 -51v-22q0 -51 -51 -52h-552v-608q0 -51 -52 -51h-41q-51 0 -51 51z" />
<glyph unicode="G" horiz-adv-x="1464" d="M85 716.5q0 154.5 58 292t156.5 236t236.5 156t292 57.5q236 0 424 -128q25 -17 25 -39q0 -15 -12 -33l-17 -23q-17 -26 -38 -26q-14 0 -29 11q-170 111 -353 111q-165 0 -302.5 -82t-216.5 -222.5t-79 -309.5t79 -310t217 -223t302 -82q96 0 188.5 32t164.5 87v390h-385 q-51 0 -52 52v22q0 51 52 51h477q51 0 51 -51v-488q0 -38 -29 -63q-202 -159 -467 -159q-155 0 -292.5 57.5t-236 156.5t-156.5 236t-58 291.5z" />
<glyph unicode="H" horiz-adv-x="1413" d="M180 51v1331q0 51 51 52h41q51 0 52 -52v-599h766v599q0 51 51 52h41q51 0 51 -52v-1331q0 -51 -51 -51h-41q-51 0 -51 51v607h-766v-607q0 -51 -52 -51h-41q-51 0 -51 51z" />
<glyph unicode="I" horiz-adv-x="577" d="M217 51v1331q0 51 51 52h41q51 0 51 -52v-1331q0 -51 -51 -51h-41q-51 0 -51 51z" />
<glyph unicode="J" horiz-adv-x="917" d="M75 91l10 27q12 32 39 32q13 0 29 -7q95 -41 183 -41q132 0 202.5 80.5t70.5 244.5v955q0 51 51 52h41q51 0 52 -52v-955q0 -227 -106 -339.5t-307 -112.5q-124 0 -239 49q-31 13 -31 42q0 11 5 25z" />
<glyph unicode="K" horiz-adv-x="1215" d="M180 51v1331q0 51 51 52h41q51 0 52 -52v-599h159l447 619q23 32 61 32h50q32 0 41.5 -18.5t-9.5 -44.5l-467 -648l543 -661q20 -26 11.5 -44t-41.5 -18h-51q-39 0 -62 30l-519 628h-163v-607q0 -51 -52 -51h-41q-51 0 -51 51z" />
<glyph unicode="L" horiz-adv-x="1054" d="M180 51v1331q0 51 51 52h41q51 0 52 -52v-1257h624q51 0 51 -51v-23q0 -51 -51 -51h-717q-51 0 -51 51z" />
<glyph unicode="M" horiz-adv-x="1724" d="M180 51v1331q0 51 51 52h43q41 0 63 -33l525 -771l526 771q22 33 62 33h43q51 0 51 -52v-1331q0 -51 -51 -51h-37q-51 0 -51 51v1142l-473 -691q-22 -33 -63 -33h-14q-41 0 -62 33l-474 691v-1142q0 -51 -51 -51h-37q-51 0 -51 51z" />
<glyph unicode="N" horiz-adv-x="1423" d="M180 51v1331q0 51 51 52h47q39 0 61 -33l765 -1151v1132q0 51 51 52h37q51 0 51 -52v-1331q0 -51 -51 -51h-46q-39 0 -62 33l-765 1151v-1133q0 -51 -51 -51h-37q-51 0 -51 51z" />
<glyph unicode="O" horiz-adv-x="1656" d="M85 716.5q0 154.5 58 292t156.5 236t236.5 156t292.5 57.5t292 -57.5t236.5 -156t157 -236t58 -292t-58 -291.5t-157 -236t-236.5 -156.5t-292 -57.5t-292.5 57.5t-236.5 156.5t-156.5 236t-58 291.5zM230 717q0 -169 79 -310t217 -223t302.5 -82t302.5 82t216.5 223 t78.5 310t-78.5 309.5t-216.5 222.5t-302.5 82t-302.5 -82t-217 -222.5t-79 -309.5z" />
<glyph unicode="P" horiz-adv-x="1181" d="M180 51v1331q0 51 51 52h382q223 0 356.5 -119t133.5 -317.5t-133 -317.5t-357 -119h-289v-510q0 -51 -52 -51h-41q-51 0 -51 51zM324 686h284q161 0 255 84.5t94 227t-94 227t-255 84.5h-284v-623z" />
<glyph unicode="Q" horiz-adv-x="1656" d="M85 716.5q0 154.5 58 292t156.5 236t236.5 156t292.5 57.5t292 -57.5t236.5 -156t157 -236t58 -291.5q0 -157 -58.5 -294.5t-163.5 -239.5l173 -185q17 -18 17 -36q0 -19 -20 -37l-18 -16q-18 -17 -36 -17t-36 20l-179 191q-189 -128 -423 -128q-155 0 -292.5 57.5 t-236 156.5t-156.5 236t-58 291.5zM230 717q0 -169 79 -310t217 -223t302 -82q179 0 330 102l-248 266q-17 18 -17 36q0 19 20 37l18 16q18 17 36 17q19 0 37 -20l250 -270q81 84 126.5 195t45.5 236q0 169 -78.5 309.5t-216.5 222.5t-302.5 82t-302.5 -82t-217 -222.5 t-79 -309.5z" />
<glyph unicode="R" horiz-adv-x="1215" d="M180 51v1331q0 51 51 52h382q223 0 356.5 -119t133.5 -318q0 -172 -102.5 -285.5t-278.5 -141.5l360 -508q18 -26 8.5 -44t-40.5 -18h-44q-40 0 -62 32l-377 529h-243v-510q0 -51 -52 -51h-41q-51 0 -51 51zM324 686h284q161 0 255 84.5t94 227t-94 227t-255 84.5h-284 v-623z" />
<glyph unicode="S" horiz-adv-x="1191" d="M142 1080q0 166 123.5 272t319.5 106q232 0 402 -148q20 -17 20 -37q0 -17 -16 -35l-20 -26q-17 -21 -37 -21q-17 0 -36 16q-146 124 -305 124q-135 0 -220 -68t-85 -172q0 -213 355 -291q234 -52 345 -158t111 -269q0 -174 -136 -286t-357 -112q-132 0 -253.5 52.5 t-207.5 141.5q-17 18 -17 35q0 18 18 37l24 24q18 19 36 19l36 -19q73 -74 166 -118.5t191 -44.5q156 0 255 75t99 194q0 232 -368 309q-216 45 -329.5 148t-113.5 252z" />
<glyph unicode="T" horiz-adv-x="1112" d="M66 1360v22q0 51 51 52h878q51 0 52 -52v-22q0 -51 -52 -51h-367v-1258q0 -51 -51 -51h-41q-51 0 -52 51v1258h-367q-51 0 -51 51z" />
<glyph unicode="U" horiz-adv-x="1349" d="M165 494v888q0 51 51 52h41q51 0 51 -52v-903q0 -166 103.5 -270.5t263.5 -104.5t263 104.5t103 270.5v903q0 51 52 52h41q51 0 51 -52v-888q0 -230 -144 -373.5t-366 -143.5t-366 143t-144 374z" />
<glyph unicode="V" horiz-adv-x="1376" d="M78 1374q-10 27 1 43.5t40 16.5h49q43 0 58 -41l462 -1212l462 1212q15 41 58 41h49q29 0 40.5 -16.5t0.5 -43.5l-516 -1334q-14 -40 -58 -40h-72q-44 0 -58 40z" />
<glyph unicode="W" horiz-adv-x="1953" d="M72 1376q-7 26 4.5 42t39.5 16h46q45 0 57 -43l330 -1182l342 1182q12 43 57 43h58q45 0 57 -43l342 -1182l330 1182q12 43 57 43h46q28 0 39.5 -16t4.5 -42l-387 -1333q-12 -43 -57 -43h-58q-45 0 -57 43l-346 1193l-346 -1193q-12 -43 -58 -43h-57q-45 0 -57 43z" />
<glyph unicode="X" horiz-adv-x="1277" d="M84 18.5q-9 18.5 8 43.5l461 667l-442 642q-17 26 -8 44.5t40 18.5h44q40 0 63 -33l389 -565l389 565q23 33 63 33h44q32 0 41 -18.5t-9 -44.5l-442 -642l461 -667q17 -26 8 -44t-41 -18h-44q-40 0 -62 33l-408 590l-408 -590q-23 -33 -62 -33h-44q-32 0 -41 18.5z" />
<glyph unicode="Y" horiz-adv-x="1310" d="M87.5 1416.5q9.5 17.5 40.5 17.5h45q41 0 61 -34l421 -671l421 671q20 34 62 34h45q31 0 40.5 -17.5t-6.5 -44.5l-490 -784v-537q0 -51 -51 -51h-41q-51 0 -51 51v537l-490 784q-16 27 -6.5 44.5z" />
<glyph unicode="Z" horiz-adv-x="1217" d="M125 51v39q0 34 19 64l767 1155h-704q-51 0 -51 51v22q0 51 51 52h823q51 0 51 -52v-39q0 -34 -19 -63l-767 -1155h756q51 0 51 -51v-23q0 -51 -51 -51h-875q-51 0 -51 51z" />
<glyph unicode="[" horiz-adv-x="841" d="M246 -236v1721q0 51 51 51h432q51 0 51 -51v-23q0 -51 -51 -51h-340v-1573h340q51 0 51 -51v-23q0 -51 -51 -51h-432q-51 0 -51 51z" />
<glyph unicode="\" horiz-adv-x="926" d="M61 1477q-10 27 1.5 43t39.5 16h41q44 0 59 -40l663 -1723q10 -27 -1 -43.5t-40 -16.5h-44q-44 0 -58 40z" />
<glyph unicode="]" horiz-adv-x="841" d="M61 -213q0 51 52 51h340v1573h-340q-51 0 -52 51v23q0 51 52 51h432q51 0 51 -51v-1721q0 -51 -51 -51h-432q-51 0 -52 51v23z" />
<glyph unicode="^" horiz-adv-x="1245" d="M154.5 815.5q-9.5 18.5 8.5 43.5l363 542q22 33 63 33h67q41 0 63 -33l363 -542q17 -26 8 -44t-40 -18h-45q-41 0 -63 32l-319 478l-320 -478q-22 -33 -62 -32h-45q-32 0 -41.5 18.5z" />
<glyph unicode="_" horiz-adv-x="1024" d="M0 -274q0 51 51 51h922q51 0 51 -51v-9q0 -51 -51 -51h-922q-51 0 -51 51v9z" />
<glyph unicode="`" horiz-adv-x="843" d="M186 1477q9 18 41 18h27q38 0 62 -30l207 -247q20 -26 11.5 -44.5t-40.5 -18.5h-23q-38 0 -62 29l-210 249q-22 26 -13 44z" />
<glyph unicode="a" horiz-adv-x="1312" d="M80 530.5q0 148.5 69 275.5t194.5 203t279.5 76q119 0 220.5 -48t174.5 -136v109q0 51 51 51h37q51 0 51 -51v-959q0 -51 -51 -51h-37q-51 0 -51 51v109q-73 -88 -175 -136.5t-220 -48.5q-154 0 -279.5 76.5t-194.5 203.5t-69 275.5zM221 530.5q0 -115.5 55 -214.5 t152.5 -157.5t214.5 -58.5q122 0 222 63t153 168v397q-53 105 -153 169t-222 64q-117 0 -214.5 -58.5t-152.5 -157.5t-55 -214.5z" />
<glyph unicode="b" horiz-adv-x="1312" d="M156 51v1393q0 51 51 51h37q51 0 51 -51v-543q73 88 174.5 136t220.5 48q154 0 279.5 -76t194.5 -203t69 -275.5t-69 -275.5t-194.5 -203.5t-279.5 -76.5q-119 0 -220.5 48.5t-174.5 136.5v-109q0 -51 -51 -51h-37q-51 0 -51 51zM295 331q53 -104 153 -167.5t222 -63.5 q117 0 214.5 58.5t152.5 157.5t55 214.5t-55 214.5t-153 157.5t-214 58.5q-122 0 -222 -63.5t-153 -169.5v-397z" />
<glyph unicode="c" horiz-adv-x="1118" d="M80 530.5q0 150.5 72 277.5t202 202t289 75q195 0 346 -113q22 -17 22 -39q0 -16 -12 -33l-16 -24q-17 -25 -37 -25q-16 0 -34 14q-122 95 -269 96q-117 0 -214.5 -58.5t-152.5 -157.5t-55 -214.5t55 -214.5t152.5 -157.5t214.5 -58.5q155 0 281 106q20 16 37 16 q19 0 35 -21l19 -23q16 -19 16 -36q0 -18 -18 -32q-156 -135 -370 -135q-159 0 -289 75.5t-202 202.5t-72 277.5z" />
<glyph unicode="d" horiz-adv-x="1312" d="M80 530.5q0 148.5 69 275.5t194.5 203t279.5 76q119 0 220.5 -48t174.5 -136v543q0 51 51 51h37q51 0 51 -51v-1393q0 -51 -51 -51h-37q-51 0 -51 51v109q-73 -88 -175 -136.5t-220 -48.5q-154 0 -279.5 76.5t-194.5 203.5t-69 275.5zM221 530.5q0 -115.5 55 -214.5 t152.5 -157.5t214.5 -58.5q122 0 222 63t153 168v397q-53 105 -153 169t-222 64q-117 0 -214.5 -58.5t-152.5 -157.5t-55 -214.5z" />
<glyph unicode="e" horiz-adv-x="1241" d="M80 530q0 113 42 215.5t114 177t175 118.5t220 44q152 0 274 -71t189 -192t67 -265q0 -13 -1 -20q-3 -47 -54 -48h-884q11 -166 129 -279.5t291 -113.5q181 0 319 131q19 19 37 19q17 0 34 -17l22 -19q21 -19 21 -38q0 -18 -18 -35q-167 -162 -412 -162q-165 0 -295 75.5 t-200 201.5t-70 278zM227 606h789q-17 156 -124 257.5t-261 101.5q-153 0 -267 -103.5t-137 -255.5z" />
<glyph unicode="f" horiz-adv-x="757" d="M48 989v21q0 51 51 51h148v69q0 365 358 365q19 0 57 -2q48 -5 48 -54v-20q0 -48 -42 -48h-5q-15 1 -48 1q-120 0 -174.5 -61.5t-54.5 -182.5v-67h272q51 0 52 -51v-21q0 -51 -52 -51h-272v-887q0 -51 -51 -51h-37q-51 0 -51 51v887h-148q-51 0 -51 51z" />
<glyph unicode="g" horiz-adv-x="1312" d="M80 530.5q0 148.5 69 275.5t194.5 203t279.5 76q119 0 220.5 -48t174.5 -136v109q0 51 51 51h37q51 0 51 -51v-999q0 -220 -137 -353t-376 -133q-253 0 -433 173q-18 18 -18 36t19 37l19 19q17 17 35 17q19 0 38 -18q146 -143 339 -143q168 0 271.5 97t103.5 260v157 q-73 -88 -175 -136.5t-220 -48.5q-154 0 -279.5 76.5t-194.5 203.5t-69 275.5zM221 530.5q0 -115.5 55 -214.5t152.5 -157.5t214.5 -58.5q122 0 222 63t153 168v397q-53 105 -153 169t-222 64q-117 0 -214.5 -58.5t-152.5 -157.5t-55 -214.5z" />
<glyph unicode="h" horiz-adv-x="1223" d="M156 51v1393q0 51 51 51h37q51 0 51 -51v-585q65 97 158 161.5t214 64.5q183 0 301.5 -119.5t118.5 -303.5v-611q0 -51 -51 -51h-37q-51 0 -51 51v602q0 131 -86.5 219.5t-219.5 88.5q-110 0 -197.5 -73t-149.5 -185v-652q0 -51 -51 -51h-37q-51 0 -51 51z" />
<glyph unicode="i" horiz-adv-x="528" d="M165 1365q0 42 28.5 70.5t70.5 28.5t71 -28.5t29 -70.5t-29 -70.5t-71 -28.5t-70.5 28.5t-28.5 70.5zM195 51v959q0 51 51 51h37q51 0 51 -51v-959q0 -51 -51 -51h-37q-51 0 -51 51z" />
<glyph unicode="j" horiz-adv-x="528" d="M-27 -402q0 51 32 51q6 0 17 -0.5t15 -0.5q158 0 158 182v1180q0 51 51 51h37q51 0 51 -51v-1178q0 -307 -283 -307q-19 0 -28 1q-49 3 -50 52v20zM165 1365q0 42 28.5 70.5t70.5 28.5t71 -28.5t29 -70.5t-29 -70.5t-71 -28.5t-70.5 28.5t-28.5 70.5z" />
<glyph unicode="k" horiz-adv-x="1042" d="M156 51v1393q0 51 51 51h37q51 0 51 -51v-794h164l319 381q26 30 63 30h48q33 0 41.5 -18.5t-11.5 -44.5l-344 -408l403 -528q19 -26 10 -44t-41 -18h-46q-39 0 -62 31l-382 498h-162v-478q0 -51 -51 -51h-37q-51 0 -51 51z" />
<glyph unicode="l" horiz-adv-x="528" d="M195 51v1393q0 51 51 51h37q51 0 51 -51v-1393q0 -51 -51 -51h-37q-51 0 -51 51z" />
<glyph unicode="m" horiz-adv-x="1901" d="M156 51v959q0 51 51 51h37q51 0 51 -51v-143q57 93 143 155.5t199 62.5q127 0 221.5 -67t135.5 -178q63 112 160 178.5t218 66.5q174 0 283.5 -116.5t109.5 -294.5v-623q0 -51 -51 -51h-37q-51 0 -51 51v615q0 125 -75.5 210t-197.5 85q-100 0 -182 -71.5t-142 -182.5 q1 -11 1 -33v-623q0 -51 -51 -51h-37q-51 0 -51 51v615q0 125 -76 210t-198 85q-186 0 -322 -251v-659q0 -51 -51 -51h-37q-51 0 -51 51z" />
<glyph unicode="n" horiz-adv-x="1223" d="M156 51v959q0 51 51 51h37q51 0 51 -51v-151q65 97 158 161.5t214 64.5q183 0 301.5 -119.5t118.5 -303.5v-611q0 -51 -51 -51h-37q-51 0 -51 51v602q0 131 -86.5 219.5t-219.5 88.5q-110 0 -197.5 -73t-149.5 -185v-652q0 -51 -51 -51h-37q-51 0 -51 51z" />
<glyph unicode="o" horiz-adv-x="1286" d="M80 530.5q0 150.5 72 277.5t202 202t289 75t289 -75t202 -202t72 -277.5t-72 -277.5t-202 -202.5t-289 -75.5t-289 75.5t-202 202.5t-72 277.5zM221 530.5q0 -115.5 55 -214.5t152.5 -157.5t214.5 -58.5t214.5 58.5t152.5 157.5t55 214.5t-55 214.5t-152.5 157.5 t-214.5 58.5t-214.5 -58.5t-152.5 -157.5t-55 -214.5z" />
<glyph unicode="p" horiz-adv-x="1312" d="M156 -424v1434q0 51 51 51h37q51 0 51 -51v-109q73 88 174.5 136t220.5 48q154 0 279.5 -76t194.5 -203t69 -275.5t-69 -275.5t-194.5 -203.5t-279.5 -76.5q-119 0 -220.5 48.5t-174.5 136.5v-584q0 -51 -51 -51h-37q-51 0 -51 51zM295 331q53 -104 153 -167.5t222 -63.5 q117 0 214.5 58.5t152.5 157.5t55 214.5t-55 214.5t-153 157.5t-214 58.5q-122 0 -222 -63.5t-153 -169.5v-397z" />
<glyph unicode="q" horiz-adv-x="1312" d="M80 530.5q0 148.5 69 275.5t194.5 203t279.5 76q119 0 220.5 -48t174.5 -136v109q0 51 51 51h37q51 0 51 -51v-1434q0 -51 -51 -51h-37q-51 0 -51 51v584q-73 -88 -175 -136.5t-220 -48.5q-154 0 -279.5 76.5t-194.5 203.5t-69 275.5zM221 530.5q0 -115.5 55 -214.5 t152.5 -157.5t214.5 -58.5q122 0 222 63t153 168v397q-53 105 -153 169t-222 64q-117 0 -214.5 -58.5t-152.5 -157.5t-55 -214.5z" />
<glyph unicode="r" horiz-adv-x="793" d="M156 51v959q0 51 51 51h37q51 0 51 -51v-162q69 102 157.5 169.5t190.5 67.5q31 0 58 -6q41 -9 41 -50q0 -5 -1 -10l-2 -24q-5 -41 -44 -41q-7 0 -16 1q-30 6 -53 6q-92 0 -180.5 -79t-150.5 -200v-631q0 -51 -51 -51h-37q-51 0 -51 51z" />
<glyph unicode="s" horiz-adv-x="945" d="M109 188l14 18q17 21 35 21t37 -19q115 -112 279 -112q115 0 183.5 51.5t68.5 135.5q0 159 -268 210q-171 33 -257.5 110.5t-86.5 194.5q0 123 99 205t258 82q172 0 308 -106q21 -17 21 -37q0 -16 -14 -35l-13 -16q-17 -22 -37 -22q-16 0 -35 15q-105 81 -221 81 q-97 0 -162 -49t-65 -120q0 -67 64 -117t186 -74q362 -71 362 -324q0 -134 -103 -220t-280 -86q-224 0 -370 142q-18 17 -18 36q0 17 15 35z" />
<glyph unicode="t" horiz-adv-x="773" d="M48 989v21q0 51 51 51h156v246q0 48 49 53l37 3q26 2 39.5 -10.5t13.5 -37.5v-254h260q51 0 52 -51v-21q0 -51 -52 -51h-260v-612q0 -115 54 -171.5t172 -56.5q30 0 45 1h6q47 0 47 -48v-19q0 -49 -48 -55q-39 -2 -61 -2q-180 0 -267 86.5t-87 263.5v613h-156 q-51 0 -51 51z" />
<glyph unicode="u" horiz-adv-x="1223" d="M136 399v611q0 51 51 51h37q51 0 51 -51v-602q0 -131 87 -219.5t220 -88.5q110 0 197 73t150 184v653q0 51 51 51h37q51 0 51 -51v-959q0 -51 -51 -51h-37q-51 0 -51 51v151q-65 -97 -158 -162t-214 -65q-183 0 -302 120t-119 304z" />
<glyph unicode="v" horiz-adv-x="1058" d="M58 1001q-11 27 0.5 43.5t39.5 16.5h41q43 0 59 -40l331 -837l332 837q15 40 59 40h41q29 0 40 -16.5t-1 -43.5l-383 -961q-17 -40 -59 -40h-57q-42 0 -60 40z" />
<glyph unicode="w" horiz-adv-x="1581" d="M54 1002q-8 27 3.5 43t38.5 16h42q44 0 58 -42l260 -824l250 823q12 43 58 43h53q46 0 59 -43l249 -823l260 824q13 42 58 42h42q28 0 39 -16t3 -43l-316 -960q-14 -42 -57 -42h-54q-46 0 -59 43l-250 826l-251 -826q-12 -43 -59 -43h-54q-43 0 -57 42z" />
<glyph unicode="x" horiz-adv-x="1058" d="M71.5 18.5q-9.5 18.5 10.5 43.5l359 482l-333 454q-19 26 -9.5 44.5t40.5 18.5h41q38 0 63 -32l286 -390l287 390q25 32 63 32h41q32 0 41.5 -18.5t-10.5 -44.5l-334 -454l360 -482q19 -26 10 -44t-41 -18h-41q-40 0 -62 31l-314 416l-313 -416q-23 -31 -62 -31h-41 q-32 0 -41.5 18.5z" />
<glyph unicode="y" horiz-adv-x="1069" d="M59 1001q-11 27 0.5 43.5t39.5 16.5h40q43 0 60 -40l338 -834l333 834q16 40 60 40h41q29 0 40 -16.5t0 -43.5l-578 -1436q-16 -40 -59 -40h-40q-29 0 -40 17t-1 42l172 425z" />
<glyph unicode="z" horiz-adv-x="1026" d="M103 51v36q0 36 22 64l604 787h-548q-51 0 -51 51v21q0 51 51 51h666q51 0 51 -51v-36q0 -36 -21 -64l-605 -787h595q51 0 52 -51v-21q0 -51 -52 -51h-712q-51 0 -52 51z" />
<glyph unicode="{" horiz-adv-x="841" d="M158 611v27q0 45 49 53q78 14 123 67.5t45 132.5v334q0 132 92.5 221.5t230.5 89.5h39q51 0 51 -51v-23q0 -51 -51 -51h-30q-81 0 -135 -56t-54 -138v-345q0 -96 -48.5 -159.5t-137.5 -87.5q89 -25 137.5 -88.5t48.5 -159.5v-344q0 -83 54 -139t135 -56h30q51 0 51 -51 v-23q0 -51 -51 -51h-39q-138 0 -230.5 89.5t-92.5 222.5v333q0 79 -45 132.5t-123 67.5q-49 8 -49 53z" />
<glyph unicode="|" horiz-adv-x="657" d="M262 -236v1721q0 51 51 51h31q51 0 51 -51v-1721q0 -51 -51 -51h-31q-51 0 -51 51z" />
<glyph unicode="}" horiz-adv-x="841" d="M53 -213q0 51 51 51h31q81 0 135 56t54 139v344q0 96 48.5 159.5t137.5 88.5q-89 25 -137.5 88t-48.5 159v345q0 83 -54 138.5t-135 55.5h-31q-51 0 -51 51v23q0 51 51 51h39q138 0 231 -89.5t93 -221.5v-334q0 -79 45 -132t123 -68q49 -8 49 -53v-27q0 -45 -49 -53 q-78 -14 -123 -67.5t-45 -132.5v-333q0 -132 -92.5 -222t-231.5 -90h-39q-51 0 -51 51v23z" />
<glyph unicode="~" horiz-adv-x="1163" d="M76 611q29 118 98 181.5t174 63.5q134 0 262 -126q29 -28 45.5 -42.5t44 -36t53 -31.5t51.5 -10q115 0 153 151q14 51 62 39l31 -7q50 -13 37 -63q-29 -118 -97.5 -181.5t-174.5 -63.5q-134 0 -262 126q-29 28 -45 43t-44 36.5t-53.5 31t-51.5 9.5q-115 0 -153 -150 q-14 -51 -62 -39l-30 7q-50 13 -38 62z" />
<glyph unicode="&#xa2;" horiz-adv-x="1118" d="M80 530.5q0 139.5 63 259.5t176.5 198t255.5 93v117q0 51 52 51h13q51 0 51 -51v-115q166 -13 297 -111q38 -29 11 -72l-16 -24q-29 -44 -71 -11q-102 78 -221 92v-855q127 14 233 104q42 34 72 -5l19 -23q33 -40 -5 -73q-135 -113 -319 -128v-114q0 -51 -51 -51h-13 q-51 0 -52 51v117q-142 15 -255.5 93t-176.5 198t-63 259.5zM221 530.5q0 -158.5 100.5 -279.5t253.5 -146v850q-154 -25 -254 -145.5t-100 -279z" />
<glyph unicode="&#xa3;" horiz-adv-x="1164" d="M146 643v15q0 51 52 52h93q-3 7 -10.5 23t-9.5 21q-78 163 -77 293q0 173 123 292t303 119q128 0 227 -61t150 -157q23 -43 -23 -68l-32 -16q-43 -24 -69 23q-39 72 -103.5 112t-149.5 40q-119 0 -200 -82.5t-81 -201.5q0 -90 72 -262q17 -39 29 -75h364q51 0 51 -52v-15 q0 -51 -51 -51h-337q19 -76 19 -119q0 -101 -44 -190t-118 -156h672q51 0 52 -51v-25q0 -51 -52 -51h-792q-51 0 -51 51v34q0 37 29 63q75 66 117 150t42 175q0 46 -20 119h-123q-51 0 -52 51z" />
<glyph unicode="&#xa5;" horiz-adv-x="1310" d="M87.5 1416.5q9.5 17.5 40.5 17.5h45q41 0 61 -34l421 -671l421 671q20 34 62 34h45q31 0 40.5 -17.5t-6.5 -44.5l-415 -663h273q51 0 51 -52q0 -47 -51 -47h-335l-13 -22v-107h348q51 0 51 -51q0 -47 -51 -47h-348v-332q0 -51 -51 -51h-41q-51 0 -51 51v332h-348 q-51 0 -52 51q0 47 52 47h348v107l-15 22h-333q-51 0 -52 52q0 47 52 47h272l-414 663q-16 27 -6.5 44.5z" />
<glyph unicode="&#xa8;" horiz-adv-x="843" d="M147 1323q0 41 28 68.5t69 27.5t68.5 -27.5t27.5 -68.5t-27.5 -68.5t-68.5 -27.5t-69 27.5t-28 68.5zM504 1323q0 41 27.5 68.5t68.5 27.5t68.5 -27.5t27.5 -68.5t-27.5 -68.5t-68.5 -27.5t-68.5 27.5t-27.5 68.5z" />
<glyph unicode="&#xa9;" horiz-adv-x="1634" d="M76 716.5q0 152.5 57.5 290t157 236.5t237 157t290 58t289.5 -58t236.5 -157t157.5 -236.5t58 -290t-58 -289.5t-157.5 -236.5t-236.5 -157.5t-289.5 -58t-290 58t-237 157.5t-157 236.5t-57.5 289.5zM166 717q0 -135 51 -257t138 -209.5t207.5 -139.5t254.5 -52t255 52 t207.5 139.5t137.5 209.5t51 257t-51 257t-137.5 209.5t-207.5 139t-255 51.5t-254.5 -51.5t-207.5 -139t-138 -209.5t-51 -257zM450 715q0 170 116.5 285.5t286.5 115.5q118 0 217 -62q41 -25 22 -62l-8 -14q-20 -42 -66 -14q-81 46 -165 46q-121 0 -204 -86t-83 -209 t83 -209t204 -86q89 0 172 51q46 30 66 -7l10 -21q18 -36 -20 -61q-102 -69 -228 -69q-170 0 -286.5 116t-116.5 286z" />
<glyph unicode="&#xab;" horiz-adv-x="1288" d="M109 639q0 38 33 58l456 291q27 16 44 6.5t17 -40.5v-17q0 -41 -33 -61l-375 -237l375 -237q34 -20 33 -61v-17q0 -31 -17 -41t-44 7l-456 291q-33 20 -33 58zM610 639q0 38 34 58l456 291q27 16 44 6.5t17 -40.5v-17q0 -41 -34 -61l-374 -237l374 -237q34 -20 34 -61 v-17q0 -31 -17.5 -41t-43.5 7l-456 291q-34 20 -34 58z" />
<glyph unicode="&#xad;" horiz-adv-x="815" d="M120 666v28q0 51 51 51h473q51 0 51 -51v-28q0 -51 -51 -52h-473q-51 0 -51 52z" />
<glyph unicode="&#xae;" horiz-adv-x="1634" d="M76 716.5q0 152.5 57.5 290t157 236.5t237 157t290 58t289.5 -58t236.5 -157t157.5 -236.5t58 -290t-58 -289.5t-157.5 -236.5t-236.5 -157.5t-289.5 -58t-290 58t-237 157.5t-157 236.5t-57.5 289.5zM166 717q0 -135 51 -257t138 -209.5t207.5 -139.5t254.5 -52t255 52 t207.5 139.5t137.5 209.5t51 257t-51 257t-137.5 209.5t-207.5 139t-255 51.5t-254.5 -51.5t-207.5 -139t-138 -209.5t-51 -257zM584 378v675q0 51 51 51h204q119 0 194.5 -67.5t75.5 -174.5q0 -87 -51.5 -149t-138.5 -82l165 -242q17 -27 8 -44.5t-40 -17.5h-9 q-41 0 -62 32l-177 261h-110v-242q0 -51 -51 -51h-8q-51 0 -51 51zM694 714h136q75 0 121.5 39.5t46.5 104.5q0 63 -46.5 103t-121.5 40h-136v-287z" />
<glyph unicode="&#xb4;" horiz-adv-x="843" d="M308.5 1173.5q-8.5 18.5 12.5 44.5l206 247q24 30 63 30h26q33 0 42 -18.5t-13 -43.5l-210 -249q-25 -29 -62 -29h-23q-33 0 -41.5 18.5z" />
<glyph unicode="&#xb8;" horiz-adv-x="843" d="M218 -475.5q-6 16.5 4 30.5l10 15q10 15 23 15.5t39 -11.5q35 -16 79 -16q61 0 101.5 33.5t40.5 82.5q0 50 -40.5 85t-101.5 35q-18 0 -28 -1q-30 -3 -42 10q-14 16 8 57l59 104q19 36 61 36q30 0 39.5 -17.5t-6.5 -43.5l-42 -68q92 -10 148.5 -66.5t56.5 -132.5 q0 -87 -71.5 -145.5t-176.5 -58.5q-74 0 -133 30q-22 10 -28 26.5z" />
<glyph unicode="&#xbb;" horiz-adv-x="1288" d="M127 324v17q0 41 34 61l375 237l-375 237q-34 20 -34 61v17q0 31 17.5 41t43.5 -7l456 -291q34 -20 34 -58t-34 -58l-456 -291q-27 -16 -44 -6.5t-17 40.5zM629 324v17q0 41 34 61l374 237l-374 237q-34 20 -34 61v17q0 31 17.5 41t43.5 -7l456 -291q34 -20 34 -58 t-34 -58l-456 -291q-27 -16 -44 -6.5t-17 40.5z" />
<glyph unicode="&#x2c6;" horiz-adv-x="843" d="M115.5 1169q-9.5 19 13.5 43l219 249q25 29 63 29h22q38 0 63 -29l219 -249q23 -25 13.5 -43.5t-42.5 -18.5h-19q-38 0 -63 29l-182 204l-182 -204q-25 -29 -63 -29h-19q-33 0 -42.5 19z" />
<glyph unicode="&#x2da;" horiz-adv-x="843" d="M213 1317q0 84 60.5 140.5t148.5 56.5t148.5 -56.5t60.5 -140.5t-60.5 -141t-148.5 -57t-148.5 57t-60.5 141zM309 1317q0 -47 32.5 -79.5t80.5 -32.5t80.5 32.5t32.5 79.5t-32.5 79t-80.5 32t-80.5 -32t-32.5 -79z" />
<glyph unicode="&#x2dc;" horiz-adv-x="843" d="M100.5 1248.5q-8.5 21.5 3.5 56.5q50 140 167 140q83 0 166 -78q29 -27 43 -39t35.5 -23.5t41.5 -11.5q48 0 75 75q15 50 61 41l16 -3q53 -11 37 -63q-49 -161 -174 -160q-83 0 -165 78q-29 27 -43 39t-35.5 23t-41.5 11q-48 0 -75 -74q-15 -50 -61 -41l-16 3 q-26 5 -34.5 26.5z" />
<glyph unicode="&#x400;" horiz-adv-x="1144" d="M180 51v1331q0 51 51 52h719q51 0 51 -52v-22q0 -51 -51 -51h-626v-526h572q51 0 51 -51v-22q0 -51 -51 -52h-572v-533h645q51 0 51 -51v-23q0 -51 -51 -51h-738q-51 0 -51 51zM328 1871q9 18 41 18h27q38 0 62 -30l207 -247q20 -26 11.5 -44.5t-40.5 -18.5h-23 q-38 0 -62 29l-210 249q-22 26 -13 44z" />
<glyph unicode="&#x401;" horiz-adv-x="1144" d="M180 51v1331q0 51 51 52h719q51 0 51 -52v-22q0 -51 -51 -51h-626v-526h572q51 0 51 -51v-22q0 -51 -51 -52h-572v-533h645q51 0 51 -51v-23q0 -51 -51 -51h-738q-51 0 -51 51zM311 1704q0 41 28 68.5t69 27.5t68.5 -27.5t27.5 -68.5t-27.5 -68.5t-68.5 -27.5t-69 27.5 t-28 68.5zM668 1704q0 41 27.5 68.5t68.5 27.5t68.5 -27.5t27.5 -68.5t-27.5 -68.5t-68.5 -27.5t-68.5 27.5t-27.5 68.5z" />
<glyph unicode="&#x402;" horiz-adv-x="1448" d="M66 1360v22q0 51 51 52h878q51 0 52 -52v-22q0 -51 -52 -51h-367v-545q56 72 143.5 115t185.5 43q173 0 291.5 -116.5t118.5 -285.5v-126q0 -168 -117.5 -283t-290.5 -115q-24 0 -35 1q-49 1 -50 52v20q0 26 9 38.5t26 11.5h36q118 0 198.5 80.5t80.5 198.5v116 q0 119 -81.5 201t-202.5 82q-97 0 -178.5 -48.5t-133.5 -136.5v-561q0 -51 -51 -51h-41q-51 0 -52 51v1258h-367q-51 0 -51 51z" />
<glyph unicode="&#x403;" horiz-adv-x="1051" d="M180 51v1331q0 51 51 52h714q51 0 51 -52v-22q0 -51 -51 -51h-621v-1258q0 -51 -52 -51h-41q-51 0 -51 51zM503.5 1611.5q-8.5 18.5 11.5 44.5l207 248q24 30 62 29h27q33 0 41.5 -18.5t-12.5 -43.5l-210 -249q-25 -29 -63 -29h-22q-33 0 -41.5 18.5z" />
<glyph unicode="&#x404;" horiz-adv-x="1387" d="M85 716.5q0 154.5 58 292t156.5 236t236.5 156t292 57.5q236 0 424 -128q42 -29 13 -72l-17 -23q-28 -42 -70 -13q-169 110 -350 109q-234 0 -403 -158t-192 -394h720q51 0 52 -51v-22q0 -51 -52 -52h-720q23 -236 192 -394t403 -158q196 0 365 121q42 31 72 -11l17 -25 q29 -42 -10 -71q-196 -140 -444 -141q-155 0 -292.5 57.5t-236 156.5t-156.5 236t-58 291.5z" />
<glyph unicode="&#x405;" horiz-adv-x="1191" d="M142 1080q0 166 123.5 272t319.5 106q232 0 402 -148q37 -33 4 -72l-20 -26q-32 -40 -73 -5q-146 124 -305 124q-135 0 -220 -68t-85 -172q0 -213 355 -291q234 -52 345 -158t111 -269q0 -174 -136 -286t-357 -112q-132 0 -253.5 52.5t-207.5 141.5q-35 36 1 72l24 24 q36 38 72 0q73 -74 166 -118.5t191 -44.5q156 0 255 75t99 194q0 232 -368 309q-216 45 -329.5 148t-113.5 252z" />
<glyph unicode="&#x406;" horiz-adv-x="577" d="M217 51v1331q0 51 51 52h41q51 0 51 -52v-1331q0 -51 -51 -51h-41q-51 0 -51 51z" />
<glyph unicode="&#x407;" horiz-adv-x="577" d="M14 1704q0 41 28 68.5t69 27.5t68.5 -27.5t27.5 -68.5t-27.5 -68.5t-68.5 -27.5t-69 27.5t-28 68.5zM217 51v1331q0 51 51 52h41q51 0 51 -52v-1331q0 -51 -51 -51h-41q-51 0 -51 51zM371 1704q0 41 27.5 68.5t68.5 27.5t68.5 -27.5t27.5 -68.5t-27.5 -68.5t-68.5 -27.5 t-68.5 27.5t-27.5 68.5z" />
<glyph unicode="&#x408;" horiz-adv-x="917" d="M75 91l10 27q18 48 68 25q95 -41 183 -41q132 0 202.5 80.5t70.5 244.5v955q0 51 51 52h41q51 0 52 -52v-955q0 -227 -106 -339.5t-307 -112.5q-124 0 -239 49q-44 19 -26 67z" />
<glyph unicode="&#x409;" horiz-adv-x="2052" d="M55 49v22q0 51 33 51q10 -1 33 -1q158 0 158 182v1079q0 51 51 52h829q51 0 51 -52v-469h257q226 0 366 -128t140 -328.5t-139.5 -328.5t-366.5 -128h-349q-51 0 -51 51v1258h-645v-1002q0 -144 -75 -227.5t-214 -83.5q-18 0 -29 1q-49 1 -49 52zM1210 125h252 q165 0 266.5 93t101.5 238.5t-101.5 238.5t-266.5 93h-252v-663z" />
<glyph unicode="&#x40a;" horiz-adv-x="2059" d="M180 51v1331q0 51 51 52h41q51 0 52 -52v-599h750v599q0 51 51 52h41q51 0 52 -52v-469h257q226 0 365.5 -128t139.5 -328.5t-139.5 -328.5t-365.5 -128h-350q-51 0 -51 51v607h-750v-607q0 -51 -52 -51h-41q-51 0 -51 51zM1218 125h251q165 0 266.5 93t101.5 238.5 t-101.5 238.5t-266.5 93h-251v-663z" />
<glyph unicode="&#x40b;" horiz-adv-x="1503" d="M66 1360v22q0 51 51 52h878q51 0 52 -52v-22q0 -51 -52 -51h-367v-545q56 72 143.5 115t185.5 43q173 0 291.5 -116.5t118.5 -285.5v-469q0 -51 -51 -51h-41q-51 0 -51 51v463q0 119 -81.5 201t-202.5 82q-97 0 -178.5 -48.5t-133.5 -136.5v-561q0 -51 -51 -51h-41 q-51 0 -52 51v1258h-367q-51 0 -51 51z" />
<glyph unicode="&#x40c;" horiz-adv-x="1215" d="M180 51v1331q0 51 51 52h41q51 0 52 -52v-599h159l447 619q23 32 61 32h50q32 0 41.5 -18.5t-9.5 -44.5l-467 -648l543 -661q20 -26 11.5 -44t-41.5 -18h-51q-39 0 -62 30l-519 628h-163v-607q0 -51 -52 -51h-41q-51 0 -51 51zM476.5 1567.5q-8.5 18.5 12.5 44.5l206 247 q24 30 63 30h26q33 0 42 -18.5t-13 -43.5l-210 -249q-25 -29 -62 -29h-23q-33 0 -41.5 18.5z" />
<glyph unicode="&#x40d;" horiz-adv-x="1423" d="M180 51v1331q0 51 51 52h37q51 0 51 -52v-1132l765 1151q23 33 62 33h46q51 0 51 -52v-1331q0 -51 -51 -51h-37q-51 0 -51 51v1133l-765 -1151q-23 -33 -61 -33h-47q-51 0 -51 51zM440 1871q9 18 41 18h27q38 1 62 -29l207 -248q20 -26 11.5 -44.5t-40.5 -18.5h-23 q-38 0 -62 29l-210 249q-22 26 -13 44z" />
<glyph unicode="&#x40e;" horiz-adv-x="1310" d="M83.5 1416.5q10.5 17.5 40.5 17.5h44q41 0 60 -37l434 -835l421 835q17 37 61 37h44q30 0 40 -17.5t-3 -43.5l-608 -1193q-46 -90 -112 -135t-164 -45h-74q-51 0 -51 51v23q0 51 51 51h59q108 0 167 114l93 177l-499 957q-14 26 -3.5 43.5zM348 1786q-5 25 8 39.5 t39 14.5h25q43 0 54 -48q16 -70 65.5 -113.5t122 -43.5t122 43.5t65.5 113.5q11 48 54 48h25q27 0 39.5 -15t7.5 -40q-24 -114 -110 -185t-203.5 -71t-203.5 71t-110 186z" />
<glyph unicode="&#x40f;" horiz-adv-x="1375" d="M180 51v1331q0 51 51 52h41q51 0 52 -52v-1257h728v1257q0 51 51 52h41q51 0 51 -52v-1331q0 -51 -51 -51h-384v-236q0 -51 -51 -51h-41q-51 0 -52 51v236h-385q-51 0 -51 51z" />
<glyph unicode="&#x410;" horiz-adv-x="1380" d="M80 59l516 1335q14 40 58 40h72q44 0 58 -40l516 -1335q10 -27 -1 -43t-39 -16h-52q-43 0 -58 41l-132 353h-656l-132 -353q-15 -41 -58 -41h-51q-29 0 -40 16.5t-1 42.5zM407 519h567l-284 754z" />
<glyph unicode="&#x411;" horiz-adv-x="1198" d="M180 51v1331q0 51 51 52h702q51 0 51 -52v-22q0 -51 -51 -51h-609v-396h267q226 0 366 -128t140 -328.5t-140 -328.5t-366 -128h-360q-51 0 -51 51zM324 125h262q164 0 264.5 93t100.5 238.5t-100.5 238.5t-264.5 93h-262v-663z" />
<glyph unicode="&#x412;" horiz-adv-x="1253" d="M180 51v1331q0 51 51 52h433q186 0 294.5 -102.5t108.5 -269.5q0 -116 -61 -197t-158 -109q128 -23 214.5 -117.5t86.5 -238.5q0 -177 -120.5 -288.5t-316.5 -111.5h-481q-51 0 -51 51zM324 125h374q136 0 221 76.5t85 202.5q0 125 -84.5 202t-221.5 77h-374v-558z M324 804h329q120 0 194.5 68t74.5 183.5t-74.5 184.5t-194.5 69h-329v-505z" />
<glyph unicode="&#x413;" horiz-adv-x="1051" d="M180 51v1331q0 51 51 52h714q51 0 51 -52v-22q0 -51 -51 -51h-621v-1258q0 -51 -52 -51h-41q-51 0 -51 51z" />
<glyph unicode="&#x414;" horiz-adv-x="1333" d="M68 74q0 51 51 51h62q183 437 184 1206v51q0 51 51 52h665q51 0 52 -52v-1257h81q51 0 52 -51v-310q0 -51 -52 -51h-40q-51 0 -52 51v236h-911v-236q0 -51 -51 -51h-41q-51 0 -51 51v310zM334 125h655v1184h-483q0 -323 -41.5 -637t-130.5 -547z" />
<glyph unicode="&#x415;" horiz-adv-x="1144" d="M180 51v1331q0 51 51 52h719q51 0 51 -52v-22q0 -51 -51 -51h-626v-526h572q51 0 51 -51v-22q0 -51 -51 -52h-572v-533h645q51 0 51 -51v-23q0 -51 -51 -51h-738q-51 0 -51 51z" />
<glyph unicode="&#x416;" horiz-adv-x="1845" d="M54 18.5q-9 18.5 12 43.5l524 661l-450 648q-17 26 -8 44.5t41 18.5h49q40 0 63 -33l428 -618h138v599q0 51 51 52h41q51 0 51 -52v-599h139l428 618q23 33 62 33h49q32 0 41 -18.5t-8 -44.5l-450 -648l525 -661q20 -26 11 -44t-41 -18h-50q-40 0 -63 30l-499 628h-144 v-607q0 -51 -51 -51h-41q-51 0 -51 51v607h-143l-500 -628q-23 -30 -63 -30h-50q-32 0 -41 18.5z" />
<glyph unicode="&#x417;" horiz-adv-x="1071" d="M95 163q-29 38 6 71l20 20q38 38 72 -7q56 -71 136 -110t172 -39q144 0 243 91t99 222q0 134 -102.5 223t-260.5 89h-103q-51 0 -51 51v17q0 51 51 51h106q126 0 208 71t82 177q0 104 -80.5 174.5t-198.5 70.5q-136 0 -240 -98q-37 -37 -73 -1l-15 15q-36 38 -1 73 q134 134 339 134q175 0 290.5 -105.5t115.5 -259.5q0 -103 -63 -186.5t-166 -120.5q134 -40 218.5 -141.5t84.5 -235.5q0 -183 -139.5 -308.5t-343.5 -125.5q-122 0 -228.5 49.5t-177.5 138.5z" />
<glyph unicode="&#x418;" horiz-adv-x="1423" d="M180 51v1331q0 51 51 52h37q51 0 51 -52v-1132l765 1151q23 33 62 33h46q51 0 51 -52v-1331q0 -51 -51 -51h-37q-51 0 -51 51v1133l-765 -1151q-23 -33 -61 -33h-47q-51 0 -51 51z" />
<glyph unicode="&#x419;" horiz-adv-x="1423" d="M180 51v1331q0 51 51 52h37q51 0 51 -52v-1132l765 1151q23 33 62 33h46q51 0 51 -52v-1331q0 -51 -51 -51h-37q-51 0 -51 51v1133l-765 -1151q-23 -33 -61 -33h-47q-51 0 -51 51zM398 1786q-5 25 8 39.5t39 14.5h25q43 0 54 -48q16 -70 65.5 -113.5t122 -43.5t122 43.5 t65.5 113.5q11 48 54 48h25q27 0 39.5 -15t7.5 -40q-24 -114 -110 -185t-203.5 -71t-203.5 71t-110 186z" />
<glyph unicode="&#x41a;" horiz-adv-x="1215" d="M180 51v1331q0 51 51 52h41q51 0 52 -52v-599h159l447 619q23 32 61 32h50q32 0 41.5 -18.5t-9.5 -44.5l-467 -648l543 -661q20 -26 11.5 -44t-41.5 -18h-51q-39 0 -62 30l-519 628h-163v-607q0 -51 -52 -51h-41q-51 0 -51 51z" />
<glyph unicode="&#x41b;" horiz-adv-x="1429" d="M55 49v22q0 51 33 51q10 -1 33 -1q158 0 158 182v1079q0 51 51 52h868q51 0 51 -52v-1331q0 -51 -51 -51h-41q-51 0 -51 51v1258h-684v-1002q0 -144 -75 -227.5t-214 -83.5q-18 0 -29 1q-49 1 -49 52z" />
<glyph unicode="&#x41c;" horiz-adv-x="1724" d="M180 51v1331q0 51 51 52h43q41 0 63 -33l525 -771l526 771q22 33 62 33h43q51 0 51 -52v-1331q0 -51 -51 -51h-37q-51 0 -51 51v1142l-473 -691q-22 -33 -63 -33h-14q-41 0 -62 33l-474 691v-1142q0 -51 -51 -51h-37q-51 0 -51 51z" />
<glyph unicode="&#x41d;" horiz-adv-x="1413" d="M180 51v1331q0 51 51 52h41q51 0 52 -52v-599h766v599q0 51 51 52h41q51 0 51 -52v-1331q0 -51 -51 -51h-41q-51 0 -51 51v607h-766v-607q0 -51 -52 -51h-41q-51 0 -51 51z" />
<glyph unicode="&#x41e;" horiz-adv-x="1656" d="M85 716.5q0 154.5 58 292t156.5 236t236.5 156t292.5 57.5t292 -57.5t236.5 -156t157 -236t58 -292t-58 -291.5t-157 -236t-236.5 -156.5t-292 -57.5t-292.5 57.5t-236.5 156.5t-156.5 236t-58 291.5zM230 717q0 -169 79 -310t217 -223t302.5 -82t302.5 82t216.5 223 t78.5 310t-78.5 309.5t-216.5 222.5t-302.5 82t-302.5 -82t-217 -222.5t-79 -309.5z" />
<glyph unicode="&#x41f;" horiz-adv-x="1375" d="M180 51v1331q0 51 51 52h913q51 0 51 -52v-1331q0 -51 -51 -51h-41q-51 0 -51 51v1258h-728v-1258q0 -51 -52 -51h-41q-51 0 -51 51z" />
<glyph unicode="&#x420;" horiz-adv-x="1181" d="M180 51v1331q0 51 51 52h382q223 0 356.5 -119t133.5 -317.5t-133 -317.5t-357 -119h-289v-510q0 -51 -52 -51h-41q-51 0 -51 51zM324 686h284q161 0 255 84.5t94 227t-94 227t-255 84.5h-284v-623z" />
<glyph unicode="&#x421;" horiz-adv-x="1387" d="M85 716.5q0 154.5 58 292t156.5 236t236.5 156t292 57.5q236 0 424 -128q42 -29 13 -72l-17 -23q-28 -42 -70 -13q-169 110 -350 109q-165 0 -302.5 -82t-216.5 -222.5t-79 -309.5t79 -310t216.5 -223t302.5 -82q196 0 365 121q42 31 72 -11l17 -25q29 -42 -10 -71 q-196 -140 -444 -141q-155 0 -292.5 57.5t-236 156.5t-156.5 236t-58 291.5z" />
<glyph unicode="&#x422;" horiz-adv-x="1112" d="M66 1360v22q0 51 51 52h878q51 0 52 -52v-22q0 -51 -52 -51h-367v-1258q0 -51 -51 -51h-41q-51 0 -52 51v1258h-367q-51 0 -51 51z" />
<glyph unicode="&#x423;" horiz-adv-x="1310" d="M83.5 1416.5q10.5 17.5 40.5 17.5h44q41 0 60 -37l434 -835l421 835q17 37 61 37h44q30 0 40 -17.5t-3 -43.5l-608 -1193q-46 -90 -112 -135t-164 -45h-74q-51 0 -51 51v23q0 51 51 51h59q108 0 167 114l93 177l-499 957q-14 26 -3.5 43.5z" />
<glyph unicode="&#x424;" horiz-adv-x="1529" d="M79 714.5q0 142.5 82 262t223 188t309 68.5v149q0 51 51 52h41q51 0 52 -52v-149q168 0 309 -68.5t223 -188t82 -262t-82 -261.5t-223 -187.5t-309 -68.5v-146q0 -51 -52 -51h-41q-51 0 -51 51v146q-168 0 -309 68.5t-223 187.5t-82 261.5zM224 715q0 -163 137 -278 t332 -115v786q-196 0 -332.5 -115t-136.5 -278zM837 322q196 0 332.5 115t136.5 278t-137 278t-332 115v-786z" />
<glyph unicode="&#x425;" horiz-adv-x="1277" d="M84 18.5q-9 18.5 8 43.5l461 667l-442 642q-17 26 -8 44.5t40 18.5h44q40 0 63 -33l389 -565l389 565q23 33 63 33h44q32 0 41 -18.5t-9 -44.5l-442 -642l461 -667q17 -26 8 -44t-41 -18h-44q-40 0 -62 33l-408 590l-408 -590q-23 -33 -62 -33h-44q-32 0 -41 18.5z" />
<glyph unicode="&#x426;" horiz-adv-x="1390" d="M180 51v1331q0 51 51 52h41q51 0 52 -52v-1257h728v1257q0 51 51 52h41q51 0 51 -52v-1257h77q51 0 51 -51v-310q0 -51 -51 -51h-41q-51 0 -51 51v236h-949q-51 0 -51 51z" />
<glyph unicode="&#x427;" horiz-adv-x="1240" d="M136 929v453q0 51 51 52h41q51 0 52 -52v-447q0 -124 88 -211t216 -87q101 0 190.5 52t141.5 140v553q0 51 52 52h41q51 0 51 -52v-1331q0 -51 -51 -51h-41q-51 0 -52 51v627q-56 -72 -151.5 -119t-198.5 -47q-181 0 -305.5 121.5t-124.5 295.5z" />
<glyph unicode="&#x428;" horiz-adv-x="1949" d="M180 51v1331q0 51 51 52h41q51 0 52 -52v-1257h579v1257q0 51 51 52h41q51 0 52 -52v-1257h579v1257q0 51 51 52h41q51 0 51 -52v-1331q0 -51 -51 -51h-1487q-51 0 -51 51z" />
<glyph unicode="&#x429;" horiz-adv-x="1965" d="M180 51v1331q0 51 51 52h41q51 0 52 -52v-1257h579v1257q0 51 51 52h41q51 0 52 -52v-1257h579v1257q0 51 51 52h41q51 0 51 -52v-1257h77q51 0 51 -51v-310q0 -51 -51 -51h-41q-51 0 -51 51v236h-1523q-51 0 -51 51z" />
<glyph unicode="&#x42a;" horiz-adv-x="1439" d="M66 1360v22q0 51 51 52h420q51 0 51 -52v-469h267q226 0 366 -128t140 -328.5t-140 -328.5t-366 -128h-359q-51 0 -52 51v1258h-327q-51 0 -51 51zM588 125h262q165 0 266.5 93t101.5 238.5t-101.5 238.5t-266.5 93h-262v-663z" />
<glyph unicode="&#x42b;" horiz-adv-x="1630" d="M180 51v1331q0 51 51 52h41q51 0 52 -52v-469h267q226 0 366 -128t140 -328.5t-140 -328.5t-366 -128h-360q-51 0 -51 51zM324 125h262q165 0 266 93t101 238.5t-101 238.5t-266 93h-262v-663zM1307 51v1331q0 51 51 52h41q51 0 51 -52v-1331q0 -51 -51 -51h-41 q-51 0 -51 51z" />
<glyph unicode="&#x42c;" horiz-adv-x="1175" d="M180 51v1331q0 51 51 52h41q51 0 52 -52v-469h267q226 0 366 -128t140 -328.5t-140 -328.5t-366 -128h-360q-51 0 -51 51zM324 125h262q165 0 266 93t101 238.5t-101 238.5t-266 93h-262v-663z" />
<glyph unicode="&#x42d;" horiz-adv-x="1387" d="M105 187l18 25q30 42 68 13q169 -123 368 -123q234 0 403.5 158.5t191.5 393.5h-720q-51 0 -51 52v22q0 51 51 51h720q-23 236 -191.5 394t-403.5 158q-182 0 -349 -109q-43 -29 -71 13l-16 23q-30 43 12 72q188 128 424 128q155 0 292.5 -57.5t236.5 -156t157 -236 t58 -292t-58 -291.5t-157 -236t-236.5 -156.5t-292.5 -57.5q-248 0 -442 141q-40 30 -12 71z" />
<glyph unicode="&#x42e;" horiz-adv-x="2134" d="M180 51v1331q0 51 51 52h41q51 0 52 -52v-601h241q11 142 73 268t159.5 216t229.5 141.5t279 51.5q155 0 292.5 -57.5t236 -156t156.5 -236t58 -292t-58 -291.5t-156.5 -236t-236.5 -156.5t-292 -57.5q-147 0 -279.5 52.5t-230 142.5t-158.5 216t-73 270h-241v-605 q0 -51 -52 -51h-41q-51 0 -51 51zM708 717q0 -169 78.5 -310t216.5 -223t302.5 -82t302.5 82t217 223t79 310t-79 309.5t-217 222.5t-302.5 82t-302.5 -82t-216.5 -222.5t-78.5 -309.5z" />
<glyph unicode="&#x42f;" horiz-adv-x="1215" d="M113 997q0 199 133 318t356 119h382q51 0 51 -52v-1331q0 -51 -51 -51h-41q-51 0 -51 51v510h-244l-377 -529q-22 -32 -61 -32h-44q-32 0 -41.5 18.5t8.5 43.5l361 508q-176 28 -278.5 141.5t-102.5 285.5zM258 997.5q0 -142.5 94 -227t255 -84.5h285v623h-285 q-161 0 -255 -84.5t-94 -227z" />
<glyph unicode="&#x430;" horiz-adv-x="1312" d="M80 530.5q0 148.5 69 275.5t194.5 203t279.5 76q119 0 220.5 -48t174.5 -136v109q0 51 51 51h37q51 0 51 -51v-959q0 -51 -51 -51h-37q-51 0 -51 51v109q-73 -88 -175 -136.5t-220 -48.5q-154 0 -279.5 76.5t-194.5 203.5t-69 275.5zM221 530.5q0 -115.5 55 -214.5 t152.5 -157.5t214.5 -58.5q122 0 222 63t153 168v397q-53 105 -153 169t-222 64q-117 0 -214.5 -58.5t-152.5 -157.5t-55 -214.5z" />
<glyph unicode="&#x431;" horiz-adv-x="1232" d="M100 563q0 239 36 400t123 275t227.5 173t353.5 80q49 5 57 -45l4 -24q8 -51 -46 -57q-173 -19 -285.5 -60.5t-181.5 -118.5t-99.5 -179t-38.5 -255q71 94 175.5 150t229.5 56q137 0 252 -65t180.5 -178t65.5 -248q0 -210 -150 -351t-376 -141q-233 0 -380 160t-147 428z M242 591q0 -221 102 -356t283 -135q163 0 274 106t111 261t-109 261t-266 106q-122 0 -222.5 -65.5t-172.5 -177.5z" />
<glyph unicode="&#x432;" horiz-adv-x="1046" d="M156 51v959q0 51 51 51h349q143 0 241 -79.5t98 -196.5q0 -77 -47.5 -138t-123.5 -90q94 -22 157 -96t63 -166q0 -125 -103.5 -210t-254.5 -85h-379q-51 0 -51 51zM295 121h285q96 0 160.5 52.5t64.5 130.5q0 79 -64.5 132t-160.5 53h-285v-368zM295 606h253 q89 0 148.5 48t59.5 119q0 72 -60 119.5t-148 47.5h-253v-334z" />
<glyph unicode="&#x433;" horiz-adv-x="832" d="M156 51v959q0 51 51 51h526q51 0 51 -51v-23q0 -51 -51 -51h-438v-885q0 -51 -51 -51h-37q-51 0 -51 51z" />
<glyph unicode="&#x434;" horiz-adv-x="1114" d="M54 72q0 51 51 51h60q151 321 158 887q0 51 51 51h493q51 0 52 -51v-887h90q51 0 51 -51v-238q0 -51 -51 -51h-37q-51 0 -51 51v166h-727v-166q0 -51 -52 -51h-37q-51 0 -51 51v238zM313 123h468v815h-325q0 -215 -36.5 -434.5t-106.5 -380.5z" />
<glyph unicode="&#x435;" horiz-adv-x="1241" d="M80 530q0 113 42 215.5t114 177t175 118.5t220 44q152 0 274 -71t189 -192t67 -265q0 -13 -1 -20q-3 -47 -54 -48h-884q11 -166 129 -279.5t291 -113.5q181 0 319 131q36 36 71 2l22 -19q40 -36 3 -73q-167 -162 -412 -162q-165 0 -295 75.5t-200 201.5t-70 278zM227 606 h789q-17 156 -124 257.5t-261 101.5q-153 0 -267 -103.5t-137 -255.5z" />
<glyph unicode="&#x436;" horiz-adv-x="1593" d="M53.5 18.5q-8.5 18.5 11.5 43.5l393 507l-337 429q-19 26 -10.5 44.5t41.5 18.5h48q39 0 62 -31l312 -400h153v380q0 51 51 51h37q51 0 51 -51v-380h151l314 400q24 31 63 31h48q33 0 41.5 -18.5t-10.5 -44.5l-337 -429l393 -507q19 -26 10.5 -44t-41.5 -18h-45 q-39 0 -62 31l-373 478h-152v-458q0 -51 -51 -51h-37q-51 0 -51 51v458h-154l-370 -478q-24 -31 -63 -31h-45q-33 0 -41.5 18.5z" />
<glyph unicode="&#x437;" horiz-adv-x="980" d="M101 122q-34 37 8 72l18 15q37 31 69 -1q108 -111 271 -111q118 0 198.5 60t80.5 147q0 88 -80.5 148t-198.5 60h-100q-51 0 -52 51v15q0 51 52 51h106q97 0 163.5 48t66.5 119.5t-66.5 120t-163.5 48.5q-141 0 -217 -93q-31 -41 -70 -16l-25 16q-47 30 -17 70 q52 70 137.5 106.5t191.5 36.5q157 0 263.5 -80t106.5 -199q0 -78 -53 -142t-146 -92q99 -26 170.5 -101t71.5 -175q0 -135 -121.5 -228t-297.5 -93q-227 0 -366 147z" />
<glyph unicode="&#x438;" horiz-adv-x="1243" d="M156 51v959q0 51 51 51h33q51 0 51 -51v-811l640 831q24 31 62 31h43q51 0 51 -51v-959q0 -51 -51 -51h-32q-51 0 -52 51v811l-640 -831q-24 -31 -62 -31h-43q-51 0 -51 51z" />
<glyph unicode="&#x439;" horiz-adv-x="1243" d="M156 51v959q0 51 51 51h33q51 0 51 -51v-811l640 831q24 31 62 31h43q51 0 51 -51v-959q0 -51 -51 -51h-32q-51 0 -52 51v811l-640 -831q-24 -31 -62 -31h-43q-51 0 -51 51zM308 1454q-5 25 8 39.5t39 14.5h25q43 0 54 -48q16 -70 65.5 -113t122 -43t122 43.5t65.5 112.5 q11 48 54 48h25q27 0 39.5 -14.5t7.5 -40.5q-24 -114 -110 -185t-203.5 -71t-203.5 71t-110 186z" />
<glyph unicode="&#x43a;" horiz-adv-x="1042" d="M156 51v959q0 51 51 51h37q51 0 51 -51v-370h164l319 391q24 30 63 30h49q33 0 41.5 -18.5t-11.5 -44.5l-345 -418l403 -518q19 -26 10.5 -44t-41.5 -18h-46q-39 0 -62 31l-382 488h-162v-468q0 -51 -51 -51h-37q-51 0 -51 51z" />
<glyph unicode="&#x43b;" horiz-adv-x="1252" d="M48 48v24q0 51 29 51q9 -1 28 -1q65 0 105.5 42.5t40.5 117.5v728q0 51 51 51h744q51 0 51 -51v-959q0 -51 -51 -51h-37q-51 0 -52 51v885h-567v-664q0 -121 -74 -199.5t-187 -78.5q-22 0 -33 1q-48 3 -48 53z" />
<glyph unicode="&#x43c;" horiz-adv-x="1368" d="M156 51v959q0 51 51 51h39q40 0 62 -33l376 -563l376 563q23 33 62 33h39q51 0 51 -51v-959q0 -51 -51 -51h-33q-51 0 -51 51v793l-327 -486q-22 -33 -63 -32h-6q-41 0 -63 32l-327 486v-793q0 -51 -51 -51h-33q-51 0 -51 51z" />
<glyph unicode="&#x43d;" horiz-adv-x="1243" d="M156 51v959q0 51 51 51h37q51 0 51 -51v-399h653v399q0 51 51 51h37q51 0 51 -51v-959q0 -51 -51 -51h-37q-51 0 -51 51v435h-653v-435q0 -51 -51 -51h-37q-51 0 -51 51z" />
<glyph unicode="&#x43e;" horiz-adv-x="1286" d="M80 530.5q0 150.5 72 277.5t202 202t289 75t289 -75t202 -202t72 -277.5t-72 -277.5t-202 -202.5t-289 -75.5t-289 75.5t-202 202.5t-72 277.5zM221 530.5q0 -115.5 55 -214.5t152.5 -157.5t214.5 -58.5t214.5 58.5t152.5 157.5t55 214.5t-55 214.5t-152.5 157.5 t-214.5 58.5t-214.5 -58.5t-152.5 -157.5t-55 -214.5z" />
<glyph unicode="&#x43f;" horiz-adv-x="1243" d="M156 51v959q0 51 51 51h829q51 0 51 -51v-959q0 -51 -51 -51h-37q-51 0 -51 51v885h-653v-885q0 -51 -51 -51h-37q-51 0 -51 51z" />
<glyph unicode="&#x440;" horiz-adv-x="1312" d="M156 -424v1434q0 51 51 51h37q51 0 51 -51v-109q73 88 174.5 136t220.5 48q154 0 279.5 -76t194.5 -203t69 -275.5t-69 -275.5t-194.5 -203.5t-279.5 -76.5q-119 0 -220.5 48.5t-174.5 136.5v-584q0 -51 -51 -51h-37q-51 0 -51 51zM295 331q53 -104 153 -167.5t222 -63.5 q117 0 214.5 58.5t152.5 157.5t55 214.5t-55 214.5t-153 157.5t-214 58.5q-122 0 -222 -63.5t-153 -169.5v-397z" />
<glyph unicode="&#x441;" horiz-adv-x="1118" d="M80 530.5q0 150.5 72 277.5t202 202t289 75q195 0 346 -113q38 -30 10 -72l-16 -24q-29 -44 -71 -11q-122 95 -269 96q-117 0 -214.5 -58.5t-152.5 -157.5t-55 -214.5t55 -214.5t152.5 -157.5t214.5 -58.5q155 0 281 106q42 34 72 -5l19 -23q33 -40 -2 -68 q-156 -135 -370 -135q-159 0 -289 75.5t-202 202.5t-72 277.5z" />
<glyph unicode="&#x442;" horiz-adv-x="956" d="M48 987v23q0 51 51 51h758q51 0 51 -51v-23q0 -51 -51 -51h-309v-885q0 -51 -51 -51h-37q-51 0 -51 51v885h-310q-51 0 -51 51z" />
<glyph unicode="&#x443;" horiz-adv-x="1069" d="M59 1001q-11 27 0.5 43.5t39.5 16.5h40q43 0 60 -40l338 -834l333 834q16 40 60 40h41q29 0 40 -16.5t0 -43.5l-578 -1436q-16 -40 -59 -40h-40q-29 0 -40 17t-1 42l172 425z" />
<glyph unicode="&#x444;" horiz-adv-x="2174" d="M80 530.5q0 148.5 69 275.5t194.5 203t279.5 76q119 0 220.5 -48t174.5 -136v543q0 51 51 51h37q51 0 51 -51v-543q73 88 175 136t220 48q154 0 279.5 -76t194.5 -203t69 -275.5t-69 -275.5t-194.5 -203.5t-279.5 -76.5q-119 0 -220.5 48.5t-174.5 136.5v-584 q0 -51 -51 -51h-37q-51 0 -51 51v584q-73 -88 -175 -136.5t-220 -48.5q-154 0 -279.5 76.5t-194.5 203.5t-69 275.5zM221 530.5q0 -115.5 55 -214.5t152.5 -157.5t214.5 -58.5q122 0 222 63t153 168v397q-53 105 -153 169t-222 64q-117 0 -214.5 -58.5t-152.5 -157.5 t-55 -214.5zM1157 331q53 -104 153 -167.5t222 -63.5q117 0 214.5 58.5t152.5 157.5t55 214.5t-55 214.5t-152.5 157.5t-214.5 58.5q-122 0 -222 -63.5t-153 -169.5v-397z" />
<glyph unicode="&#x445;" horiz-adv-x="1058" d="M71.5 18.5q-9.5 18.5 10.5 43.5l359 482l-333 454q-19 26 -9.5 44.5t40.5 18.5h41q38 0 63 -32l286 -390l287 390q25 32 63 32h41q32 0 41.5 -18.5t-10.5 -44.5l-334 -454l360 -482q19 -26 10 -44t-41 -18h-41q-40 0 -62 31l-314 416l-313 -416q-23 -31 -62 -31h-41 q-32 0 -41.5 18.5z" />
<glyph unicode="&#x446;" horiz-adv-x="1269" d="M156 51v959q0 51 51 51h37q51 0 51 -51v-885h653v885q0 51 51 51h37q51 0 51 -51v-885h77q51 0 51 -51v-310q0 -51 -51 -51h-37q-51 0 -51 51v236h-869q-51 0 -51 51z" />
<glyph unicode="&#x447;" horiz-adv-x="1112" d="M106 696v314q0 51 52 51h37q51 0 51 -51v-308q0 -120 77 -201t192 -81q197 0 302 229v361q0 51 51 51h37q51 0 51 -51v-959q0 -51 -51 -51h-37q-51 0 -51 51v436q-54 -87 -137 -139.5t-187 -52.5q-162 0 -274.5 116t-112.5 285z" />
<glyph unicode="&#x448;" horiz-adv-x="1599" d="M156 51v959q0 51 51 51h37q51 0 51 -51v-885h435v885q0 51 51 51h37q51 0 51 -51v-885h436v885q0 51 51 51h37q51 0 51 -51v-959q0 -51 -51 -51h-1186q-51 0 -51 51z" />
<glyph unicode="&#x449;" horiz-adv-x="1626" d="M156 51v959q0 51 51 51h37q51 0 51 -51v-885h435v885q0 51 51 51h37q51 0 51 -51v-885h436v885q0 51 51 51h37q51 0 51 -51v-885h77q51 0 51 -51v-310q0 -51 -51 -51h-37q-51 0 -51 51v236h-1226q-51 0 -51 51z" />
<glyph unicode="&#x44a;" horiz-adv-x="1208" d="M48 991v19q0 51 51 51h348q51 0 52 -51v-301h266q160 0 269.5 -103t109.5 -251.5t-109.5 -251.5t-269.5 -103h-354q-51 0 -52 51v889h-260q-51 0 -51 51zM499 121h256q104 0 177 67.5t73 166t-73 166t-177 67.5h-256v-467z" />
<glyph unicode="&#x44b;" horiz-adv-x="1413" d="M156 51v959q0 51 51 51h37q51 0 51 -51v-301h266q160 0 269.5 -103t109.5 -251.5t-109.5 -251.5t-269.5 -103h-354q-51 0 -51 51zM295 121h256q105 0 177.5 67t72.5 166.5t-72.5 166.5t-177.5 67h-256v-467zM1118 51v959q0 51 51 51h37q51 0 51 -51v-959q0 -51 -51 -51 h-37q-51 0 -51 51z" />
<glyph unicode="&#x44c;" horiz-adv-x="1004" d="M156 51v959q0 51 51 51h37q51 0 51 -51v-301h266q160 0 269.5 -103t109.5 -251.5t-109.5 -251.5t-269.5 -103h-354q-51 0 -51 51zM295 121h256q105 0 177.5 67t72.5 166.5t-72.5 166.5t-177.5 67h-256v-467z" />
<glyph unicode="&#x44d;" horiz-adv-x="1118" d="M103 178l19 23q33 39 73 5q126 -105 280 -106q162 0 279 106.5t139 264.5h-502q-51 0 -51 51v15q0 51 51 51h503q-22 158 -139 265.5t-280 107.5q-143 0 -269 -96q-42 -34 -71 11l-16 24q-28 42 10 72q152 114 346 113q159 0 289 -75t202 -202t72 -277.5t-72 -277.5 t-202 -202.5t-289 -75.5q-210 0 -366 130q-38 33 -6 73z" />
<glyph unicode="&#x44e;" horiz-adv-x="1677" d="M156 51v959q0 51 51 51h37q51 0 51 -51v-416h179q15 136 90 247.5t199 177.5t271 66q159 0 289 -75t202 -202t72 -277.5t-72 -277.5t-202 -202.5t-289 -75.5q-223 0 -380 142t-180 352h-179v-418q0 -51 -51 -51h-37q-51 0 -51 51zM612 530.5q0 -115.5 55 -214.5 t153 -157.5t214.5 -58.5t214.5 58.5t152.5 157.5t54.5 214.5t-54.5 214.5t-152.5 157.5t-214.5 58.5t-214.5 -58.5t-153 -157.5t-55 -214.5z" />
<glyph unicode="&#x44f;" horiz-adv-x="1110" d="M102 723q0 142 113.5 240t278.5 98h409q51 0 51 -51v-959q0 -51 -51 -51h-37q-51 0 -51 51v334h-276l-282 -355q-23 -30 -62 -30h-39q-32 0 -41.5 18.5t11.5 43.5l264 334q-127 29 -207.5 118.5t-80.5 208.5zM242 723q0 -93 73.5 -155t182.5 -62h317v434h-317 q-109 0 -182.5 -62t-73.5 -155z" />
<glyph unicode="&#x450;" horiz-adv-x="1241" d="M80 530q0 113 42 215.5t114 177t175 118.5t220 44q152 0 274 -71t189 -192t67 -265q0 -13 -1 -20q-3 -47 -54 -48h-884q11 -166 129 -279.5t291 -113.5q181 0 319 131q36 36 71 2l22 -19q40 -36 3 -73q-167 -162 -412 -162q-165 0 -295 75.5t-200 201.5t-70 278zM227 606 h789q-17 156 -124 257.5t-261 101.5q-153 0 -267 -103.5t-137 -255.5zM368 1539q9 18 41 18h27q38 0 62 -30l207 -247q20 -26 11.5 -44.5t-40.5 -18.5h-23q-38 0 -62 29l-210 249q-22 26 -13 44z" />
<glyph unicode="&#x451;" horiz-adv-x="1241" d="M80 530q0 113 42 215.5t114 177t175 118.5t220 44q152 0 274 -71t189 -192t67 -265q0 -13 -1 -20q-3 -47 -54 -48h-884q11 -166 129 -279.5t291 -113.5q181 0 319 131q36 36 71 2l22 -19q40 -36 3 -73q-167 -162 -412 -162q-165 0 -295 75.5t-200 201.5t-70 278zM227 606 h789q-17 156 -124 257.5t-261 101.5q-153 0 -267 -103.5t-137 -255.5zM346 1372q0 41 27.5 68.5t68.5 27.5t69 -27.5t28 -68.5t-28 -68.5t-69 -27.5t-68.5 27.5t-27.5 68.5zM702 1372q0 41 28 68.5t69 27.5t68.5 -27.5t27.5 -68.5t-27.5 -68.5t-68.5 -27.5t-69 27.5 t-28 68.5z" />
<glyph unicode="&#x452;" horiz-adv-x="1267" d="M36 1265.5q0 51.5 51 51.5h113v127q0 51 51 51h37q51 0 51 -51v-127h327q51 0 51 -51.5t-51 -51.5h-327v-355q65 97 158 161.5t214 64.5q183 0 302 -119.5t119 -303.5v-773q0 -184 -91.5 -273.5t-276.5 -89.5q-14 0 -47 2q-48 3 -48 53v20q0 51 47 48q15 -1 47 -1 q120 0 174.5 61.5t54.5 181.5v762q0 131 -86.5 219.5t-219.5 88.5q-110 0 -197.5 -73t-149.5 -185v-652q0 -51 -51 -51h-37q-51 0 -51 51v1163h-113q-51 0 -51 51.5z" />
<glyph unicode="&#x453;" horiz-adv-x="832" d="M156 51v959q0 51 51 51h526q51 0 51 -51v-23q0 -51 -51 -51h-438v-885q0 -51 -51 -51h-37q-51 0 -51 51zM307.5 1236q-8.5 18 11.5 44l207 248q24 30 63 30h26q33 0 42 -18.5t-13 -44.5l-210 -249q-25 -29 -62 -28h-23q-33 0 -41.5 18z" />
<glyph unicode="&#x454;" horiz-adv-x="1118" d="M80 530.5q0 150.5 72 277.5t202 202t289 75q195 0 346 -113q38 -30 10 -72l-16 -24q-29 -44 -71 -11q-126 95 -269 96q-163 0 -280 -108t-139 -265h503q51 0 51 -51v-15q0 -51 -51 -51h-502q22 -158 139 -264.5t279 -106.5q155 0 281 106q42 34 72 -5l19 -23 q33 -40 -2 -68q-156 -135 -370 -135q-159 0 -289 75.5t-202 202.5t-72 277.5z" />
<glyph unicode="&#x455;" horiz-adv-x="945" d="M109 188l14 18q33 41 72 2q115 -112 279 -112q115 0 183.5 51.5t68.5 135.5q0 159 -268 210q-171 33 -257.5 110.5t-86.5 194.5q0 123 99 205t258 82q172 0 308 -106q38 -31 7 -72l-13 -16q-31 -40 -72 -7q-105 81 -221 81q-97 0 -162 -49t-65 -120q0 -67 64 -117 t186 -74q362 -71 362 -324q0 -134 -103 -220t-280 -86q-224 0 -370 142q-34 33 -3 71z" />
<glyph unicode="&#x456;" horiz-adv-x="528" d="M165 1365q0 42 28.5 70.5t70.5 28.5t71 -28.5t29 -70.5t-29 -70.5t-71 -28.5t-70.5 28.5t-28.5 70.5zM195 51v959q0 51 51 51h37q51 0 51 -51v-959q0 -51 -51 -51h-37q-51 0 -51 51z" />
<glyph unicode="&#x457;" horiz-adv-x="528" d="M-11 1372q0 41 28 68.5t69 27.5t68.5 -27.5t27.5 -68.5t-27.5 -68.5t-68.5 -27.5t-69 27.5t-28 68.5zM195 51v959q0 51 51 51h37q51 0 51 -51v-959q0 -51 -51 -51h-37q-51 0 -51 51zM346 1372q0 41 27.5 68.5t68.5 27.5t68.5 -27.5t27.5 -68.5t-27.5 -68.5t-68.5 -27.5 t-68.5 27.5t-27.5 68.5z" />
<glyph unicode="&#x458;" horiz-adv-x="528" d="M-27 -402q0 51 32 51q6 0 17 -0.5t15 -0.5q158 0 158 182v1180q0 51 51 51h37q51 0 51 -51v-1178q0 -307 -283 -307q-19 0 -28 1q-49 3 -50 52v20zM165 1365q0 42 28.5 70.5t70.5 28.5t71 -28.5t29 -70.5t-29 -70.5t-71 -28.5t-70.5 28.5t-28.5 70.5z" />
<glyph unicode="&#x459;" horiz-adv-x="1755" d="M48 48v24q0 51 29 51q9 -1 28 -1q65 0 105.5 42.5t40.5 117.5v728q0 51 51 51h703q51 0 51 -51v-301h256q160 0 269.5 -103t109.5 -251.5t-110 -251.5t-269 -103h-344q-51 0 -52 51v885h-526v-664q0 -121 -74 -199.5t-187 -78.5q-22 0 -33 1q-48 3 -48 53zM1056 121h246 q104 0 176.5 67.5t72.5 166t-72.5 166t-176.5 67.5h-246v-467z" />
<glyph unicode="&#x45a;" horiz-adv-x="1745" d="M156 51v959q0 51 51 51h37q51 0 51 -51v-399h612v399q0 51 51 51h37q51 0 52 -51v-301h256q160 0 269 -103t109 -251.5t-109.5 -251.5t-268.5 -103h-345q-51 0 -51 51v435h-612v-435q0 -51 -51 -51h-37q-51 0 -51 51zM1047 121h245q105 0 177.5 67t72.5 166.5t-72 166.5 t-178 67h-245v-467z" />
<glyph unicode="&#x45b;" horiz-adv-x="1267" d="M36 1265.5q0 51.5 51 51.5h113v127q0 51 51 51h37q51 0 51 -51v-127h327q51 0 51 -51.5t-51 -51.5h-327v-355q65 97 158 161.5t214 64.5q183 0 302 -119.5t119 -303.5v-611q0 -51 -52 -51h-37q-51 0 -51 51v602q0 131 -86.5 219.5t-219.5 88.5q-110 0 -197.5 -73 t-149.5 -185v-652q0 -51 -51 -51h-37q-51 0 -51 51v1163h-113q-51 0 -51 51.5z" />
<glyph unicode="&#x45c;" horiz-adv-x="1042" d="M156 51v959q0 51 51 51h37q51 0 51 -51v-370h164l319 391q24 30 63 30h49q33 0 41.5 -18.5t-11.5 -44.5l-345 -418l403 -518q19 -26 10.5 -44t-41.5 -18h-46q-39 0 -62 31l-382 488h-162v-468q0 -51 -51 -51h-37q-51 0 -51 51zM392.5 1236q-8.5 18 11.5 44l207 248 q24 30 63 30h26q33 0 42 -18.5t-13 -44.5l-210 -249q-25 -29 -62 -28h-23q-33 0 -41.5 18z" />
<glyph unicode="&#x45d;" horiz-adv-x="1243" d="M156 51v959q0 51 51 51h33q51 0 51 -51v-811l640 831q24 31 62 31h43q51 0 51 -51v-959q0 -51 -51 -51h-32q-51 0 -52 51v811l-640 -831q-24 -31 -62 -31h-43q-51 0 -51 51zM357 1539.5q9 18.5 41 18.5h27q38 0 62 -30l207 -248q20 -26 11.5 -44t-40.5 -18h-23 q-38 0 -62 28l-210 249q-22 26 -13 44.5z" />
<glyph unicode="&#x45e;" horiz-adv-x="1069" d="M59 1001q-11 27 0.5 43.5t39.5 16.5h40q43 0 60 -40l338 -834l333 834q16 40 60 40h41q29 0 40 -16.5t0 -43.5l-578 -1436q-16 -40 -59 -40h-40q-29 0 -40 17t-1 42l172 425zM224 1454q-5 25 7.5 39.5t39.5 14.5h24q43 0 54 -48q16 -70 65.5 -113t122.5 -43t122 43.5 t65 112.5q11 48 55 48h24q27 0 39.5 -14.5t7.5 -40.5q-24 -114 -109.5 -185t-203.5 -71t-204 71t-109 186z" />
<glyph unicode="&#x45f;" horiz-adv-x="1243" d="M156 51v959q0 51 51 51h37q51 0 51 -51v-885h653v885q0 51 51 51h37q51 0 51 -51v-959q0 -51 -51 -51h-345v-236q0 -51 -51 -51h-37q-51 0 -51 51v236h-345q-51 0 -51 51z" />
<glyph unicode="&#x490;" horiz-adv-x="1051" d="M180 51v1331q0 51 51 52h622v235q0 51 51 51h41q51 0 51 -51v-309q0 -51 -51 -51h-621v-1258q0 -51 -52 -51h-41q-51 0 -51 51z" />
<glyph unicode="&#x491;" horiz-adv-x="832" d="M156 51v959q0 51 51 51h438v235q0 51 51 52h37q51 0 51 -52v-309q0 -51 -51 -51h-438v-885q0 -51 -51 -51h-37q-51 0 -51 51z" />
<glyph unicode="&#x2000;" horiz-adv-x="966" />
<glyph unicode="&#x2001;" horiz-adv-x="1933" />
<glyph unicode="&#x2002;" horiz-adv-x="966" />
<glyph unicode="&#x2003;" horiz-adv-x="1933" />
<glyph unicode="&#x2004;" horiz-adv-x="644" />
<glyph unicode="&#x2005;" horiz-adv-x="483" />
<glyph unicode="&#x2006;" horiz-adv-x="322" />
<glyph unicode="&#x2007;" horiz-adv-x="322" />
<glyph unicode="&#x2008;" horiz-adv-x="241" />
<glyph unicode="&#x2009;" horiz-adv-x="386" />
<glyph unicode="&#x200a;" horiz-adv-x="107" />
<glyph unicode="&#x2010;" horiz-adv-x="815" d="M120 666v28q0 51 51 51h473q51 0 51 -51v-28q0 -51 -51 -52h-473q-51 0 -51 52z" />
<glyph unicode="&#x2011;" horiz-adv-x="815" d="M120 666v28q0 51 51 51h473q51 0 51 -51v-28q0 -51 -51 -52h-473q-51 0 -51 52z" />
<glyph unicode="&#x2012;" horiz-adv-x="815" d="M120 666v28q0 51 51 51h473q51 0 51 -51v-28q0 -51 -51 -52h-473q-51 0 -51 52z" />
<glyph unicode="&#x2013;" horiz-adv-x="1024" d="M0 666v28q0 51 51 51h922q51 0 51 -51v-28q0 -51 -51 -52h-922q-51 0 -51 52z" />
<glyph unicode="&#x2014;" horiz-adv-x="2048" d="M0 666v28q0 51 51 51h1946q51 0 51 -51v-28q0 -51 -51 -52h-1946q-51 0 -51 52z" />
<glyph unicode="&#x2018;" horiz-adv-x="602" d="M197 1232q0 23 10 46l107 241q16 39 60 39q25 0 32.5 -16.5t-4.5 -43.5l-72 -166q34 -9 55 -36t21 -64q0 -44 -30 -74.5t-75 -30.5t-74.5 30.5t-29.5 74.5z" />
<glyph unicode="&#x2019;" horiz-adv-x="602" d="M195.5 1143.5q-7.5 16.5 4.5 43.5l72 166q-34 9 -54.5 36t-20.5 64q0 44 29.5 74.5t74.5 30.5t75 -30.5t30 -74.5q0 -23 -11 -46l-107 -241q-16 -39 -60 -39q-25 0 -32.5 16.5z" />
<glyph unicode="&#x201a;" horiz-adv-x="602" d="M195.5 -229.5q-7.5 16.5 4.5 43.5l72 166q-34 9 -54.5 36t-20.5 64q0 45 29.5 74.5t74.5 29.5t75 -29.5t30 -74.5q0 -23 -11 -46l-107 -241q-16 -39 -60 -39q-25 0 -32.5 16.5z" />
<glyph unicode="&#x201c;" horiz-adv-x="905" d="M197 1232q0 23 10 46l107 241q16 39 60 39q25 0 32.5 -16.5t-4.5 -43.5l-72 -166q34 -9 55 -36t21 -64q0 -44 -30 -74.5t-75 -30.5t-74.5 30.5t-29.5 74.5zM500 1232q0 23 10 46l107 241q16 39 60 39q25 0 32.5 -16.5t-3.5 -43.5l-73 -166q34 -9 55 -36t21 -64 q0 -44 -30 -74.5t-75 -30.5t-74.5 30.5t-29.5 74.5z" />
<glyph unicode="&#x201d;" horiz-adv-x="905" d="M195.5 1143.5q-7.5 16.5 4.5 43.5l72 166q-34 9 -54.5 36t-20.5 64q0 44 29.5 74.5t74.5 30.5t75 -30.5t30 -74.5q0 -23 -11 -46l-107 -241q-16 -39 -60 -39q-25 0 -32.5 16.5zM499 1143.5q-7 16.5 4 43.5l72 166q-34 9 -54.5 36t-20.5 64q0 44 29.5 74.5t74.5 30.5 t75 -30.5t30 -74.5q0 -23 -11 -46l-107 -241q-16 -39 -60 -39q-25 0 -32 16.5z" />
<glyph unicode="&#x201e;" horiz-adv-x="905" d="M195.5 -229.5q-7.5 16.5 4.5 43.5l72 166q-34 9 -54.5 36t-20.5 64q0 45 29.5 74.5t74.5 29.5t75 -29.5t30 -74.5q0 -23 -11 -46l-107 -241q-16 -39 -60 -39q-25 0 -32.5 16.5zM499 -229.5q-7 16.5 4 43.5l72 166q-34 9 -54.5 36t-20.5 64q0 45 29.5 74.5t74.5 29.5 t75 -29.5t30 -74.5q0 -23 -11 -46l-107 -241q-16 -39 -60 -39q-25 0 -32 16.5z" />
<glyph unicode="&#x2026;" horiz-adv-x="1806" d="M197 80q0 45 29.5 74.5t74.5 29.5t75 -29.5t30 -74.5t-30 -75t-75 -30t-74.5 30t-29.5 75zM799 80q0 45 29.5 74.5t74.5 29.5t75 -29.5t30 -74.5t-30 -75t-75 -30t-74.5 30t-29.5 75zM1401 80q0 45 29.5 74.5t74.5 29.5t75 -29.5t30 -74.5t-30 -75t-75 -30t-74.5 30 t-29.5 75z" />
<glyph unicode="&#x202f;" horiz-adv-x="386" />
<glyph unicode="&#x2039;" horiz-adv-x="786" d="M109 639q0 38 33 58l456 291q27 16 44 6.5t17 -40.5v-17q0 -41 -33 -61l-375 -237l375 -237q34 -20 33 -61v-17q0 -31 -17 -41t-44 7l-456 291q-33 20 -33 58z" />
<glyph unicode="&#x203a;" horiz-adv-x="786" d="M127 324v17q0 41 34 61l375 237l-375 237q-34 20 -34 61v17q0 31 17.5 41t43.5 -7l456 -291q34 -20 34 -58t-34 -58l-456 -291q-27 -16 -44 -6.5t-17 40.5z" />
<glyph unicode="&#x205f;" horiz-adv-x="483" />
<glyph unicode="&#x20ac;" horiz-adv-x="1466" d="M31 587q0 46 51 46h86q-4 37 -4 84t4 84h-86q-51 0 -51 48q0 45 51 45h101q59 249 259 406.5t465 157.5q236 0 424 -128q42 -29 12 -72l-16 -23q-28 -42 -71 -13q-169 110 -349 109q-204 0 -361 -122.5t-212 -314.5h598q51 0 51 -48q0 -45 -51 -45h-618q-5 -46 -5 -84 t5 -84h618q51 0 51 -48q0 -45 -51 -45h-598q55 -194 212 -316t361 -122q196 0 365 121q42 31 71 -11l18 -25q29 -42 -10 -71q-189 -140 -444 -141q-266 0 -465 158t-258 407h-102q-51 0 -51 47z" />
<glyph unicode="&#x2122;" horiz-adv-x="1563" d="M63 1392q0 42 52 42h439q51 0 51 -52q0 -42 -51 -42h-163v-613q0 -51 -51 -51h-11q-51 0 -51 51v613h-163q-51 0 -52 52zM699 727v655q0 51 52 52h11q41 0 62 -33l244 -361l245 361q22 33 62 33h10q51 0 52 -52v-655q0 -51 -52 -51h-9q-51 0 -51 51v508l-198 -289 q-21 -33 -58 -33t-58 33l-199 291v-510q0 -51 -51 -51h-10q-51 0 -52 51z" />
<glyph unicode="&#x25fc;" horiz-adv-x="1059" d="M0 0v1060h1060v-1060h-1060z" />
</font>
</defs>
</svg>
